%TF.GenerationSoftware,KiCad,Pcbnew,7.0.5*%
%TF.CreationDate,2023-06-27T23:48:28+08:00*%
%TF.ProjectId,BQ40Z80,42513430-5a38-4302-9e6b-696361645f70,rev?*%
%TF.SameCoordinates,Original*%
%TF.FileFunction,Copper,L3,Inr*%
%TF.FilePolarity,Positive*%
%FSLAX46Y46*%
G04 Gerber Fmt 4.6, Leading zero omitted, Abs format (unit mm)*
G04 Created by KiCad (PCBNEW 7.0.5) date 2023-06-27 23:48:28*
%MOMM*%
%LPD*%
G01*
G04 APERTURE LIST*
G04 Aperture macros list*
%AMRoundRect*
0 Rectangle with rounded corners*
0 $1 Rounding radius*
0 $2 $3 $4 $5 $6 $7 $8 $9 X,Y pos of 4 corners*
0 Add a 4 corners polygon primitive as box body*
4,1,4,$2,$3,$4,$5,$6,$7,$8,$9,$2,$3,0*
0 Add four circle primitives for the rounded corners*
1,1,$1+$1,$2,$3*
1,1,$1+$1,$4,$5*
1,1,$1+$1,$6,$7*
1,1,$1+$1,$8,$9*
0 Add four rect primitives between the rounded corners*
20,1,$1+$1,$2,$3,$4,$5,0*
20,1,$1+$1,$4,$5,$6,$7,0*
20,1,$1+$1,$6,$7,$8,$9,0*
20,1,$1+$1,$8,$9,$2,$3,0*%
G04 Aperture macros list end*
%TA.AperFunction,ComponentPad*%
%ADD10R,0.900000X2.000000*%
%TD*%
%TA.AperFunction,ComponentPad*%
%ADD11RoundRect,1.025000X1.025000X1.025000X-1.025000X1.025000X-1.025000X-1.025000X1.025000X-1.025000X0*%
%TD*%
%TA.AperFunction,ComponentPad*%
%ADD12C,4.100000*%
%TD*%
%TA.AperFunction,ComponentPad*%
%ADD13R,1.700000X1.700000*%
%TD*%
%TA.AperFunction,ComponentPad*%
%ADD14O,1.700000X1.700000*%
%TD*%
%TA.AperFunction,Conductor*%
%ADD15RoundRect,0.200000X-0.300000X0.050000X-0.300000X-0.050000X0.300000X-0.050000X0.300000X0.050000X0*%
%TD*%
%TA.AperFunction,ViaPad*%
%ADD16C,0.600000*%
%TD*%
%TA.AperFunction,Conductor*%
%ADD17C,0.180000*%
%TD*%
%TA.AperFunction,Conductor*%
%ADD18C,0.200000*%
%TD*%
%TA.AperFunction,Conductor*%
%ADD19C,0.400000*%
%TD*%
G04 APERTURE END LIST*
%TA.AperFunction,EtchedComponent*%
%TO.C,NT2*%
G36*
X109008800Y-125264800D02*
G01*
X108008800Y-125264800D01*
X108008800Y-124264800D01*
X109008800Y-124264800D01*
X109008800Y-125264800D01*
G37*
%TD.AperFunction*%
%TD*%
D10*
%TO.N,*%
%TO.C,J5*%
X125596600Y-137729200D03*
X112096600Y-137729200D03*
D11*
%TO.N,/PACK-*%
X115246600Y-131729200D03*
D12*
%TO.N,/PACK+*%
X122446600Y-131729200D03*
%TD*%
D13*
%TO.N,/PIN12*%
%TO.C,J4*%
X155981400Y-102108000D03*
D14*
%TO.N,/PIN13*%
X153441400Y-102108000D03*
%TO.N,/PIN15*%
X150901400Y-102108000D03*
%TO.N,/PIN16*%
X148361400Y-102108000D03*
%TO.N,/PIN17*%
X145821400Y-102108000D03*
%TO.N,/PIN20*%
X143281400Y-102108000D03*
%TO.N,/PIN21*%
X140741400Y-102108000D03*
%TO.N,/PIN22*%
X138201400Y-102108000D03*
%TD*%
D15*
%TO.N,GND*%
%TO.C,NT2*%
X108508800Y-124264800D03*
%TO.N,GNDPWR*%
X108508800Y-125264800D03*
%TD*%
D16*
%TO.N,GND*%
X134467600Y-134975600D03*
X151815800Y-144373600D03*
X146633800Y-113131200D03*
X135813800Y-101498400D03*
X160274000Y-125069600D03*
X145744800Y-113131200D03*
X167792400Y-111683800D03*
X146633800Y-114020200D03*
X114604800Y-122402600D03*
X135813800Y-103632000D03*
X166827200Y-122428000D03*
X144855800Y-114909200D03*
X108331000Y-122631200D03*
X135813800Y-102920800D03*
X144855800Y-113131200D03*
X150393400Y-144373600D03*
X167792400Y-114528600D03*
X167792400Y-113817400D03*
X158419800Y-100685600D03*
X158419800Y-102819200D03*
X152501600Y-117500400D03*
X144855800Y-114020200D03*
X131419600Y-124282200D03*
X135813800Y-100787200D03*
X136601200Y-134975600D03*
X135890000Y-134975600D03*
X160274000Y-126492000D03*
X166827200Y-123139200D03*
X158419800Y-102108000D03*
X160274000Y-125780800D03*
X162052000Y-113487200D03*
X166827200Y-121716800D03*
X152527000Y-144373600D03*
X149682200Y-144373600D03*
X158419800Y-101396800D03*
X133527800Y-143865600D03*
X134239000Y-143865600D03*
X161366200Y-109626400D03*
X135178800Y-134975600D03*
X151104600Y-144373600D03*
X109778800Y-122605800D03*
X153924000Y-117500400D03*
X167792400Y-112395000D03*
X145744800Y-114909200D03*
X153212800Y-117500400D03*
X151079200Y-117500400D03*
X151790400Y-117500400D03*
X132816600Y-143865600D03*
X130632200Y-124282200D03*
X135813800Y-102209600D03*
X137312400Y-134975600D03*
X158419800Y-103530400D03*
X145744800Y-114020200D03*
X130632200Y-122351800D03*
X167792400Y-113106200D03*
X131419600Y-122351800D03*
X161391600Y-111556800D03*
X160477200Y-114020600D03*
X146633800Y-114909200D03*
%TO.N,/SR_P*%
X147352100Y-117341300D03*
X110921800Y-119634000D03*
%TO.N,/PACK+*%
X122783600Y-129082800D03*
X120243600Y-129082800D03*
X122783600Y-127812800D03*
X124053600Y-126542800D03*
X122783600Y-126542800D03*
X124053600Y-127812800D03*
X120243600Y-127812800D03*
X136525000Y-110820200D03*
X124053600Y-125272800D03*
X126691947Y-120780637D03*
X121513600Y-127812800D03*
X122783600Y-125272800D03*
X124053600Y-129082800D03*
X121513600Y-129082800D03*
X121513600Y-125272800D03*
X121513600Y-126542800D03*
X120243600Y-126542800D03*
X120243600Y-125272800D03*
%TO.N,/SR_N*%
X111887000Y-119634000D03*
X146514300Y-117373400D03*
%TO.N,/BAT+*%
X102565200Y-113741200D03*
X105105200Y-115011200D03*
X108915200Y-109931200D03*
X105105200Y-109931200D03*
X108915200Y-115011200D03*
X102565200Y-104851200D03*
X107645200Y-113741200D03*
X101295200Y-102311200D03*
X106375200Y-108661200D03*
X103835200Y-104851200D03*
X106375200Y-112471200D03*
X137312400Y-117779800D03*
X101295200Y-109931200D03*
X107645200Y-101041200D03*
X108915200Y-111201200D03*
X108915200Y-103581200D03*
X105105200Y-102311200D03*
X107645200Y-104851200D03*
X103835200Y-117551200D03*
X107645200Y-117551200D03*
X107645200Y-103581200D03*
X101295200Y-115011200D03*
X105105200Y-107391200D03*
X101295200Y-108661200D03*
X106375200Y-106121200D03*
X108915200Y-107391200D03*
X102565200Y-112471200D03*
X103835200Y-111201200D03*
X105105200Y-117551200D03*
X107645200Y-102311200D03*
X102565200Y-111201200D03*
X102565200Y-115011200D03*
X107645200Y-107391200D03*
X102565200Y-102311200D03*
X106375200Y-104851200D03*
X106375200Y-111201200D03*
X102565200Y-116281200D03*
X102565200Y-109931200D03*
X108915200Y-108661200D03*
X106375200Y-101041200D03*
X103835200Y-102311200D03*
X108915200Y-106121200D03*
X102565200Y-103581200D03*
X101295200Y-112471200D03*
X107645200Y-116281200D03*
X103835200Y-109931200D03*
X106375200Y-102311200D03*
X105105200Y-103581200D03*
X106375200Y-117551200D03*
X103835200Y-107391200D03*
X106375200Y-103581200D03*
X101295200Y-117551200D03*
X107645200Y-111201200D03*
X106375200Y-115011200D03*
X106375200Y-107391200D03*
X108915200Y-101041200D03*
X105105200Y-113741200D03*
X103835200Y-103581200D03*
X105105200Y-116281200D03*
X101295200Y-104851200D03*
X101295200Y-101041200D03*
X107645200Y-109931200D03*
X106375200Y-113741200D03*
X101295200Y-111201200D03*
X103835200Y-113741200D03*
X102565200Y-106121200D03*
X102565200Y-117551200D03*
X108915200Y-116281200D03*
X101295200Y-116281200D03*
X101295200Y-113741200D03*
X106375200Y-109931200D03*
X108915200Y-113741200D03*
X103835200Y-108661200D03*
X107645200Y-106121200D03*
X108915200Y-102311200D03*
X103835200Y-112471200D03*
X102565200Y-108661200D03*
X101295200Y-103581200D03*
X105105200Y-111201200D03*
X105105200Y-101041200D03*
X105105200Y-112471200D03*
X105105200Y-106121200D03*
X107645200Y-112471200D03*
X106375200Y-116281200D03*
X103835200Y-115011200D03*
X101295200Y-107391200D03*
X108915200Y-104851200D03*
X103835200Y-116281200D03*
X103835200Y-101041200D03*
X103835200Y-106121200D03*
X101295200Y-106121200D03*
X105105200Y-104851200D03*
X108915200Y-112471200D03*
X102565200Y-107391200D03*
X107645200Y-115011200D03*
X102565200Y-101041200D03*
X105105200Y-108661200D03*
X107645200Y-108661200D03*
%TO.N,/LEDCNTLA*%
X165912800Y-133324600D03*
X166319200Y-129336800D03*
%TO.N,Net-(Q7-D)*%
X112115600Y-118414800D03*
X132054600Y-108788200D03*
X111150400Y-118414800D03*
X110159800Y-118414800D03*
%TO.N,/TS1*%
X132918200Y-141732000D03*
X149275800Y-115417600D03*
%TO.N,Net-(Q12-D)*%
X124053600Y-114452400D03*
X122783600Y-113182400D03*
X121513600Y-114452400D03*
X122783600Y-115722400D03*
X122783600Y-111912400D03*
X120243600Y-114452400D03*
X120243600Y-115722400D03*
X121513600Y-110642400D03*
X124053600Y-116992400D03*
X120243600Y-119532400D03*
X124053600Y-115722400D03*
X122783600Y-119532400D03*
X130276600Y-113969800D03*
X122783600Y-118262400D03*
X121513600Y-116992400D03*
X120243600Y-118262400D03*
X121513600Y-111912400D03*
X122783600Y-116992400D03*
X121513600Y-113182400D03*
X124053600Y-111912400D03*
X136296400Y-110068900D03*
X122783600Y-110642400D03*
X120243600Y-113182400D03*
X121513600Y-118262400D03*
X124053600Y-110642400D03*
X120243600Y-111912400D03*
X121513600Y-115722400D03*
X124053600Y-113182400D03*
X124053600Y-119532400D03*
X122783600Y-114452400D03*
X120243600Y-116992400D03*
X121513600Y-119532400D03*
X124053600Y-118262400D03*
X120243600Y-110642400D03*
%TO.N,Net-(Q8-G)*%
X126441200Y-109651800D03*
X137744200Y-115646200D03*
%TO.N,Net-(Q9-G)*%
X129895600Y-112115600D03*
X136499600Y-113919000D03*
%TO.N,Net-(Q12-G)*%
X135930100Y-112953800D03*
X126695200Y-119735600D03*
%TO.N,/PACK-*%
X113588800Y-127812800D03*
X117398800Y-126542800D03*
X113588800Y-126542800D03*
X114858800Y-127812800D03*
X116128800Y-129082800D03*
X114858800Y-126542800D03*
X117398800Y-125272800D03*
X116128800Y-125272800D03*
X114858800Y-125272800D03*
X113588800Y-125272800D03*
X117398800Y-129082800D03*
X117398800Y-127812800D03*
X116128800Y-126542800D03*
X114858800Y-129082800D03*
X113588800Y-129082800D03*
X116128800Y-127812800D03*
%TO.N,/PIN22*%
X161442400Y-127889000D03*
X141401800Y-106981500D03*
%TO.N,/PIN21*%
X142976600Y-106981500D03*
X162179000Y-130479800D03*
%TO.N,/PIN20*%
X144551400Y-106981500D03*
X162001200Y-133146800D03*
%TO.N,/PIN13*%
X150850600Y-107007900D03*
%TO.N,/PIN16*%
X147701000Y-106969300D03*
X134213600Y-119862600D03*
%TO.N,/PIN17*%
X146126200Y-106981500D03*
X147904200Y-111963200D03*
X154965400Y-114579400D03*
%TO.N,/PIN15*%
X164261800Y-120345200D03*
X149275800Y-106994700D03*
%TO.N,/PIN12*%
X152425400Y-107007900D03*
%TO.N,/SMBC*%
X156712223Y-110584360D03*
X146431596Y-109382184D03*
%TO.N,/SMBD*%
X155092400Y-109702600D03*
X147142200Y-109702600D03*
%TO.N,Net-(C9-Pad1)*%
X115214400Y-109931200D03*
X121564400Y-101041200D03*
X121564400Y-103581200D03*
X124104400Y-102311200D03*
X121564400Y-104851200D03*
X119024400Y-104851200D03*
X116484400Y-112471200D03*
X115214400Y-104851200D03*
X116484400Y-113741200D03*
X112674400Y-111201200D03*
X120294400Y-103581200D03*
X124104400Y-101041200D03*
X119024400Y-106121200D03*
X117754400Y-107391200D03*
X112674400Y-106121200D03*
X117754400Y-103581200D03*
X124104400Y-103581200D03*
X117754400Y-104851200D03*
X112674400Y-101041200D03*
X120294400Y-102311200D03*
X122834400Y-103581200D03*
X113944400Y-106121200D03*
X112674400Y-113741200D03*
X122834400Y-104851200D03*
X112674400Y-115011200D03*
X122834400Y-107391200D03*
X112674400Y-109931200D03*
X117754400Y-115011200D03*
X115214400Y-108661200D03*
X113944400Y-102311200D03*
X112674400Y-104851200D03*
X122834400Y-106121200D03*
X115214400Y-117551200D03*
X116484400Y-108661200D03*
X120294400Y-101041200D03*
X119024400Y-101041200D03*
X124104400Y-107391200D03*
X113944400Y-107391200D03*
X115214400Y-103581200D03*
X113944400Y-101041200D03*
X113944400Y-104851200D03*
X116484400Y-101041200D03*
X113944400Y-117551200D03*
X116484400Y-106121200D03*
X120294400Y-106121200D03*
X117754400Y-108661200D03*
X115214400Y-116281200D03*
X112674400Y-112471200D03*
X115214400Y-107391200D03*
X117754400Y-111201200D03*
X116484400Y-102311200D03*
X116484400Y-104851200D03*
X122834400Y-101041200D03*
X117754400Y-112471200D03*
X112674400Y-103581200D03*
X115214400Y-113741200D03*
X117754400Y-106121200D03*
X113944400Y-103581200D03*
X120294400Y-107391200D03*
X122834400Y-102311200D03*
X121564400Y-106121200D03*
X113944400Y-113741200D03*
X117754400Y-116281200D03*
X119024400Y-107391200D03*
X113944400Y-108661200D03*
X115214400Y-102311200D03*
X124104400Y-106121200D03*
X112674400Y-102311200D03*
X117754400Y-109931200D03*
X113944400Y-116281200D03*
X120294400Y-104851200D03*
X119024400Y-102311200D03*
X115214400Y-106121200D03*
X116484400Y-116281200D03*
X115214400Y-115011200D03*
X113944400Y-112471200D03*
X116484400Y-107391200D03*
X116484400Y-111201200D03*
X113944400Y-111201200D03*
X113944400Y-109931200D03*
X115214400Y-112471200D03*
X112674400Y-107391200D03*
X112674400Y-108661200D03*
X117754400Y-101041200D03*
X117754400Y-102311200D03*
X116484400Y-103581200D03*
X119024400Y-103581200D03*
X115214400Y-111201200D03*
X116484400Y-109931200D03*
X121564400Y-107391200D03*
X113944400Y-115011200D03*
X115214400Y-101041200D03*
X117754400Y-113741200D03*
X116484400Y-115011200D03*
X121564400Y-102311200D03*
X124104400Y-104851200D03*
%TO.N,GNDPWR*%
X108839000Y-127127000D03*
X103759000Y-142367000D03*
X101219000Y-130937000D03*
X108839000Y-134747000D03*
X102489000Y-139827000D03*
X107569000Y-137287000D03*
X108839000Y-144907000D03*
X101219000Y-139827000D03*
X107569000Y-128397000D03*
X108839000Y-138557000D03*
X102489000Y-141097000D03*
X103759000Y-130937000D03*
X105029000Y-136017000D03*
X105029000Y-134747000D03*
X105029000Y-127127000D03*
X107569000Y-134747000D03*
X108839000Y-129667000D03*
X105029000Y-137287000D03*
X108839000Y-130937000D03*
X102489000Y-125857000D03*
X106299000Y-127127000D03*
X102489000Y-138557000D03*
X103759000Y-137287000D03*
X101219000Y-141097000D03*
X105029000Y-144907000D03*
X102489000Y-143637000D03*
X108839000Y-141097000D03*
X105029000Y-129667000D03*
X101219000Y-133477000D03*
X107569000Y-142367000D03*
X106299000Y-132207000D03*
X108839000Y-132207000D03*
X103759000Y-139827000D03*
X107569000Y-139827000D03*
X105029000Y-138557000D03*
X107569000Y-141097000D03*
X106299000Y-142367000D03*
X102489000Y-144907000D03*
X103759000Y-129667000D03*
X108839000Y-142367000D03*
X103759000Y-132207000D03*
X101219000Y-138557000D03*
X108839000Y-143637000D03*
X103759000Y-133477000D03*
X107569000Y-138557000D03*
X107569000Y-133477000D03*
X105029000Y-130937000D03*
X101219000Y-129667000D03*
X106299000Y-144907000D03*
X106299000Y-134747000D03*
X107569000Y-144907000D03*
X103759000Y-125857000D03*
X106299000Y-130937000D03*
X108839000Y-136017000D03*
X101219000Y-142367000D03*
X107569000Y-132207000D03*
X102489000Y-134747000D03*
X103759000Y-138557000D03*
X102489000Y-127127000D03*
X101219000Y-132207000D03*
X102489000Y-129667000D03*
X107569000Y-130937000D03*
X105029000Y-143637000D03*
X105029000Y-142367000D03*
X105029000Y-128397000D03*
X107569000Y-136017000D03*
X106299000Y-129667000D03*
X106299000Y-138557000D03*
X101219000Y-134747000D03*
X106299000Y-137287000D03*
X102489000Y-130937000D03*
X106299000Y-136017000D03*
X101219000Y-127127000D03*
X108839000Y-137287000D03*
X102489000Y-128397000D03*
X108839000Y-139827000D03*
X102489000Y-132207000D03*
X105029000Y-141097000D03*
X103759000Y-134747000D03*
X106299000Y-141097000D03*
X103759000Y-136017000D03*
X107569000Y-143637000D03*
X105029000Y-132207000D03*
X107569000Y-129667000D03*
X106299000Y-139827000D03*
X101219000Y-137287000D03*
X103759000Y-143637000D03*
X106299000Y-128397000D03*
X101219000Y-144907000D03*
X103759000Y-144907000D03*
X102489000Y-136017000D03*
X107569000Y-125857000D03*
X106299000Y-125857000D03*
X108839000Y-125857000D03*
X101219000Y-136017000D03*
X101219000Y-143637000D03*
X106299000Y-133477000D03*
X108839000Y-133477000D03*
X108839000Y-128397000D03*
X103759000Y-127127000D03*
X107569000Y-127127000D03*
X101219000Y-125857000D03*
X105029000Y-139827000D03*
X101219000Y-128397000D03*
X103759000Y-128397000D03*
X102489000Y-142367000D03*
X102489000Y-137287000D03*
X105029000Y-133477000D03*
X106299000Y-143637000D03*
X105029000Y-125857000D03*
X102489000Y-133477000D03*
X103759000Y-141097000D03*
%TD*%
D17*
%TO.N,/SR_P*%
X110921800Y-119634000D02*
X111202100Y-119914300D01*
X147132150Y-120252906D02*
X147132150Y-117561250D01*
X113970544Y-123469400D02*
X143915656Y-123469400D01*
X111202100Y-119914300D02*
X111202100Y-120700956D01*
X147132150Y-117561250D02*
X147352100Y-117341300D01*
X143915656Y-123469400D02*
X147132150Y-120252906D01*
X111202100Y-120700956D02*
X113970544Y-123469400D01*
D18*
%TO.N,/PACK+*%
X126691947Y-120780637D02*
X126695584Y-120777000D01*
X126695584Y-120777000D02*
X131394200Y-120777000D01*
X137210800Y-114960400D02*
X137210800Y-111506000D01*
X131394200Y-120777000D02*
X137210800Y-114960400D01*
X137210800Y-111506000D02*
X136525000Y-110820200D01*
D17*
%TO.N,/SR_N*%
X143667544Y-123109400D02*
X146702150Y-120074794D01*
X114119660Y-123109400D02*
X143667544Y-123109400D01*
X111887000Y-119634000D02*
X111562100Y-119958900D01*
X111562100Y-119958900D02*
X111562100Y-120551840D01*
X111562100Y-120551840D02*
X114119660Y-123109400D01*
X146702150Y-117561250D02*
X146514300Y-117373400D01*
X146702150Y-120074794D02*
X146702150Y-117561250D01*
%TO.N,/BAT+*%
X131572000Y-121615200D02*
X115036600Y-121615200D01*
X108345200Y-119064000D02*
X107594400Y-118313200D01*
X135407400Y-117779800D02*
X131572000Y-121615200D01*
X137312400Y-117779800D02*
X135407400Y-117779800D01*
X112485400Y-119064000D02*
X108345200Y-119064000D01*
X115036600Y-121615200D02*
X112485400Y-119064000D01*
%TO.N,/LEDCNTLA*%
X166319200Y-132918200D02*
X165912800Y-133324600D01*
X166319200Y-129336800D02*
X166319200Y-132918200D01*
D19*
%TO.N,Net-(Q7-D)*%
X125272800Y-120192800D02*
X124663200Y-120802400D01*
X124663200Y-120802400D02*
X115366800Y-120802400D01*
X132029200Y-108788200D02*
X132054600Y-108788200D01*
X112979200Y-118414800D02*
X110159800Y-118414800D01*
X131800600Y-108559600D02*
X132029200Y-108788200D01*
X131800600Y-108559600D02*
X125831600Y-108559600D01*
X125272800Y-109118400D02*
X125272800Y-120192800D01*
X125831600Y-108559600D02*
X125272800Y-109118400D01*
X115366800Y-120802400D02*
X112979200Y-118414800D01*
D17*
%TO.N,/TS1*%
X132918200Y-126619000D02*
X134264400Y-125272800D01*
X145440400Y-125272800D02*
X149275800Y-121437400D01*
X149275800Y-121437400D02*
X149275800Y-115417600D01*
X134264400Y-125272800D02*
X145440400Y-125272800D01*
X132918200Y-141732000D02*
X132918200Y-126619000D01*
%TO.N,Net-(Q12-D)*%
X136296400Y-110068900D02*
X135748300Y-110617000D01*
X129209800Y-111226600D02*
X129209800Y-113538000D01*
X129641600Y-113969800D02*
X130276600Y-113969800D01*
X129819400Y-110617000D02*
X129209800Y-111226600D01*
X129209800Y-113538000D02*
X129641600Y-113969800D01*
X135748300Y-110617000D02*
X129819400Y-110617000D01*
%TO.N,Net-(Q8-G)*%
X137845800Y-110642400D02*
X137845800Y-115544600D01*
X126593600Y-109499400D02*
X136702800Y-109499400D01*
X137845800Y-115544600D02*
X137744200Y-115646200D01*
X126441200Y-109651800D02*
X126593600Y-109499400D01*
X136702800Y-109499400D02*
X137845800Y-110642400D01*
%TO.N,Net-(Q9-G)*%
X136499600Y-113919000D02*
X136499600Y-112649000D01*
X135966200Y-112115600D02*
X129895600Y-112115600D01*
X136499600Y-112649000D02*
X135966200Y-112115600D01*
%TO.N,Net-(Q12-G)*%
X127050800Y-120091200D02*
X131064000Y-120091200D01*
X131064000Y-120091200D02*
X135930100Y-115225100D01*
X126695200Y-119735600D02*
X127050800Y-120091200D01*
X135930100Y-115225100D02*
X135930100Y-112953800D01*
%TO.N,/PIN22*%
X141401800Y-107492800D02*
X145262600Y-111353600D01*
X161442400Y-118948200D02*
X161442400Y-127889000D01*
X141401800Y-106981500D02*
X141401800Y-107492800D01*
X145262600Y-111353600D02*
X153847800Y-111353600D01*
X153847800Y-111353600D02*
X161442400Y-118948200D01*
%TO.N,/PIN21*%
X162179000Y-118110000D02*
X162179000Y-130479800D01*
X154889200Y-110820200D02*
X162179000Y-118110000D01*
X142951200Y-107006900D02*
X142951200Y-108178600D01*
X142976600Y-106981500D02*
X142951200Y-107006900D01*
X145592800Y-110820200D02*
X154889200Y-110820200D01*
X142951200Y-108178600D02*
X145592800Y-110820200D01*
%TO.N,/PIN20*%
X162966400Y-117779800D02*
X155498800Y-110312200D01*
X144551400Y-108889800D02*
X144551400Y-106981500D01*
X162966400Y-132181600D02*
X162966400Y-117779800D01*
X145973800Y-110312200D02*
X144551400Y-108889800D01*
X162001200Y-133146800D02*
X162966400Y-132181600D01*
X155498800Y-110312200D02*
X145973800Y-110312200D01*
%TO.N,/PIN16*%
X136321800Y-119862600D02*
X140360400Y-115824000D01*
X140360400Y-115824000D02*
X140360400Y-106832400D01*
X146598900Y-105867200D02*
X147701000Y-106969300D01*
X140360400Y-106832400D02*
X141325600Y-105867200D01*
X134213600Y-119862600D02*
X136321800Y-119862600D01*
X141325600Y-105867200D02*
X146598900Y-105867200D01*
%TO.N,/PIN17*%
X153517600Y-111963200D02*
X154965400Y-113411000D01*
X154965400Y-113411000D02*
X154965400Y-114579400D01*
X147904200Y-111963200D02*
X153517600Y-111963200D01*
%TO.N,/PIN15*%
X155854400Y-108407200D02*
X149758400Y-108407200D01*
X149275800Y-107924600D02*
X149275800Y-106994700D01*
X164261800Y-120345200D02*
X164261800Y-116814600D01*
X164261800Y-116814600D02*
X155854400Y-108407200D01*
X149758400Y-108407200D02*
X149275800Y-107924600D01*
%TO.N,/SMBC*%
X146431596Y-109382184D02*
X147000180Y-108813600D01*
X156712223Y-110516321D02*
X156712223Y-110584360D01*
X147000180Y-108813600D02*
X155009502Y-108813600D01*
X155009502Y-108813600D02*
X156712223Y-110516321D01*
%TO.N,/SMBD*%
X147142200Y-109702600D02*
X155092400Y-109702600D01*
%TD*%
%TA.AperFunction,Conductor*%
%TO.N,/PACK-*%
G36*
X118028192Y-124924735D02*
G01*
X118042825Y-124930796D01*
X118089351Y-124970533D01*
X118096401Y-124984370D01*
X118102463Y-124999005D01*
X118110000Y-125036891D01*
X118110000Y-133890708D01*
X118102463Y-133928597D01*
X118096402Y-133943228D01*
X118056663Y-133989752D01*
X118042830Y-133996801D01*
X118035448Y-133999858D01*
X118028197Y-134002862D01*
X117990309Y-134010400D01*
X113098891Y-134010400D01*
X113061005Y-134002863D01*
X113046370Y-133996801D01*
X112999847Y-133957063D01*
X112992797Y-133943228D01*
X112986734Y-133928590D01*
X112979200Y-133890708D01*
X112979200Y-125036891D01*
X112986734Y-124999010D01*
X112992796Y-124984373D01*
X113032531Y-124937850D01*
X113046366Y-124930799D01*
X113061010Y-124924734D01*
X113098891Y-124917200D01*
X117990309Y-124917200D01*
X118028192Y-124924735D01*
G37*
%TD.AperFunction*%
%TD*%
%TA.AperFunction,Conductor*%
%TO.N,/BAT+*%
G36*
X109950992Y-100210535D02*
G01*
X109965625Y-100216596D01*
X110012151Y-100256333D01*
X110019201Y-100270170D01*
X110025263Y-100284805D01*
X110032800Y-100322691D01*
X110032800Y-116058178D01*
X110031284Y-116075438D01*
X110029778Y-116083944D01*
X110017944Y-116116334D01*
X110013612Y-116123807D01*
X110003650Y-116137972D01*
X107885334Y-118650394D01*
X107869774Y-118665228D01*
X107861455Y-118671588D01*
X107822700Y-118689604D01*
X107812474Y-118691865D01*
X107791101Y-118694200D01*
X100373338Y-118694200D01*
X100335482Y-118686676D01*
X100320853Y-118680622D01*
X100274314Y-118640901D01*
X100267287Y-118627134D01*
X100261210Y-118612504D01*
X100253635Y-118574666D01*
X100228565Y-100322844D01*
X100236060Y-100284923D01*
X100242110Y-100270274D01*
X100281796Y-100223710D01*
X100295691Y-100216618D01*
X100310334Y-100210547D01*
X100348247Y-100203000D01*
X109913109Y-100203000D01*
X109950992Y-100210535D01*
G37*
%TD.AperFunction*%
%TD*%
%TA.AperFunction,Conductor*%
%TO.N,GND*%
G36*
X168919399Y-100008035D02*
G01*
X168932825Y-100013596D01*
X168979350Y-100053333D01*
X168986401Y-100067170D01*
X168991963Y-100080598D01*
X168999500Y-100118484D01*
X168999500Y-145881515D01*
X168991963Y-145919404D01*
X168986402Y-145932828D01*
X168946663Y-145979352D01*
X168932829Y-145986401D01*
X168919403Y-145991962D01*
X168881516Y-145999500D01*
X127347084Y-145999500D01*
X127309198Y-145991963D01*
X127295770Y-145986401D01*
X127249247Y-145946663D01*
X127242197Y-145932828D01*
X127236134Y-145918190D01*
X127228600Y-145880308D01*
X127228600Y-141732002D01*
X132412553Y-141732002D01*
X132433034Y-141874456D01*
X132492822Y-142005371D01*
X132492823Y-142005373D01*
X132587072Y-142114143D01*
X132587073Y-142114144D01*
X132708142Y-142191950D01*
X132708147Y-142191953D01*
X132814603Y-142223211D01*
X132846235Y-142232499D01*
X132846236Y-142232499D01*
X132846239Y-142232500D01*
X132846241Y-142232500D01*
X132990159Y-142232500D01*
X132990161Y-142232500D01*
X133128253Y-142191953D01*
X133249328Y-142114143D01*
X133343577Y-142005373D01*
X133403365Y-141874457D01*
X133423847Y-141732000D01*
X133403365Y-141589543D01*
X133384627Y-141548513D01*
X133378985Y-141532753D01*
X133374450Y-141515646D01*
X133374449Y-141515642D01*
X133321195Y-141406923D01*
X133318724Y-141402193D01*
X133318701Y-141402151D01*
X133318682Y-141402116D01*
X133315888Y-141397093D01*
X133315860Y-141397042D01*
X133313195Y-141392524D01*
X133263294Y-141312659D01*
X133262384Y-141311140D01*
X133240072Y-141272251D01*
X133231522Y-141252745D01*
X133224563Y-141230658D01*
X133220288Y-141208604D01*
X133213919Y-141126829D01*
X133211893Y-141119048D01*
X133208700Y-141094112D01*
X133208700Y-126780336D01*
X133227607Y-126722146D01*
X133237696Y-126710333D01*
X134355733Y-125592296D01*
X134410250Y-125564519D01*
X134425737Y-125563300D01*
X145380375Y-125563300D01*
X145387223Y-125563775D01*
X145399569Y-125565497D01*
X145399570Y-125565498D01*
X145399570Y-125565497D01*
X145399571Y-125565498D01*
X145409543Y-125565036D01*
X145445968Y-125563352D01*
X145448247Y-125563300D01*
X145467316Y-125563300D01*
X145467318Y-125563300D01*
X145470577Y-125562690D01*
X145477387Y-125561899D01*
X145508062Y-125560482D01*
X145516399Y-125556800D01*
X145538196Y-125550049D01*
X145547158Y-125548375D01*
X145573269Y-125532206D01*
X145579325Y-125529015D01*
X145607416Y-125516613D01*
X145613860Y-125510168D01*
X145631744Y-125496001D01*
X145639499Y-125491201D01*
X145658005Y-125466692D01*
X145662502Y-125461526D01*
X147476530Y-123647498D01*
X149438777Y-121685250D01*
X149443951Y-121680750D01*
X149453895Y-121673241D01*
X149453898Y-121673240D01*
X149485224Y-121638875D01*
X149486757Y-121637270D01*
X149500249Y-121623780D01*
X149502124Y-121621041D01*
X149506371Y-121615677D01*
X149527066Y-121592978D01*
X149530360Y-121584473D01*
X149540999Y-121564289D01*
X149546150Y-121556771D01*
X149553180Y-121526877D01*
X149555202Y-121520348D01*
X149566300Y-121491704D01*
X149566300Y-121482588D01*
X149568930Y-121459920D01*
X149571017Y-121451048D01*
X149566775Y-121420635D01*
X149566300Y-121413789D01*
X149566300Y-116054985D01*
X149569995Y-116028189D01*
X149571520Y-116022767D01*
X149577889Y-115940989D01*
X149582166Y-115918930D01*
X149584936Y-115910141D01*
X149589121Y-115896858D01*
X149597673Y-115877345D01*
X149615358Y-115846520D01*
X149619974Y-115838472D01*
X149620909Y-115836914D01*
X149670800Y-115757064D01*
X149673464Y-115752548D01*
X149676328Y-115747397D01*
X149678800Y-115742666D01*
X149732703Y-115632620D01*
X149733974Y-115629928D01*
X149734878Y-115627937D01*
X149737107Y-115617716D01*
X149743779Y-115597687D01*
X149760965Y-115560057D01*
X149773598Y-115472192D01*
X149781447Y-115417602D01*
X149781447Y-115417597D01*
X149760965Y-115275143D01*
X149730455Y-115208336D01*
X149701177Y-115144227D01*
X149606928Y-115035457D01*
X149606927Y-115035456D01*
X149606926Y-115035455D01*
X149485857Y-114957649D01*
X149485854Y-114957647D01*
X149485853Y-114957647D01*
X149485850Y-114957646D01*
X149347764Y-114917100D01*
X149347761Y-114917100D01*
X149203839Y-114917100D01*
X149203835Y-114917100D01*
X149065749Y-114957646D01*
X149065742Y-114957649D01*
X148944673Y-115035455D01*
X148850422Y-115144228D01*
X148790634Y-115275143D01*
X148770153Y-115417597D01*
X148770153Y-115417602D01*
X148790633Y-115560054D01*
X148801555Y-115583969D01*
X148807818Y-115597682D01*
X148809371Y-115601081D01*
X148815014Y-115616847D01*
X148819546Y-115633948D01*
X148819547Y-115633951D01*
X148819548Y-115633953D01*
X148872825Y-115742723D01*
X148875347Y-115747544D01*
X148875365Y-115747576D01*
X148875367Y-115747580D01*
X148878174Y-115752618D01*
X148878226Y-115752708D01*
X148880798Y-115757064D01*
X148880824Y-115757107D01*
X148900536Y-115788657D01*
X148930686Y-115836914D01*
X148931641Y-115838508D01*
X148953923Y-115877343D01*
X148962478Y-115896861D01*
X148969432Y-115918932D01*
X148973709Y-115940994D01*
X148980079Y-116022764D01*
X148980080Y-116022766D01*
X148980080Y-116022769D01*
X148981531Y-116028344D01*
X148982106Y-116030549D01*
X148985300Y-116055493D01*
X148985300Y-121276062D01*
X148966393Y-121334253D01*
X148956304Y-121346066D01*
X145349067Y-124953304D01*
X145294550Y-124981081D01*
X145279063Y-124982300D01*
X134324425Y-124982300D01*
X134317577Y-124981825D01*
X134305228Y-124980101D01*
X134265048Y-124981959D01*
X134258831Y-124982247D01*
X134256553Y-124982300D01*
X134237479Y-124982300D01*
X134234214Y-124982910D01*
X134227401Y-124983700D01*
X134196741Y-124985117D01*
X134196736Y-124985118D01*
X134188395Y-124988801D01*
X134166607Y-124995548D01*
X134157645Y-124997223D01*
X134157639Y-124997226D01*
X134131540Y-125013384D01*
X134125473Y-125016583D01*
X134097383Y-125028986D01*
X134090932Y-125035437D01*
X134073058Y-125049595D01*
X134065303Y-125054397D01*
X134065299Y-125054400D01*
X134046799Y-125078897D01*
X134042295Y-125084074D01*
X132755227Y-126371141D01*
X132750052Y-126375645D01*
X132740100Y-126383160D01*
X132708801Y-126417493D01*
X132707225Y-126419144D01*
X132693757Y-126432612D01*
X132693745Y-126432628D01*
X132691870Y-126435364D01*
X132687617Y-126440731D01*
X132666935Y-126463419D01*
X132666932Y-126463424D01*
X132663636Y-126471931D01*
X132653005Y-126492101D01*
X132647851Y-126499625D01*
X132647849Y-126499629D01*
X132640819Y-126529517D01*
X132638789Y-126536070D01*
X132627700Y-126564695D01*
X132627700Y-126573810D01*
X132625070Y-126596478D01*
X132622983Y-126605350D01*
X132627225Y-126635761D01*
X132627700Y-126642607D01*
X132627700Y-141094611D01*
X132624004Y-141121408D01*
X132622481Y-141126821D01*
X132622480Y-141126831D01*
X132616109Y-141208602D01*
X132611832Y-141230661D01*
X132604878Y-141252733D01*
X132596324Y-141272253D01*
X132574046Y-141311080D01*
X132573091Y-141312674D01*
X132523194Y-141392537D01*
X132520553Y-141397014D01*
X132520523Y-141397066D01*
X132517714Y-141402115D01*
X132515209Y-141406908D01*
X132515189Y-141406948D01*
X132461262Y-141517044D01*
X132459920Y-141519892D01*
X132458994Y-141521938D01*
X132458992Y-141521942D01*
X132456792Y-141532067D01*
X132450105Y-141552163D01*
X132433035Y-141589542D01*
X132433033Y-141589547D01*
X132412553Y-141731997D01*
X132412553Y-141732002D01*
X127228600Y-141732002D01*
X127228600Y-127101600D01*
X127227170Y-125563353D01*
X127226356Y-124686907D01*
X127226355Y-124686906D01*
X127226262Y-124587000D01*
X127482600Y-124587000D01*
X127482600Y-123759900D01*
X143855631Y-123759900D01*
X143862479Y-123760375D01*
X143874825Y-123762097D01*
X143874826Y-123762098D01*
X143874826Y-123762097D01*
X143874827Y-123762098D01*
X143884799Y-123761636D01*
X143921224Y-123759952D01*
X143923503Y-123759900D01*
X143942572Y-123759900D01*
X143942574Y-123759900D01*
X143945833Y-123759290D01*
X143952643Y-123758499D01*
X143983318Y-123757082D01*
X143991655Y-123753400D01*
X144013452Y-123746649D01*
X144022414Y-123744975D01*
X144048525Y-123728806D01*
X144054581Y-123725615D01*
X144082672Y-123713213D01*
X144089116Y-123706768D01*
X144107000Y-123692601D01*
X144114755Y-123687801D01*
X144133261Y-123663292D01*
X144137758Y-123658126D01*
X145005980Y-122789904D01*
X147295127Y-120500756D01*
X147300301Y-120496256D01*
X147310245Y-120488747D01*
X147310248Y-120488746D01*
X147341574Y-120454381D01*
X147343107Y-120452776D01*
X147356598Y-120439287D01*
X147358473Y-120436548D01*
X147362720Y-120431184D01*
X147383416Y-120408484D01*
X147386710Y-120399980D01*
X147397348Y-120379797D01*
X147402500Y-120372278D01*
X147409529Y-120342389D01*
X147411558Y-120335839D01*
X147411878Y-120335013D01*
X147422650Y-120307210D01*
X147422650Y-120298096D01*
X147425280Y-120275427D01*
X147427367Y-120266555D01*
X147423125Y-120236145D01*
X147422650Y-120229299D01*
X147422650Y-117930718D01*
X147441557Y-117872527D01*
X147484199Y-117839075D01*
X147549340Y-117812458D01*
X147560522Y-117807079D01*
X147573796Y-117799678D01*
X147584211Y-117793020D01*
X147653154Y-117742866D01*
X147655488Y-117741270D01*
X147661093Y-117737668D01*
X147683228Y-117723443D01*
X147777477Y-117614673D01*
X147837265Y-117483757D01*
X147849644Y-117397657D01*
X147857747Y-117341302D01*
X147857747Y-117341297D01*
X147837265Y-117198843D01*
X147792137Y-117100028D01*
X147777477Y-117067927D01*
X147683228Y-116959157D01*
X147683227Y-116959156D01*
X147683226Y-116959155D01*
X147562157Y-116881349D01*
X147562154Y-116881347D01*
X147562153Y-116881347D01*
X147539267Y-116874627D01*
X147424064Y-116840800D01*
X147424061Y-116840800D01*
X147280139Y-116840800D01*
X147280135Y-116840800D01*
X147142049Y-116881346D01*
X147142042Y-116881349D01*
X147020972Y-116959156D01*
X146994111Y-116990156D01*
X146941715Y-117021751D01*
X146880754Y-117016515D01*
X146851397Y-116995183D01*
X146850781Y-116995895D01*
X146845427Y-116991256D01*
X146724357Y-116913449D01*
X146724354Y-116913447D01*
X146724353Y-116913447D01*
X146724350Y-116913446D01*
X146586264Y-116872900D01*
X146586261Y-116872900D01*
X146442339Y-116872900D01*
X146442335Y-116872900D01*
X146304249Y-116913446D01*
X146304242Y-116913449D01*
X146183173Y-116991255D01*
X146088922Y-117100028D01*
X146029134Y-117230943D01*
X146008653Y-117373397D01*
X146008653Y-117373402D01*
X146029134Y-117515856D01*
X146073401Y-117612785D01*
X146088923Y-117646773D01*
X146183172Y-117755543D01*
X146197935Y-117765031D01*
X146201521Y-117767569D01*
X146210107Y-117774239D01*
X146271331Y-117821803D01*
X146271338Y-117821808D01*
X146271342Y-117821811D01*
X146279109Y-117827289D01*
X146288956Y-117833573D01*
X146297220Y-117838323D01*
X146357949Y-117869573D01*
X146401039Y-117913009D01*
X146411650Y-117957601D01*
X146411650Y-119913456D01*
X146392743Y-119971647D01*
X146382654Y-119983460D01*
X143576211Y-122789904D01*
X143521694Y-122817681D01*
X143506207Y-122818900D01*
X127482600Y-122818900D01*
X127482600Y-121905700D01*
X131511975Y-121905700D01*
X131518823Y-121906175D01*
X131531169Y-121907897D01*
X131531170Y-121907898D01*
X131531170Y-121907897D01*
X131531171Y-121907898D01*
X131541143Y-121907436D01*
X131577568Y-121905752D01*
X131579847Y-121905700D01*
X131598916Y-121905700D01*
X131598918Y-121905700D01*
X131602177Y-121905090D01*
X131608987Y-121904299D01*
X131639662Y-121902882D01*
X131647999Y-121899200D01*
X131669796Y-121892449D01*
X131678758Y-121890775D01*
X131704869Y-121874606D01*
X131710925Y-121871415D01*
X131739016Y-121859013D01*
X131745460Y-121852568D01*
X131763344Y-121838401D01*
X131771099Y-121833601D01*
X131789605Y-121809092D01*
X131794102Y-121803926D01*
X132674934Y-120923094D01*
X133585143Y-120012884D01*
X133639658Y-119985109D01*
X133700090Y-119994680D01*
X133743355Y-120037945D01*
X133745198Y-120041763D01*
X133780385Y-120118810D01*
X133788223Y-120135973D01*
X133850392Y-120207720D01*
X133882473Y-120244744D01*
X134003542Y-120322550D01*
X134003547Y-120322553D01*
X134110003Y-120353811D01*
X134141635Y-120363099D01*
X134141636Y-120363099D01*
X134141639Y-120363100D01*
X134141641Y-120363100D01*
X134285559Y-120363100D01*
X134285561Y-120363100D01*
X134423653Y-120322553D01*
X134425277Y-120321508D01*
X134430248Y-120318705D01*
X134538666Y-120265600D01*
X134540835Y-120264466D01*
X134543352Y-120263152D01*
X134543373Y-120263140D01*
X134543397Y-120263128D01*
X134548548Y-120260264D01*
X134553064Y-120257600D01*
X134632937Y-120207694D01*
X134634472Y-120206774D01*
X134657585Y-120193514D01*
X134673345Y-120184473D01*
X134692858Y-120175921D01*
X134698091Y-120174271D01*
X134714933Y-120168965D01*
X134736990Y-120164688D01*
X134818769Y-120158319D01*
X134826551Y-120156292D01*
X134851493Y-120153100D01*
X136261775Y-120153100D01*
X136268623Y-120153575D01*
X136280969Y-120155297D01*
X136280970Y-120155298D01*
X136280970Y-120155297D01*
X136280971Y-120155298D01*
X136290943Y-120154836D01*
X136327368Y-120153152D01*
X136329647Y-120153100D01*
X136348716Y-120153100D01*
X136348718Y-120153100D01*
X136351977Y-120152490D01*
X136358787Y-120151699D01*
X136389462Y-120150282D01*
X136397799Y-120146600D01*
X136419596Y-120139849D01*
X136428558Y-120138175D01*
X136454669Y-120122006D01*
X136460725Y-120118815D01*
X136488816Y-120106413D01*
X136495260Y-120099968D01*
X136513144Y-120085801D01*
X136520899Y-120081001D01*
X136539405Y-120056492D01*
X136543902Y-120051326D01*
X138524928Y-118070300D01*
X140523377Y-116071850D01*
X140528551Y-116067350D01*
X140538495Y-116059841D01*
X140538498Y-116059840D01*
X140569824Y-116025475D01*
X140571357Y-116023870D01*
X140584848Y-116010381D01*
X140586723Y-116007642D01*
X140590970Y-116002278D01*
X140611666Y-115979578D01*
X140614958Y-115971080D01*
X140625602Y-115950886D01*
X140630750Y-115943372D01*
X140637781Y-115913476D01*
X140639803Y-115906947D01*
X140650900Y-115878304D01*
X140650900Y-115869188D01*
X140653530Y-115846520D01*
X140655617Y-115837648D01*
X140651375Y-115807235D01*
X140650900Y-115800389D01*
X140650900Y-106993737D01*
X140669807Y-106935546D01*
X140679896Y-106923734D01*
X140731839Y-106871790D01*
X140786355Y-106844012D01*
X140846787Y-106853583D01*
X140890052Y-106896847D01*
X140899836Y-106955879D01*
X140896153Y-106981499D01*
X140896153Y-106981502D01*
X140916634Y-107123956D01*
X140927497Y-107147742D01*
X140935150Y-107172915D01*
X140936126Y-107178894D01*
X140936128Y-107178903D01*
X140982498Y-107302775D01*
X140983153Y-107304638D01*
X140989741Y-107324644D01*
X141015921Y-107404148D01*
X141017240Y-107407907D01*
X141018712Y-107411852D01*
X141018724Y-107411883D01*
X141020077Y-107415319D01*
X141038912Y-107460758D01*
X141057465Y-107505517D01*
X141061472Y-107514051D01*
X141061493Y-107514094D01*
X141066879Y-107524319D01*
X141066908Y-107524372D01*
X141071674Y-107532486D01*
X141071688Y-107532509D01*
X141071701Y-107532531D01*
X141071709Y-107532543D01*
X141071718Y-107532558D01*
X141132240Y-107625497D01*
X141132242Y-107625500D01*
X141136938Y-107632122D01*
X141136957Y-107632148D01*
X141143008Y-107640004D01*
X141143035Y-107640038D01*
X141143037Y-107640040D01*
X141148261Y-107646293D01*
X141148275Y-107646308D01*
X141149305Y-107647541D01*
X141152158Y-107651308D01*
X141157985Y-107659815D01*
X141164433Y-107666263D01*
X141178596Y-107684142D01*
X141183400Y-107691900D01*
X141195343Y-107700919D01*
X141209081Y-107713487D01*
X141241149Y-107748915D01*
X141242926Y-107750829D01*
X141244228Y-107752196D01*
X141244229Y-107752197D01*
X141244230Y-107752198D01*
X141256234Y-107760432D01*
X141270238Y-107772067D01*
X145014739Y-111516569D01*
X145019244Y-111521746D01*
X145026759Y-111531696D01*
X145026760Y-111531698D01*
X145061082Y-111562986D01*
X145062736Y-111564566D01*
X145076217Y-111578046D01*
X145076220Y-111578049D01*
X145078955Y-111579922D01*
X145084325Y-111584175D01*
X145107022Y-111604866D01*
X145115525Y-111608160D01*
X145135707Y-111618798D01*
X145143228Y-111623949D01*
X145143229Y-111623950D01*
X145173117Y-111630979D01*
X145179654Y-111633003D01*
X145208296Y-111644100D01*
X145217411Y-111644100D01*
X145240078Y-111646729D01*
X145248952Y-111648817D01*
X145273247Y-111645427D01*
X145279363Y-111644575D01*
X145286209Y-111644100D01*
X147345658Y-111644100D01*
X147403849Y-111663007D01*
X147439813Y-111712507D01*
X147439813Y-111773693D01*
X147435711Y-111784226D01*
X147419034Y-111820741D01*
X147419034Y-111820743D01*
X147398553Y-111963197D01*
X147398553Y-111963202D01*
X147419034Y-112105656D01*
X147478822Y-112236571D01*
X147478823Y-112236573D01*
X147540992Y-112308320D01*
X147573073Y-112345344D01*
X147694142Y-112423150D01*
X147694147Y-112423153D01*
X147800603Y-112454411D01*
X147832235Y-112463699D01*
X147832236Y-112463699D01*
X147832239Y-112463700D01*
X147832241Y-112463700D01*
X147976159Y-112463700D01*
X147976161Y-112463700D01*
X148114253Y-112423153D01*
X148115877Y-112422108D01*
X148120848Y-112419305D01*
X148229266Y-112366200D01*
X148231435Y-112365066D01*
X148233952Y-112363752D01*
X148233973Y-112363740D01*
X148233997Y-112363728D01*
X148239148Y-112360864D01*
X148243664Y-112358200D01*
X148323537Y-112308294D01*
X148325072Y-112307374D01*
X148348185Y-112294114D01*
X148363945Y-112285073D01*
X148383458Y-112276521D01*
X148388691Y-112274871D01*
X148405533Y-112269565D01*
X148427590Y-112265288D01*
X148509369Y-112258919D01*
X148517151Y-112256892D01*
X148542093Y-112253700D01*
X153356263Y-112253700D01*
X153414454Y-112272607D01*
X153426267Y-112282696D01*
X154645904Y-113502333D01*
X154673681Y-113556850D01*
X154674900Y-113572337D01*
X154674900Y-113942011D01*
X154671204Y-113968808D01*
X154669681Y-113974221D01*
X154669680Y-113974231D01*
X154663309Y-114056002D01*
X154659032Y-114078061D01*
X154652078Y-114100133D01*
X154643524Y-114119653D01*
X154621246Y-114158480D01*
X154620291Y-114160074D01*
X154570394Y-114239937D01*
X154567753Y-114244414D01*
X154567723Y-114244466D01*
X154564914Y-114249515D01*
X154562409Y-114254308D01*
X154562389Y-114254348D01*
X154508462Y-114364444D01*
X154507120Y-114367292D01*
X154506194Y-114369338D01*
X154506192Y-114369342D01*
X154503992Y-114379467D01*
X154497305Y-114399563D01*
X154480235Y-114436942D01*
X154480233Y-114436947D01*
X154459753Y-114579397D01*
X154459753Y-114579402D01*
X154480234Y-114721856D01*
X154540022Y-114852771D01*
X154540023Y-114852773D01*
X154615209Y-114939543D01*
X154634273Y-114961544D01*
X154755342Y-115039350D01*
X154755347Y-115039353D01*
X154861803Y-115070611D01*
X154893435Y-115079899D01*
X154893436Y-115079899D01*
X154893439Y-115079900D01*
X154893441Y-115079900D01*
X155037359Y-115079900D01*
X155037361Y-115079900D01*
X155175453Y-115039353D01*
X155296528Y-114961543D01*
X155390777Y-114852773D01*
X155450565Y-114721857D01*
X155471047Y-114579400D01*
X155450565Y-114436943D01*
X155433494Y-114399563D01*
X155431827Y-114395913D01*
X155426185Y-114380153D01*
X155421650Y-114363046D01*
X155421649Y-114363042D01*
X155368395Y-114254323D01*
X155365924Y-114249593D01*
X155365901Y-114249551D01*
X155365882Y-114249516D01*
X155363088Y-114244493D01*
X155363060Y-114244442D01*
X155360395Y-114239924D01*
X155310494Y-114160059D01*
X155309584Y-114158540D01*
X155287272Y-114119651D01*
X155278722Y-114100145D01*
X155271763Y-114078058D01*
X155267488Y-114056004D01*
X155261119Y-113974229D01*
X155259093Y-113966445D01*
X155255900Y-113941505D01*
X155255900Y-113471026D01*
X155256375Y-113464179D01*
X155258096Y-113451834D01*
X155258098Y-113451829D01*
X155256467Y-113416569D01*
X155272665Y-113357570D01*
X155320450Y-113319358D01*
X155381570Y-113316530D01*
X155425365Y-113341993D01*
X161122905Y-119039534D01*
X161150681Y-119094049D01*
X161151900Y-119109536D01*
X161151900Y-127251611D01*
X161148204Y-127278408D01*
X161146681Y-127283821D01*
X161146680Y-127283831D01*
X161140309Y-127365602D01*
X161136032Y-127387661D01*
X161129078Y-127409733D01*
X161120524Y-127429253D01*
X161098246Y-127468080D01*
X161097291Y-127469674D01*
X161047394Y-127549537D01*
X161044753Y-127554014D01*
X161044723Y-127554066D01*
X161041914Y-127559115D01*
X161039409Y-127563908D01*
X161039389Y-127563948D01*
X160985462Y-127674044D01*
X160984120Y-127676892D01*
X160983194Y-127678938D01*
X160983192Y-127678942D01*
X160980992Y-127689067D01*
X160974305Y-127709163D01*
X160957235Y-127746542D01*
X160957233Y-127746547D01*
X160936753Y-127888997D01*
X160936753Y-127889002D01*
X160957234Y-128031456D01*
X160996300Y-128116996D01*
X161017023Y-128162373D01*
X161111272Y-128271143D01*
X161111273Y-128271144D01*
X161232342Y-128348950D01*
X161232347Y-128348953D01*
X161333177Y-128378559D01*
X161370435Y-128389499D01*
X161370436Y-128389499D01*
X161370439Y-128389500D01*
X161370441Y-128389500D01*
X161514359Y-128389500D01*
X161514361Y-128389500D01*
X161652453Y-128348953D01*
X161735979Y-128295274D01*
X161795151Y-128279720D01*
X161852168Y-128301919D01*
X161885247Y-128353391D01*
X161888500Y-128378559D01*
X161888500Y-129842411D01*
X161884804Y-129869208D01*
X161883281Y-129874621D01*
X161883280Y-129874631D01*
X161876909Y-129956402D01*
X161872632Y-129978461D01*
X161865678Y-130000533D01*
X161857124Y-130020053D01*
X161834846Y-130058880D01*
X161833891Y-130060474D01*
X161783994Y-130140337D01*
X161781353Y-130144814D01*
X161781323Y-130144866D01*
X161778514Y-130149915D01*
X161776009Y-130154708D01*
X161775989Y-130154748D01*
X161722062Y-130264844D01*
X161720720Y-130267692D01*
X161719794Y-130269738D01*
X161719792Y-130269742D01*
X161717592Y-130279867D01*
X161710905Y-130299963D01*
X161693835Y-130337342D01*
X161693833Y-130337347D01*
X161673353Y-130479797D01*
X161673353Y-130479802D01*
X161693834Y-130622256D01*
X161753622Y-130753171D01*
X161753623Y-130753173D01*
X161846420Y-130860267D01*
X161847873Y-130861944D01*
X161968942Y-130939750D01*
X161968947Y-130939753D01*
X162075403Y-130971011D01*
X162107035Y-130980299D01*
X162107036Y-130980299D01*
X162107039Y-130980300D01*
X162107041Y-130980300D01*
X162250959Y-130980300D01*
X162250961Y-130980300D01*
X162389053Y-130939753D01*
X162510128Y-130861943D01*
X162510137Y-130861931D01*
X162512060Y-130860267D01*
X162514036Y-130859431D01*
X162516085Y-130858115D01*
X162516312Y-130858469D01*
X162568417Y-130836444D01*
X162628014Y-130850296D01*
X162668086Y-130896533D01*
X162675899Y-130935080D01*
X162675899Y-132020262D01*
X162656992Y-132078453D01*
X162646903Y-132090266D01*
X162246485Y-132490684D01*
X162224925Y-132507017D01*
X162220027Y-132509765D01*
X162220015Y-132509773D01*
X162157678Y-132563097D01*
X162139057Y-132575670D01*
X162118540Y-132586356D01*
X162098690Y-132594109D01*
X162055468Y-132605816D01*
X162053664Y-132606268D01*
X161961982Y-132627439D01*
X161956956Y-132628734D01*
X161951258Y-132630356D01*
X161946167Y-132631952D01*
X161946113Y-132631970D01*
X161830003Y-132671729D01*
X161827018Y-132672805D01*
X161824842Y-132673628D01*
X161820181Y-132675976D01*
X161819903Y-132675424D01*
X161801658Y-132683759D01*
X161791154Y-132686843D01*
X161791142Y-132686849D01*
X161670073Y-132764655D01*
X161575822Y-132873428D01*
X161516034Y-133004343D01*
X161495553Y-133146797D01*
X161495553Y-133146802D01*
X161516034Y-133289256D01*
X161571605Y-133410937D01*
X161575823Y-133420173D01*
X161663239Y-133521057D01*
X161670073Y-133528944D01*
X161777482Y-133597971D01*
X161791147Y-133606753D01*
X161897603Y-133638011D01*
X161929235Y-133647299D01*
X161929236Y-133647299D01*
X161929239Y-133647300D01*
X161929241Y-133647300D01*
X162073159Y-133647300D01*
X162073161Y-133647300D01*
X162211253Y-133606753D01*
X162332328Y-133528943D01*
X162426577Y-133420173D01*
X162462483Y-133341545D01*
X162464689Y-133337281D01*
X162472055Y-133324602D01*
X165407153Y-133324602D01*
X165427634Y-133467056D01*
X165455898Y-133528944D01*
X165487423Y-133597973D01*
X165530164Y-133647299D01*
X165581673Y-133706744D01*
X165702742Y-133784550D01*
X165702747Y-133784553D01*
X165809203Y-133815811D01*
X165840835Y-133825099D01*
X165840836Y-133825099D01*
X165840839Y-133825100D01*
X165840841Y-133825100D01*
X165984759Y-133825100D01*
X165984761Y-133825100D01*
X166122853Y-133784553D01*
X166243928Y-133706743D01*
X166338177Y-133597973D01*
X166360523Y-133549039D01*
X166372199Y-133529687D01*
X166378860Y-133521057D01*
X166433554Y-133410929D01*
X166436367Y-133405998D01*
X166488919Y-133325074D01*
X166490680Y-133322275D01*
X166542420Y-133237023D01*
X166547762Y-133227013D01*
X166553645Y-133214357D01*
X166557869Y-133203769D01*
X166593532Y-133097637D01*
X166596763Y-133085681D01*
X166599837Y-133070797D01*
X166601607Y-133058540D01*
X166607830Y-132983887D01*
X166608503Y-132978904D01*
X166609700Y-132972504D01*
X166609700Y-132963527D01*
X166609870Y-132959427D01*
X166609934Y-132958650D01*
X166610323Y-132953975D01*
X166612612Y-132939517D01*
X166614417Y-132931849D01*
X166614353Y-132931390D01*
X166613487Y-132913633D01*
X166613510Y-132913086D01*
X166611223Y-132900212D01*
X166609700Y-132882924D01*
X166609700Y-129974185D01*
X166613395Y-129947389D01*
X166614920Y-129941967D01*
X166621289Y-129860189D01*
X166625566Y-129838130D01*
X166632521Y-129816058D01*
X166641073Y-129796545D01*
X166650114Y-129780785D01*
X166663374Y-129757672D01*
X166664309Y-129756114D01*
X166714200Y-129676264D01*
X166716864Y-129671748D01*
X166719728Y-129666597D01*
X166722200Y-129661866D01*
X166776103Y-129551820D01*
X166777374Y-129549128D01*
X166778278Y-129547137D01*
X166780507Y-129536916D01*
X166787179Y-129516887D01*
X166804365Y-129479257D01*
X166824847Y-129336800D01*
X166804365Y-129194343D01*
X166744577Y-129063427D01*
X166650328Y-128954657D01*
X166650327Y-128954656D01*
X166650326Y-128954655D01*
X166529257Y-128876849D01*
X166529254Y-128876847D01*
X166529253Y-128876847D01*
X166529250Y-128876846D01*
X166391164Y-128836300D01*
X166391161Y-128836300D01*
X166247239Y-128836300D01*
X166247235Y-128836300D01*
X166109149Y-128876846D01*
X166109142Y-128876849D01*
X165988073Y-128954655D01*
X165893822Y-129063428D01*
X165834034Y-129194343D01*
X165813553Y-129336797D01*
X165813553Y-129336802D01*
X165834033Y-129479254D01*
X165844955Y-129503169D01*
X165851218Y-129516882D01*
X165852771Y-129520281D01*
X165858414Y-129536047D01*
X165862946Y-129553148D01*
X165862947Y-129553151D01*
X165862948Y-129553153D01*
X165916225Y-129661923D01*
X165918747Y-129666744D01*
X165918765Y-129666776D01*
X165918767Y-129666780D01*
X165921574Y-129671818D01*
X165921626Y-129671908D01*
X165924212Y-129676287D01*
X165974086Y-129756114D01*
X165975041Y-129757708D01*
X165997323Y-129796543D01*
X166005878Y-129816061D01*
X166012832Y-129838132D01*
X166017109Y-129860194D01*
X166023479Y-129941964D01*
X166025506Y-129949749D01*
X166028700Y-129974693D01*
X166028700Y-132715244D01*
X166009793Y-132773435D01*
X165960293Y-132809399D01*
X165928481Y-132814236D01*
X165922117Y-132814157D01*
X165922076Y-132814158D01*
X165910386Y-132814682D01*
X165910319Y-132814687D01*
X165896023Y-132816151D01*
X165896002Y-132816153D01*
X165888642Y-132817335D01*
X165884382Y-132818020D01*
X165884375Y-132818021D01*
X165884372Y-132818022D01*
X165867247Y-132821789D01*
X165845980Y-132824100D01*
X165840839Y-132824100D01*
X165840837Y-132824100D01*
X165840833Y-132824101D01*
X165794988Y-132837562D01*
X165791678Y-132838411D01*
X165772791Y-132842565D01*
X165763039Y-132844711D01*
X165763036Y-132844711D01*
X165763035Y-132844712D01*
X165754302Y-132847040D01*
X165754272Y-132847048D01*
X165748048Y-132849005D01*
X165742039Y-132850997D01*
X165737020Y-132853359D01*
X165722770Y-132858766D01*
X165713855Y-132861385D01*
X165702746Y-132864647D01*
X165702742Y-132864649D01*
X165581673Y-132942455D01*
X165487422Y-133051228D01*
X165427634Y-133182143D01*
X165407153Y-133324597D01*
X165407153Y-133324602D01*
X162472055Y-133324602D01*
X162476804Y-133316428D01*
X162484545Y-133293818D01*
X162486352Y-133289284D01*
X162486365Y-133289257D01*
X162486365Y-133289252D01*
X162486368Y-133289247D01*
X162487603Y-133285039D01*
X162488259Y-133282971D01*
X162516019Y-133201910D01*
X162517607Y-133196850D01*
X162519224Y-133191189D01*
X162520543Y-133186080D01*
X162541740Y-133094283D01*
X162542170Y-133092567D01*
X162553886Y-133049306D01*
X162561636Y-133029463D01*
X162572333Y-133008926D01*
X162584901Y-132990314D01*
X162638222Y-132927987D01*
X162642287Y-132921060D01*
X162657663Y-132901164D01*
X163129377Y-132429450D01*
X163134551Y-132424950D01*
X163144495Y-132417441D01*
X163144498Y-132417440D01*
X163175824Y-132383075D01*
X163177357Y-132381470D01*
X163190848Y-132367981D01*
X163192723Y-132365242D01*
X163196970Y-132359878D01*
X163217666Y-132337178D01*
X163220960Y-132328674D01*
X163231598Y-132308491D01*
X163236750Y-132300972D01*
X163243779Y-132271083D01*
X163245808Y-132264533D01*
X163256900Y-132235904D01*
X163256900Y-132226790D01*
X163259530Y-132204121D01*
X163261617Y-132195249D01*
X163257375Y-132164836D01*
X163256900Y-132157990D01*
X163256900Y-117839827D01*
X163257375Y-117832980D01*
X163259098Y-117820627D01*
X163258129Y-117799671D01*
X163256952Y-117774231D01*
X163256900Y-117771953D01*
X163256900Y-117752886D01*
X163256900Y-117752882D01*
X163256289Y-117749618D01*
X163255499Y-117742815D01*
X163254082Y-117712138D01*
X163250397Y-117703792D01*
X163243649Y-117682000D01*
X163241975Y-117673042D01*
X163225806Y-117646928D01*
X163222618Y-117640880D01*
X163210213Y-117612784D01*
X163203761Y-117606332D01*
X163189601Y-117588454D01*
X163184801Y-117580701D01*
X163160302Y-117562200D01*
X163155127Y-117557697D01*
X156823402Y-111225973D01*
X156795625Y-111171456D01*
X156805196Y-111111024D01*
X156848461Y-111067759D01*
X156865511Y-111060980D01*
X156922276Y-111044313D01*
X157043351Y-110966503D01*
X157137600Y-110857733D01*
X157197388Y-110726817D01*
X157209133Y-110645129D01*
X157217870Y-110584362D01*
X157217870Y-110584357D01*
X157197389Y-110441905D01*
X157190052Y-110425840D01*
X157189235Y-110424052D01*
X157182260Y-110363268D01*
X157212346Y-110309990D01*
X157268002Y-110284572D01*
X157327969Y-110296721D01*
X157349293Y-110312922D01*
X163942304Y-116905932D01*
X163970081Y-116960449D01*
X163971300Y-116975936D01*
X163971300Y-119707811D01*
X163967604Y-119734608D01*
X163966081Y-119740021D01*
X163966080Y-119740031D01*
X163959709Y-119821802D01*
X163955432Y-119843861D01*
X163948478Y-119865933D01*
X163939924Y-119885453D01*
X163917646Y-119924280D01*
X163916691Y-119925874D01*
X163866794Y-120005737D01*
X163864153Y-120010214D01*
X163864123Y-120010266D01*
X163861314Y-120015315D01*
X163858809Y-120020108D01*
X163858789Y-120020148D01*
X163804862Y-120130244D01*
X163803520Y-120133092D01*
X163802594Y-120135138D01*
X163802592Y-120135142D01*
X163800392Y-120145267D01*
X163793705Y-120165363D01*
X163776635Y-120202742D01*
X163776633Y-120202747D01*
X163756153Y-120345197D01*
X163756153Y-120345202D01*
X163776634Y-120487656D01*
X163777132Y-120488746D01*
X163836423Y-120618573D01*
X163930672Y-120727343D01*
X163930673Y-120727344D01*
X164013599Y-120780637D01*
X164051747Y-120805153D01*
X164158203Y-120836411D01*
X164189835Y-120845699D01*
X164189836Y-120845699D01*
X164189839Y-120845700D01*
X164189841Y-120845700D01*
X164333759Y-120845700D01*
X164333761Y-120845700D01*
X164471853Y-120805153D01*
X164592928Y-120727343D01*
X164687177Y-120618573D01*
X164746965Y-120487657D01*
X164759785Y-120398494D01*
X164767447Y-120345202D01*
X164767447Y-120345197D01*
X164750783Y-120229299D01*
X164746965Y-120202743D01*
X164729894Y-120165363D01*
X164728227Y-120161713D01*
X164722585Y-120145953D01*
X164718050Y-120128846D01*
X164718049Y-120128842D01*
X164664795Y-120020123D01*
X164662324Y-120015393D01*
X164662301Y-120015351D01*
X164662282Y-120015316D01*
X164659488Y-120010293D01*
X164659460Y-120010242D01*
X164656795Y-120005724D01*
X164606894Y-119925859D01*
X164605984Y-119924340D01*
X164583672Y-119885451D01*
X164575122Y-119865945D01*
X164568163Y-119843858D01*
X164563888Y-119821804D01*
X164557519Y-119740029D01*
X164555493Y-119732245D01*
X164552300Y-119707305D01*
X164552300Y-116874627D01*
X164552775Y-116867780D01*
X164554498Y-116855427D01*
X164552353Y-116809039D01*
X164552300Y-116806753D01*
X164552300Y-116787686D01*
X164552300Y-116787682D01*
X164551689Y-116784418D01*
X164550899Y-116777615D01*
X164549482Y-116746938D01*
X164545797Y-116738592D01*
X164539049Y-116716800D01*
X164537375Y-116707842D01*
X164521206Y-116681728D01*
X164518018Y-116675680D01*
X164505613Y-116647584D01*
X164499161Y-116641132D01*
X164485001Y-116623254D01*
X164480201Y-116615501D01*
X164455702Y-116597000D01*
X164450527Y-116592497D01*
X156102255Y-108244225D01*
X156097748Y-108239046D01*
X156090239Y-108229101D01*
X156055916Y-108197811D01*
X156054263Y-108196233D01*
X156040781Y-108182752D01*
X156038050Y-108180881D01*
X156032669Y-108176619D01*
X156009978Y-108155934D01*
X156001470Y-108152638D01*
X155981290Y-108142000D01*
X155973774Y-108136851D01*
X155973770Y-108136849D01*
X155943884Y-108129819D01*
X155937331Y-108127789D01*
X155908709Y-108116701D01*
X155908705Y-108116700D01*
X155908704Y-108116700D01*
X155908702Y-108116700D01*
X155899590Y-108116700D01*
X155876922Y-108114070D01*
X155868049Y-108111983D01*
X155837638Y-108116225D01*
X155830792Y-108116700D01*
X149919737Y-108116700D01*
X149861546Y-108097793D01*
X149849733Y-108087704D01*
X149595296Y-107833267D01*
X149567519Y-107778750D01*
X149566300Y-107763263D01*
X149566300Y-107632085D01*
X149569995Y-107605289D01*
X149571520Y-107599867D01*
X149577889Y-107518089D01*
X149582166Y-107496030D01*
X149589121Y-107473958D01*
X149597673Y-107454445D01*
X149614043Y-107425912D01*
X149619974Y-107415572D01*
X149620909Y-107414014D01*
X149670800Y-107334164D01*
X149673464Y-107329648D01*
X149675916Y-107325239D01*
X149676332Y-107324490D01*
X149676354Y-107324447D01*
X149678800Y-107319766D01*
X149732703Y-107209720D01*
X149733974Y-107207028D01*
X149734878Y-107205037D01*
X149737107Y-107194816D01*
X149743779Y-107174787D01*
X149760965Y-107137157D01*
X149777186Y-107024334D01*
X149779549Y-107007900D01*
X150344953Y-107007900D01*
X150365434Y-107150356D01*
X150407594Y-107242671D01*
X150425223Y-107281273D01*
X150515479Y-107385435D01*
X150519473Y-107390044D01*
X150640542Y-107467850D01*
X150640547Y-107467853D01*
X150728299Y-107493619D01*
X150778635Y-107508399D01*
X150778636Y-107508399D01*
X150778639Y-107508400D01*
X150778641Y-107508400D01*
X150922559Y-107508400D01*
X150922561Y-107508400D01*
X151060653Y-107467853D01*
X151181728Y-107390043D01*
X151275977Y-107281273D01*
X151335765Y-107150357D01*
X151356247Y-107007900D01*
X151919753Y-107007900D01*
X151940234Y-107150356D01*
X151982394Y-107242671D01*
X152000023Y-107281273D01*
X152090279Y-107385435D01*
X152094273Y-107390044D01*
X152215342Y-107467850D01*
X152215347Y-107467853D01*
X152303099Y-107493619D01*
X152353435Y-107508399D01*
X152353436Y-107508399D01*
X152353439Y-107508400D01*
X152353441Y-107508400D01*
X152497359Y-107508400D01*
X152497361Y-107508400D01*
X152635453Y-107467853D01*
X152756528Y-107390043D01*
X152850777Y-107281273D01*
X152910565Y-107150357D01*
X152931047Y-107007900D01*
X152929149Y-106994702D01*
X152910565Y-106865443D01*
X152874837Y-106787210D01*
X152850777Y-106734527D01*
X152756528Y-106625757D01*
X152756527Y-106625756D01*
X152756526Y-106625755D01*
X152635457Y-106547949D01*
X152635454Y-106547947D01*
X152635453Y-106547947D01*
X152635450Y-106547946D01*
X152497364Y-106507400D01*
X152497361Y-106507400D01*
X152353439Y-106507400D01*
X152353435Y-106507400D01*
X152215349Y-106547946D01*
X152215342Y-106547949D01*
X152094273Y-106625755D01*
X152000022Y-106734528D01*
X151940234Y-106865443D01*
X151919753Y-107007897D01*
X151919753Y-107007900D01*
X151356247Y-107007900D01*
X151354349Y-106994702D01*
X151335765Y-106865443D01*
X151300037Y-106787210D01*
X151275977Y-106734527D01*
X151181728Y-106625757D01*
X151181727Y-106625756D01*
X151181726Y-106625755D01*
X151060657Y-106547949D01*
X151060654Y-106547947D01*
X151060653Y-106547947D01*
X151060650Y-106547946D01*
X150922564Y-106507400D01*
X150922561Y-106507400D01*
X150778639Y-106507400D01*
X150778635Y-106507400D01*
X150640549Y-106547946D01*
X150640542Y-106547949D01*
X150519473Y-106625755D01*
X150425222Y-106734528D01*
X150365434Y-106865443D01*
X150344953Y-107007897D01*
X150344953Y-107007900D01*
X149779549Y-107007900D01*
X149781447Y-106994702D01*
X149781447Y-106994697D01*
X149760965Y-106852243D01*
X149746883Y-106821408D01*
X149701177Y-106721327D01*
X149606928Y-106612557D01*
X149606927Y-106612556D01*
X149606926Y-106612555D01*
X149485857Y-106534749D01*
X149485854Y-106534747D01*
X149485853Y-106534747D01*
X149485850Y-106534746D01*
X149347764Y-106494200D01*
X149347761Y-106494200D01*
X149203839Y-106494200D01*
X149203835Y-106494200D01*
X149065749Y-106534746D01*
X149065742Y-106534749D01*
X148944673Y-106612555D01*
X148850422Y-106721328D01*
X148790634Y-106852243D01*
X148770153Y-106994697D01*
X148770153Y-106994702D01*
X148790633Y-107137154D01*
X148794424Y-107145454D01*
X148807818Y-107174782D01*
X148809371Y-107178181D01*
X148815014Y-107193947D01*
X148819546Y-107211048D01*
X148819547Y-107211051D01*
X148819548Y-107211053D01*
X148872825Y-107319823D01*
X148872832Y-107319836D01*
X148872833Y-107319839D01*
X148873422Y-107320964D01*
X148875347Y-107324644D01*
X148875365Y-107324676D01*
X148875367Y-107324680D01*
X148878174Y-107329718D01*
X148878226Y-107329808D01*
X148880798Y-107334164D01*
X148880824Y-107334207D01*
X148899215Y-107363643D01*
X148930686Y-107414014D01*
X148931631Y-107415591D01*
X148946468Y-107441450D01*
X148953923Y-107454443D01*
X148962478Y-107473961D01*
X148969432Y-107496032D01*
X148973709Y-107518094D01*
X148980079Y-107599864D01*
X148980080Y-107599866D01*
X148980080Y-107599869D01*
X148981863Y-107606719D01*
X148982106Y-107607649D01*
X148985300Y-107632593D01*
X148985300Y-107864575D01*
X148984825Y-107871423D01*
X148983101Y-107883771D01*
X148985247Y-107930159D01*
X148985300Y-107932445D01*
X148985300Y-107951517D01*
X148985909Y-107954776D01*
X148986700Y-107961593D01*
X148988117Y-107992257D01*
X148988117Y-107992259D01*
X148988117Y-107992261D01*
X148988118Y-107992262D01*
X148991802Y-108000607D01*
X148998548Y-108022392D01*
X149000224Y-108031355D01*
X149000224Y-108031357D01*
X149016386Y-108057460D01*
X149019585Y-108063530D01*
X149031985Y-108091614D01*
X149031987Y-108091617D01*
X149038433Y-108098063D01*
X149052596Y-108115942D01*
X149057399Y-108123699D01*
X149081898Y-108142199D01*
X149087072Y-108146701D01*
X149294467Y-108354096D01*
X149322244Y-108408613D01*
X149312673Y-108469045D01*
X149269408Y-108512310D01*
X149224463Y-108523100D01*
X147060205Y-108523100D01*
X147053357Y-108522625D01*
X147041008Y-108520901D01*
X147000828Y-108522759D01*
X146994611Y-108523047D01*
X146992333Y-108523100D01*
X146973259Y-108523100D01*
X146969994Y-108523710D01*
X146963181Y-108524500D01*
X146932521Y-108525917D01*
X146932516Y-108525918D01*
X146924175Y-108529601D01*
X146902387Y-108536348D01*
X146893425Y-108538023D01*
X146893419Y-108538026D01*
X146867320Y-108554184D01*
X146861253Y-108557383D01*
X146833163Y-108569786D01*
X146826712Y-108576237D01*
X146808838Y-108590395D01*
X146801083Y-108595197D01*
X146801079Y-108595200D01*
X146782579Y-108619697D01*
X146778075Y-108624874D01*
X146676881Y-108726068D01*
X146655321Y-108742401D01*
X146650423Y-108745149D01*
X146650411Y-108745157D01*
X146588074Y-108798481D01*
X146569453Y-108811054D01*
X146548936Y-108821740D01*
X146529086Y-108829493D01*
X146485864Y-108841200D01*
X146484060Y-108841652D01*
X146392378Y-108862823D01*
X146387352Y-108864118D01*
X146381654Y-108865740D01*
X146376563Y-108867336D01*
X146376509Y-108867354D01*
X146260399Y-108907113D01*
X146257414Y-108908189D01*
X146255238Y-108909012D01*
X146250577Y-108911360D01*
X146250299Y-108910808D01*
X146232054Y-108919143D01*
X146221550Y-108922227D01*
X146221538Y-108922233D01*
X146100469Y-109000039D01*
X146006218Y-109108812D01*
X145946430Y-109239727D01*
X145925949Y-109382181D01*
X145925949Y-109382186D01*
X145946430Y-109524640D01*
X146006217Y-109655553D01*
X146006219Y-109655557D01*
X146006221Y-109655559D01*
X146008769Y-109659524D01*
X146024322Y-109718700D01*
X146002123Y-109775716D01*
X145950651Y-109808795D01*
X145889565Y-109805301D01*
X145855480Y-109783051D01*
X144870896Y-108798467D01*
X144843119Y-108743950D01*
X144841900Y-108728463D01*
X144841900Y-107618885D01*
X144845595Y-107592089D01*
X144847120Y-107586667D01*
X144853489Y-107504889D01*
X144857766Y-107482830D01*
X144864721Y-107460758D01*
X144873273Y-107441245D01*
X144888907Y-107413995D01*
X144895574Y-107402372D01*
X144896509Y-107400814D01*
X144946400Y-107320964D01*
X144949064Y-107316448D01*
X144951928Y-107311297D01*
X144954400Y-107306566D01*
X145008303Y-107196520D01*
X145009574Y-107193828D01*
X145010478Y-107191837D01*
X145012707Y-107181616D01*
X145019379Y-107161587D01*
X145036565Y-107123957D01*
X145046806Y-107052728D01*
X145057047Y-106981502D01*
X145620553Y-106981502D01*
X145641034Y-107123956D01*
X145680811Y-107211053D01*
X145700823Y-107254873D01*
X145784501Y-107351443D01*
X145795073Y-107363644D01*
X145897163Y-107429253D01*
X145916147Y-107441453D01*
X145992044Y-107463738D01*
X146054235Y-107481999D01*
X146054236Y-107481999D01*
X146054239Y-107482000D01*
X146054241Y-107482000D01*
X146198159Y-107482000D01*
X146198161Y-107482000D01*
X146336253Y-107441453D01*
X146457328Y-107363643D01*
X146551577Y-107254873D01*
X146611365Y-107123957D01*
X146618192Y-107076471D01*
X146631847Y-106981502D01*
X146631847Y-106981497D01*
X146611365Y-106839043D01*
X146583531Y-106778096D01*
X146551577Y-106708127D01*
X146457328Y-106599357D01*
X146457327Y-106599356D01*
X146457326Y-106599355D01*
X146336257Y-106521549D01*
X146336254Y-106521547D01*
X146336253Y-106521547D01*
X146336250Y-106521546D01*
X146198164Y-106481000D01*
X146198161Y-106481000D01*
X146054239Y-106481000D01*
X146054235Y-106481000D01*
X145916149Y-106521546D01*
X145916142Y-106521549D01*
X145795073Y-106599355D01*
X145700822Y-106708128D01*
X145641034Y-106839043D01*
X145620553Y-106981497D01*
X145620553Y-106981502D01*
X145057047Y-106981502D01*
X145057047Y-106981497D01*
X145036565Y-106839043D01*
X145008731Y-106778096D01*
X144976777Y-106708127D01*
X144882528Y-106599357D01*
X144882527Y-106599356D01*
X144882526Y-106599355D01*
X144761457Y-106521549D01*
X144761454Y-106521547D01*
X144761453Y-106521547D01*
X144761450Y-106521546D01*
X144623364Y-106481000D01*
X144623361Y-106481000D01*
X144479439Y-106481000D01*
X144479435Y-106481000D01*
X144341349Y-106521546D01*
X144341342Y-106521549D01*
X144220273Y-106599355D01*
X144126022Y-106708128D01*
X144066234Y-106839043D01*
X144045753Y-106981497D01*
X144045753Y-106981502D01*
X144066233Y-107123954D01*
X144075088Y-107143342D01*
X144084577Y-107164120D01*
X144084971Y-107164981D01*
X144090614Y-107180747D01*
X144095146Y-107197848D01*
X144095147Y-107197851D01*
X144095148Y-107197853D01*
X144148425Y-107306623D01*
X144148432Y-107306636D01*
X144148433Y-107306639D01*
X144148707Y-107307162D01*
X144150947Y-107311444D01*
X144150965Y-107311476D01*
X144150967Y-107311480D01*
X144153774Y-107316518D01*
X144153801Y-107316565D01*
X144156398Y-107320964D01*
X144156424Y-107321007D01*
X144172961Y-107347475D01*
X144206286Y-107400814D01*
X144207231Y-107402391D01*
X144212677Y-107411883D01*
X144229523Y-107441243D01*
X144238078Y-107460761D01*
X144245032Y-107482832D01*
X144249309Y-107504894D01*
X144255679Y-107586664D01*
X144255680Y-107586666D01*
X144255680Y-107586669D01*
X144256175Y-107588571D01*
X144257706Y-107594449D01*
X144260900Y-107619393D01*
X144260900Y-108829776D01*
X144260424Y-108836625D01*
X144258466Y-108850660D01*
X144231698Y-108905679D01*
X144177703Y-108934457D01*
X144117105Y-108926001D01*
X144090412Y-108906982D01*
X143270696Y-108087266D01*
X143242919Y-108032749D01*
X143241700Y-108017262D01*
X143241700Y-107617240D01*
X143245942Y-107588571D01*
X143246229Y-107587622D01*
X143246757Y-107585878D01*
X143254058Y-107511178D01*
X143260437Y-107484634D01*
X143265204Y-107472498D01*
X143276174Y-107452023D01*
X143303329Y-107413134D01*
X143361815Y-107331505D01*
X143365967Y-107325239D01*
X143370776Y-107317370D01*
X143374455Y-107310822D01*
X143431590Y-107199850D01*
X143433362Y-107196237D01*
X143434606Y-107193569D01*
X143436777Y-107183843D01*
X143443346Y-107164288D01*
X143461765Y-107123957D01*
X143461765Y-107123956D01*
X143463519Y-107111761D01*
X143468592Y-107076471D01*
X143482247Y-106981502D01*
X143482247Y-106981497D01*
X143461765Y-106839043D01*
X143433931Y-106778096D01*
X143401977Y-106708127D01*
X143307728Y-106599357D01*
X143307727Y-106599356D01*
X143307726Y-106599355D01*
X143186657Y-106521549D01*
X143186654Y-106521547D01*
X143186653Y-106521547D01*
X143186650Y-106521546D01*
X143048564Y-106481000D01*
X143048561Y-106481000D01*
X142904639Y-106481000D01*
X142904635Y-106481000D01*
X142766549Y-106521546D01*
X142766542Y-106521549D01*
X142645473Y-106599355D01*
X142551222Y-106708128D01*
X142491434Y-106839043D01*
X142470953Y-106981497D01*
X142470953Y-106981502D01*
X142491433Y-107123952D01*
X142491436Y-107123960D01*
X142508603Y-107161553D01*
X142514678Y-107179008D01*
X142518482Y-107194461D01*
X142518484Y-107194466D01*
X142546755Y-107254873D01*
X142567974Y-107300211D01*
X142569411Y-107303158D01*
X142569440Y-107303217D01*
X142571041Y-107306372D01*
X142571059Y-107306407D01*
X142571061Y-107306410D01*
X142571173Y-107306623D01*
X142572600Y-107309325D01*
X142614322Y-107385435D01*
X142615688Y-107388117D01*
X142633510Y-107425912D01*
X142640029Y-107444201D01*
X142647486Y-107474129D01*
X142650244Y-107492109D01*
X142655408Y-107577810D01*
X142656666Y-107582918D01*
X142657590Y-107586667D01*
X142657826Y-107587622D01*
X142660700Y-107611304D01*
X142660700Y-108101863D01*
X142641793Y-108160054D01*
X142592293Y-108196018D01*
X142531107Y-108196018D01*
X142491696Y-108171867D01*
X141782253Y-107462424D01*
X141754476Y-107407907D01*
X141764047Y-107347475D01*
X141775318Y-107330120D01*
X141779770Y-107324621D01*
X141779788Y-107324598D01*
X141779799Y-107324585D01*
X141786752Y-107315131D01*
X141792078Y-107307133D01*
X141810632Y-107276228D01*
X141820691Y-107262357D01*
X141827177Y-107254873D01*
X141837852Y-107231495D01*
X141840431Y-107226595D01*
X141850112Y-107210474D01*
X141853755Y-107203868D01*
X141856227Y-107198968D01*
X141857798Y-107195786D01*
X141859219Y-107189591D01*
X141865657Y-107170612D01*
X141886965Y-107123957D01*
X141897206Y-107052728D01*
X141907447Y-106981502D01*
X141907447Y-106981497D01*
X141886965Y-106839043D01*
X141859131Y-106778096D01*
X141827177Y-106708127D01*
X141732928Y-106599357D01*
X141732927Y-106599356D01*
X141732926Y-106599355D01*
X141611857Y-106521549D01*
X141611854Y-106521547D01*
X141611853Y-106521547D01*
X141611850Y-106521546D01*
X141473764Y-106481000D01*
X141473761Y-106481000D01*
X141361637Y-106481000D01*
X141303446Y-106462093D01*
X141267482Y-106412593D01*
X141267482Y-106351407D01*
X141291633Y-106311996D01*
X141416933Y-106186696D01*
X141471450Y-106158919D01*
X141486937Y-106157700D01*
X146437563Y-106157700D01*
X146495754Y-106176607D01*
X146507567Y-106186696D01*
X147044887Y-106724016D01*
X147061221Y-106745576D01*
X147063976Y-106750486D01*
X147117294Y-106812814D01*
X147129868Y-106831435D01*
X147140558Y-106851960D01*
X147148310Y-106871809D01*
X147160011Y-106915013D01*
X147160463Y-106916815D01*
X147181624Y-107008449D01*
X147181649Y-107008555D01*
X147182913Y-107013466D01*
X147184500Y-107019053D01*
X147184509Y-107019084D01*
X147186134Y-107024278D01*
X147186152Y-107024334D01*
X147213945Y-107105496D01*
X147214608Y-107107580D01*
X147215834Y-107111756D01*
X147215837Y-107111761D01*
X147217643Y-107116294D01*
X147225897Y-107140398D01*
X147226957Y-107143346D01*
X147227749Y-107145451D01*
X147235917Y-107158158D01*
X147242690Y-107170561D01*
X147268275Y-107226584D01*
X147275623Y-107242673D01*
X147354900Y-107334164D01*
X147369873Y-107351444D01*
X147468453Y-107414797D01*
X147490947Y-107429253D01*
X147576744Y-107454445D01*
X147629035Y-107469799D01*
X147629036Y-107469799D01*
X147629039Y-107469800D01*
X147629041Y-107469800D01*
X147772959Y-107469800D01*
X147772961Y-107469800D01*
X147911053Y-107429253D01*
X148032128Y-107351443D01*
X148126377Y-107242673D01*
X148186165Y-107111757D01*
X148192992Y-107064271D01*
X148206647Y-106969302D01*
X148206647Y-106969297D01*
X148186165Y-106826843D01*
X148178417Y-106809878D01*
X148126377Y-106695927D01*
X148032128Y-106587157D01*
X148032127Y-106587156D01*
X148032126Y-106587155D01*
X147911057Y-106509349D01*
X147911055Y-106509348D01*
X147911053Y-106509347D01*
X147895282Y-106504716D01*
X147873442Y-106495328D01*
X147870634Y-106493696D01*
X147870629Y-106493694D01*
X147756033Y-106454452D01*
X147755978Y-106454434D01*
X147750784Y-106452809D01*
X147750753Y-106452800D01*
X147745166Y-106451213D01*
X147740255Y-106449949D01*
X147740214Y-106449939D01*
X147740205Y-106449937D01*
X147648518Y-106428763D01*
X147646713Y-106428311D01*
X147603509Y-106416610D01*
X147583660Y-106408858D01*
X147563135Y-106398168D01*
X147544514Y-106385594D01*
X147482184Y-106332274D01*
X147482183Y-106332273D01*
X147475248Y-106328203D01*
X147455356Y-106312827D01*
X146846755Y-105704225D01*
X146842248Y-105699046D01*
X146834739Y-105689101D01*
X146800416Y-105657811D01*
X146798763Y-105656233D01*
X146785281Y-105642752D01*
X146782550Y-105640881D01*
X146777169Y-105636619D01*
X146754478Y-105615934D01*
X146745970Y-105612638D01*
X146725790Y-105602000D01*
X146718274Y-105596851D01*
X146718270Y-105596849D01*
X146688384Y-105589819D01*
X146681831Y-105587789D01*
X146653209Y-105576701D01*
X146653205Y-105576700D01*
X146653204Y-105576700D01*
X146653202Y-105576700D01*
X146644090Y-105576700D01*
X146621422Y-105574070D01*
X146612549Y-105571983D01*
X146582138Y-105576225D01*
X146575292Y-105576700D01*
X141385625Y-105576700D01*
X141378777Y-105576225D01*
X141366428Y-105574501D01*
X141326248Y-105576359D01*
X141320031Y-105576647D01*
X141317753Y-105576700D01*
X141298679Y-105576700D01*
X141295414Y-105577310D01*
X141288601Y-105578100D01*
X141257941Y-105579517D01*
X141257936Y-105579518D01*
X141249595Y-105583201D01*
X141227807Y-105589948D01*
X141218845Y-105591623D01*
X141218839Y-105591626D01*
X141192740Y-105607784D01*
X141186673Y-105610983D01*
X141158583Y-105623386D01*
X141152132Y-105629837D01*
X141134258Y-105643995D01*
X141126503Y-105648797D01*
X141126499Y-105648800D01*
X141107999Y-105673297D01*
X141103495Y-105678474D01*
X140197427Y-106584541D01*
X140192252Y-106589045D01*
X140182300Y-106596560D01*
X140151001Y-106630893D01*
X140149425Y-106632544D01*
X140135957Y-106646012D01*
X140135945Y-106646028D01*
X140134070Y-106648764D01*
X140129817Y-106654131D01*
X140109135Y-106676819D01*
X140109132Y-106676824D01*
X140105836Y-106685331D01*
X140095205Y-106705501D01*
X140090051Y-106713025D01*
X140090049Y-106713029D01*
X140083019Y-106742917D01*
X140080989Y-106749470D01*
X140069900Y-106778095D01*
X140069900Y-106787210D01*
X140067270Y-106809878D01*
X140065183Y-106818750D01*
X140069425Y-106849161D01*
X140069900Y-106856007D01*
X140069900Y-115662662D01*
X140050993Y-115720853D01*
X140040904Y-115732666D01*
X137979986Y-117793583D01*
X137925469Y-117821360D01*
X137865037Y-117811789D01*
X137821772Y-117768524D01*
X137811990Y-117737668D01*
X137797565Y-117637343D01*
X137783405Y-117606337D01*
X137737777Y-117506427D01*
X137643528Y-117397657D01*
X137643527Y-117397656D01*
X137643526Y-117397655D01*
X137522457Y-117319849D01*
X137522454Y-117319847D01*
X137522453Y-117319847D01*
X137522450Y-117319846D01*
X137384364Y-117279300D01*
X137384361Y-117279300D01*
X137240439Y-117279300D01*
X137240435Y-117279300D01*
X137102345Y-117319847D01*
X137102343Y-117319848D01*
X137100725Y-117320888D01*
X137095743Y-117323696D01*
X136987317Y-117376804D01*
X136987308Y-117376809D01*
X136982515Y-117379314D01*
X136977466Y-117382123D01*
X136977414Y-117382153D01*
X136972937Y-117384794D01*
X136893074Y-117434691D01*
X136891480Y-117435646D01*
X136852653Y-117457924D01*
X136833133Y-117466478D01*
X136811061Y-117473432D01*
X136789003Y-117477709D01*
X136707225Y-117484080D01*
X136699448Y-117486106D01*
X136674504Y-117489300D01*
X135467432Y-117489300D01*
X135460585Y-117488825D01*
X135448232Y-117487101D01*
X135448230Y-117487101D01*
X135448226Y-117487101D01*
X135424685Y-117488189D01*
X135401819Y-117489247D01*
X135399540Y-117489300D01*
X135380482Y-117489300D01*
X135380470Y-117489301D01*
X135377210Y-117489910D01*
X135370406Y-117490699D01*
X135358375Y-117491255D01*
X135347909Y-117491739D01*
X135288907Y-117475544D01*
X135250693Y-117427760D01*
X135247863Y-117366640D01*
X135273327Y-117322843D01*
X137076685Y-115519485D01*
X137131201Y-115491709D01*
X137191633Y-115501280D01*
X137234898Y-115544545D01*
X137244680Y-115603578D01*
X137238553Y-115646195D01*
X137238553Y-115646202D01*
X137259034Y-115788656D01*
X137316045Y-115913491D01*
X137318823Y-115919573D01*
X137408242Y-116022769D01*
X137413073Y-116028344D01*
X137473768Y-116067350D01*
X137534147Y-116106153D01*
X137640603Y-116137411D01*
X137672235Y-116146699D01*
X137672236Y-116146699D01*
X137672239Y-116146700D01*
X137672241Y-116146700D01*
X137816159Y-116146700D01*
X137816161Y-116146700D01*
X137954253Y-116106153D01*
X138075328Y-116028343D01*
X138169577Y-115919573D01*
X138229365Y-115788657D01*
X138249847Y-115646200D01*
X138249846Y-115646195D01*
X138248895Y-115639579D01*
X138248698Y-115622612D01*
X138248007Y-115622598D01*
X138248108Y-115617729D01*
X138245264Y-115581104D01*
X138237530Y-115481472D01*
X138236386Y-115472206D01*
X138234464Y-115460897D01*
X138232479Y-115451755D01*
X138204116Y-115344854D01*
X138202757Y-115340181D01*
X138201115Y-115334998D01*
X138199520Y-115330350D01*
X138170888Y-115253004D01*
X138169464Y-115248511D01*
X138152820Y-115185779D01*
X138149808Y-115168059D01*
X138149802Y-115167988D01*
X138141522Y-115061301D01*
X138139487Y-115053479D01*
X138136300Y-115028560D01*
X138136300Y-110702427D01*
X138136775Y-110695580D01*
X138138498Y-110683227D01*
X138136736Y-110645118D01*
X138136352Y-110636831D01*
X138136300Y-110634553D01*
X138136300Y-110615486D01*
X138136300Y-110615482D01*
X138135689Y-110612218D01*
X138134899Y-110605415D01*
X138133482Y-110574738D01*
X138129797Y-110566392D01*
X138123049Y-110544600D01*
X138121375Y-110535642D01*
X138105206Y-110509528D01*
X138102018Y-110503480D01*
X138089613Y-110475384D01*
X138083161Y-110468932D01*
X138069001Y-110451054D01*
X138064201Y-110443301D01*
X138039702Y-110424800D01*
X138034527Y-110420297D01*
X136950655Y-109336425D01*
X136946148Y-109331246D01*
X136938639Y-109321301D01*
X136904316Y-109290011D01*
X136902663Y-109288433D01*
X136889181Y-109274952D01*
X136886450Y-109273081D01*
X136881069Y-109268819D01*
X136858378Y-109248134D01*
X136849870Y-109244838D01*
X136829690Y-109234200D01*
X136822174Y-109229051D01*
X136822170Y-109229049D01*
X136792284Y-109222019D01*
X136785731Y-109219989D01*
X136757109Y-109208901D01*
X136757105Y-109208900D01*
X136757104Y-109208900D01*
X136757102Y-109208900D01*
X136747990Y-109208900D01*
X136725322Y-109206270D01*
X136716449Y-109204183D01*
X136686038Y-109208425D01*
X136679192Y-109208900D01*
X132566601Y-109208900D01*
X132508410Y-109189993D01*
X132472446Y-109140493D01*
X132472446Y-109079307D01*
X132477662Y-109068298D01*
X132477036Y-109068013D01*
X132488372Y-109043190D01*
X132539765Y-108930657D01*
X132546592Y-108883171D01*
X132560247Y-108788202D01*
X132560247Y-108788197D01*
X132539765Y-108645743D01*
X132527870Y-108619697D01*
X132479977Y-108514827D01*
X132385728Y-108406057D01*
X132385727Y-108406056D01*
X132385726Y-108406055D01*
X132264657Y-108328249D01*
X132264651Y-108328246D01*
X132263421Y-108327885D01*
X132262733Y-108327683D01*
X132243141Y-108319562D01*
X132239194Y-108317404D01*
X132100165Y-108258279D01*
X132056227Y-108240493D01*
X132046015Y-108234827D01*
X132045883Y-108235087D01*
X132034138Y-108229102D01*
X132017447Y-108220597D01*
X132004208Y-108212484D01*
X131998181Y-108208105D01*
X131984690Y-108198304D01*
X131984688Y-108198303D01*
X131961742Y-108190847D01*
X131947388Y-108184901D01*
X131925906Y-108173954D01*
X131902074Y-108170179D01*
X131886974Y-108166553D01*
X131864037Y-108159100D01*
X131864033Y-108159100D01*
X131832119Y-108159100D01*
X131728562Y-108159100D01*
X131724955Y-108158968D01*
X131717316Y-108158410D01*
X131712423Y-108158171D01*
X131626727Y-108156049D01*
X131560851Y-108154418D01*
X131560827Y-108154417D01*
X131560796Y-108154417D01*
X131559073Y-108154400D01*
X131559069Y-108154401D01*
X131544188Y-108157288D01*
X131525334Y-108159100D01*
X127309904Y-108159100D01*
X127251713Y-108140193D01*
X127215749Y-108090693D01*
X127210904Y-108060192D01*
X127205372Y-102108003D01*
X137145817Y-102108003D01*
X137166098Y-102313929D01*
X137166099Y-102313934D01*
X137226168Y-102511954D01*
X137323716Y-102694452D01*
X137454985Y-102854404D01*
X137454990Y-102854410D01*
X137454995Y-102854414D01*
X137614947Y-102985683D01*
X137614948Y-102985683D01*
X137614950Y-102985685D01*
X137797446Y-103083232D01*
X137935396Y-103125078D01*
X137995465Y-103143300D01*
X137995470Y-103143301D01*
X138201397Y-103163583D01*
X138201400Y-103163583D01*
X138201403Y-103163583D01*
X138407329Y-103143301D01*
X138407334Y-103143300D01*
X138407334Y-103143299D01*
X138605354Y-103083232D01*
X138787850Y-102985685D01*
X138947810Y-102854410D01*
X139079085Y-102694450D01*
X139176632Y-102511954D01*
X139236700Y-102313934D01*
X139236701Y-102313929D01*
X139256983Y-102108003D01*
X139685817Y-102108003D01*
X139706098Y-102313929D01*
X139706099Y-102313934D01*
X139766168Y-102511954D01*
X139863716Y-102694452D01*
X139994985Y-102854404D01*
X139994990Y-102854410D01*
X139994995Y-102854414D01*
X140154947Y-102985683D01*
X140154948Y-102985683D01*
X140154950Y-102985685D01*
X140337446Y-103083232D01*
X140475396Y-103125078D01*
X140535465Y-103143300D01*
X140535470Y-103143301D01*
X140741397Y-103163583D01*
X140741400Y-103163583D01*
X140741403Y-103163583D01*
X140947329Y-103143301D01*
X140947334Y-103143300D01*
X141145354Y-103083232D01*
X141327850Y-102985685D01*
X141487810Y-102854410D01*
X141619085Y-102694450D01*
X141716632Y-102511954D01*
X141776700Y-102313934D01*
X141776701Y-102313929D01*
X141796983Y-102108003D01*
X142225817Y-102108003D01*
X142246098Y-102313929D01*
X142246099Y-102313934D01*
X142306168Y-102511954D01*
X142403716Y-102694452D01*
X142534985Y-102854404D01*
X142534990Y-102854410D01*
X142534995Y-102854414D01*
X142694947Y-102985683D01*
X142694948Y-102985683D01*
X142694950Y-102985685D01*
X142877446Y-103083232D01*
X143015396Y-103125078D01*
X143075465Y-103143300D01*
X143075470Y-103143301D01*
X143281397Y-103163583D01*
X143281400Y-103163583D01*
X143281403Y-103163583D01*
X143487329Y-103143301D01*
X143487334Y-103143300D01*
X143487334Y-103143299D01*
X143685354Y-103083232D01*
X143867850Y-102985685D01*
X144027810Y-102854410D01*
X144159085Y-102694450D01*
X144256632Y-102511954D01*
X144316700Y-102313934D01*
X144316701Y-102313929D01*
X144336983Y-102108003D01*
X144765817Y-102108003D01*
X144786098Y-102313929D01*
X144786099Y-102313934D01*
X144846168Y-102511954D01*
X144943716Y-102694452D01*
X145074985Y-102854404D01*
X145074990Y-102854410D01*
X145074995Y-102854414D01*
X145234947Y-102985683D01*
X145234948Y-102985683D01*
X145234950Y-102985685D01*
X145417446Y-103083232D01*
X145555396Y-103125078D01*
X145615465Y-103143300D01*
X145615470Y-103143301D01*
X145821397Y-103163583D01*
X145821400Y-103163583D01*
X145821403Y-103163583D01*
X146027329Y-103143301D01*
X146027334Y-103143300D01*
X146027333Y-103143300D01*
X146225354Y-103083232D01*
X146407850Y-102985685D01*
X146567810Y-102854410D01*
X146699085Y-102694450D01*
X146796632Y-102511954D01*
X146856700Y-102313934D01*
X146856701Y-102313929D01*
X146876983Y-102108003D01*
X147305817Y-102108003D01*
X147326098Y-102313929D01*
X147326099Y-102313934D01*
X147386168Y-102511954D01*
X147483716Y-102694452D01*
X147614985Y-102854404D01*
X147614990Y-102854410D01*
X147614995Y-102854414D01*
X147774947Y-102985683D01*
X147774948Y-102985683D01*
X147774950Y-102985685D01*
X147957446Y-103083232D01*
X148095396Y-103125078D01*
X148155465Y-103143300D01*
X148155470Y-103143301D01*
X148361397Y-103163583D01*
X148361400Y-103163583D01*
X148361403Y-103163583D01*
X148567329Y-103143301D01*
X148567334Y-103143300D01*
X148567334Y-103143299D01*
X148765354Y-103083232D01*
X148947850Y-102985685D01*
X149107810Y-102854410D01*
X149239085Y-102694450D01*
X149336632Y-102511954D01*
X149396700Y-102313934D01*
X149396701Y-102313929D01*
X149416983Y-102108003D01*
X149845817Y-102108003D01*
X149866098Y-102313929D01*
X149866099Y-102313934D01*
X149926168Y-102511954D01*
X150023716Y-102694452D01*
X150154985Y-102854404D01*
X150154990Y-102854410D01*
X150154995Y-102854414D01*
X150314947Y-102985683D01*
X150314948Y-102985683D01*
X150314950Y-102985685D01*
X150497446Y-103083232D01*
X150635397Y-103125078D01*
X150695465Y-103143300D01*
X150695470Y-103143301D01*
X150901397Y-103163583D01*
X150901400Y-103163583D01*
X150901403Y-103163583D01*
X151107329Y-103143301D01*
X151107334Y-103143300D01*
X151107333Y-103143300D01*
X151305354Y-103083232D01*
X151487850Y-102985685D01*
X151647810Y-102854410D01*
X151779085Y-102694450D01*
X151876632Y-102511954D01*
X151936700Y-102313934D01*
X151936701Y-102313929D01*
X151956983Y-102108003D01*
X152385817Y-102108003D01*
X152406098Y-102313929D01*
X152406099Y-102313934D01*
X152466168Y-102511954D01*
X152563716Y-102694452D01*
X152694985Y-102854404D01*
X152694990Y-102854410D01*
X152694995Y-102854414D01*
X152854947Y-102985683D01*
X152854948Y-102985683D01*
X152854950Y-102985685D01*
X153037446Y-103083232D01*
X153175396Y-103125078D01*
X153235465Y-103143300D01*
X153235470Y-103143301D01*
X153441397Y-103163583D01*
X153441400Y-103163583D01*
X153441403Y-103163583D01*
X153647329Y-103143301D01*
X153647334Y-103143300D01*
X153647334Y-103143299D01*
X153845354Y-103083232D01*
X154027850Y-102985685D01*
X154037524Y-102977746D01*
X154930900Y-102977746D01*
X154930901Y-102977758D01*
X154942532Y-103036227D01*
X154942534Y-103036233D01*
X154986845Y-103102548D01*
X154986848Y-103102552D01*
X155053169Y-103146867D01*
X155097631Y-103155711D01*
X155111641Y-103158498D01*
X155111646Y-103158498D01*
X155111652Y-103158500D01*
X155111653Y-103158500D01*
X156851147Y-103158500D01*
X156851148Y-103158500D01*
X156909631Y-103146867D01*
X156975952Y-103102552D01*
X157020267Y-103036231D01*
X157031900Y-102977748D01*
X157031900Y-101238252D01*
X157030321Y-101230316D01*
X157029111Y-101224231D01*
X157020267Y-101179769D01*
X156975952Y-101113448D01*
X156975948Y-101113445D01*
X156909633Y-101069134D01*
X156909631Y-101069133D01*
X156909628Y-101069132D01*
X156909627Y-101069132D01*
X156851158Y-101057501D01*
X156851148Y-101057500D01*
X155111652Y-101057500D01*
X155111651Y-101057500D01*
X155111641Y-101057501D01*
X155053172Y-101069132D01*
X155053166Y-101069134D01*
X154986851Y-101113445D01*
X154986845Y-101113451D01*
X154942534Y-101179766D01*
X154942532Y-101179772D01*
X154930901Y-101238241D01*
X154930900Y-101238253D01*
X154930900Y-102977746D01*
X154037524Y-102977746D01*
X154187810Y-102854410D01*
X154319085Y-102694450D01*
X154416632Y-102511954D01*
X154476700Y-102313934D01*
X154476701Y-102313929D01*
X154496983Y-102108003D01*
X154496983Y-102107996D01*
X154476701Y-101902070D01*
X154476700Y-101902065D01*
X154458478Y-101841996D01*
X154416632Y-101704046D01*
X154319085Y-101521550D01*
X154187810Y-101361590D01*
X154037523Y-101238253D01*
X154027852Y-101230316D01*
X153845354Y-101132768D01*
X153647334Y-101072699D01*
X153647329Y-101072698D01*
X153441403Y-101052417D01*
X153441397Y-101052417D01*
X153235470Y-101072698D01*
X153235465Y-101072699D01*
X153037445Y-101132768D01*
X152854947Y-101230316D01*
X152694995Y-101361585D01*
X152694985Y-101361595D01*
X152563716Y-101521547D01*
X152466168Y-101704045D01*
X152406099Y-101902065D01*
X152406098Y-101902070D01*
X152385817Y-102107996D01*
X152385817Y-102108003D01*
X151956983Y-102108003D01*
X151956983Y-102107996D01*
X151936701Y-101902070D01*
X151936700Y-101902065D01*
X151918478Y-101841996D01*
X151876632Y-101704046D01*
X151779085Y-101521550D01*
X151647810Y-101361590D01*
X151497523Y-101238253D01*
X151487852Y-101230316D01*
X151305354Y-101132768D01*
X151107334Y-101072699D01*
X151107329Y-101072698D01*
X150901403Y-101052417D01*
X150901397Y-101052417D01*
X150695470Y-101072698D01*
X150695465Y-101072699D01*
X150497445Y-101132768D01*
X150314947Y-101230316D01*
X150154995Y-101361585D01*
X150154985Y-101361595D01*
X150023716Y-101521547D01*
X149926168Y-101704045D01*
X149866099Y-101902065D01*
X149866098Y-101902070D01*
X149845817Y-102107996D01*
X149845817Y-102108003D01*
X149416983Y-102108003D01*
X149416983Y-102107996D01*
X149396701Y-101902070D01*
X149396700Y-101902065D01*
X149378478Y-101841996D01*
X149336632Y-101704046D01*
X149239085Y-101521550D01*
X149107810Y-101361590D01*
X148957523Y-101238253D01*
X148947852Y-101230316D01*
X148765354Y-101132768D01*
X148567334Y-101072699D01*
X148567329Y-101072698D01*
X148361403Y-101052417D01*
X148361397Y-101052417D01*
X148155470Y-101072698D01*
X148155465Y-101072699D01*
X147957445Y-101132768D01*
X147774947Y-101230316D01*
X147614995Y-101361585D01*
X147614985Y-101361595D01*
X147483716Y-101521547D01*
X147386168Y-101704045D01*
X147326099Y-101902065D01*
X147326098Y-101902070D01*
X147305817Y-102107996D01*
X147305817Y-102108003D01*
X146876983Y-102108003D01*
X146876983Y-102107996D01*
X146856701Y-101902070D01*
X146856700Y-101902065D01*
X146838478Y-101841997D01*
X146796632Y-101704046D01*
X146699085Y-101521550D01*
X146567810Y-101361590D01*
X146417523Y-101238253D01*
X146407852Y-101230316D01*
X146225354Y-101132768D01*
X146027334Y-101072699D01*
X146027329Y-101072698D01*
X145821403Y-101052417D01*
X145821397Y-101052417D01*
X145615470Y-101072698D01*
X145615465Y-101072699D01*
X145417445Y-101132768D01*
X145234947Y-101230316D01*
X145074995Y-101361585D01*
X145074985Y-101361595D01*
X144943716Y-101521547D01*
X144846168Y-101704045D01*
X144786099Y-101902065D01*
X144786098Y-101902070D01*
X144765817Y-102107996D01*
X144765817Y-102108003D01*
X144336983Y-102108003D01*
X144336983Y-102107996D01*
X144316701Y-101902070D01*
X144316700Y-101902065D01*
X144298478Y-101841997D01*
X144256632Y-101704046D01*
X144159085Y-101521550D01*
X144027810Y-101361590D01*
X143877523Y-101238253D01*
X143867852Y-101230316D01*
X143685354Y-101132768D01*
X143487334Y-101072699D01*
X143487329Y-101072698D01*
X143281403Y-101052417D01*
X143281397Y-101052417D01*
X143075470Y-101072698D01*
X143075465Y-101072699D01*
X142877445Y-101132768D01*
X142694947Y-101230316D01*
X142534995Y-101361585D01*
X142534985Y-101361595D01*
X142403716Y-101521547D01*
X142306168Y-101704045D01*
X142246099Y-101902065D01*
X142246098Y-101902070D01*
X142225817Y-102107996D01*
X142225817Y-102108003D01*
X141796983Y-102108003D01*
X141796983Y-102107996D01*
X141776701Y-101902070D01*
X141776700Y-101902065D01*
X141758478Y-101841997D01*
X141716632Y-101704046D01*
X141619085Y-101521550D01*
X141487810Y-101361590D01*
X141337523Y-101238253D01*
X141327852Y-101230316D01*
X141145354Y-101132768D01*
X140947334Y-101072699D01*
X140947329Y-101072698D01*
X140741403Y-101052417D01*
X140741397Y-101052417D01*
X140535470Y-101072698D01*
X140535465Y-101072699D01*
X140337445Y-101132768D01*
X140154947Y-101230316D01*
X139994995Y-101361585D01*
X139994985Y-101361595D01*
X139863716Y-101521547D01*
X139766168Y-101704045D01*
X139706099Y-101902065D01*
X139706098Y-101902070D01*
X139685817Y-102107996D01*
X139685817Y-102108003D01*
X139256983Y-102108003D01*
X139256983Y-102107996D01*
X139236701Y-101902070D01*
X139236700Y-101902065D01*
X139218478Y-101841997D01*
X139176632Y-101704046D01*
X139079085Y-101521550D01*
X138947810Y-101361590D01*
X138797523Y-101238253D01*
X138787852Y-101230316D01*
X138605354Y-101132768D01*
X138407334Y-101072699D01*
X138407329Y-101072698D01*
X138201403Y-101052417D01*
X138201397Y-101052417D01*
X137995470Y-101072698D01*
X137995465Y-101072699D01*
X137797445Y-101132768D01*
X137614947Y-101230316D01*
X137454995Y-101361585D01*
X137454985Y-101361595D01*
X137323716Y-101521547D01*
X137226168Y-101704045D01*
X137166099Y-101902065D01*
X137166098Y-101902070D01*
X137145817Y-102107996D01*
X137145817Y-102108003D01*
X127205372Y-102108003D01*
X127203524Y-100119797D01*
X127211033Y-100081884D01*
X127217085Y-100067244D01*
X127256789Y-100020690D01*
X127270671Y-100013609D01*
X127275641Y-100011549D01*
X127284105Y-100008042D01*
X127322005Y-100000500D01*
X168881516Y-100000500D01*
X168919399Y-100008035D01*
G37*
%TD.AperFunction*%
%TD*%
%TA.AperFunction,Conductor*%
%TO.N,GNDPWR*%
G36*
X109950884Y-124924748D02*
G01*
X109965518Y-124930815D01*
X110012032Y-124970566D01*
X110019101Y-124984461D01*
X110025151Y-124999103D01*
X110032654Y-125037029D01*
X110007544Y-145701844D01*
X109999974Y-145739692D01*
X109993902Y-145754314D01*
X109954124Y-145800804D01*
X109940330Y-145807821D01*
X109925702Y-145813875D01*
X109887844Y-145821400D01*
X100373491Y-145821400D01*
X100335605Y-145813863D01*
X100320970Y-145807801D01*
X100274447Y-145768063D01*
X100267397Y-145754228D01*
X100261334Y-145739590D01*
X100253800Y-145701708D01*
X100253800Y-125036891D01*
X100261334Y-124999010D01*
X100267396Y-124984373D01*
X100307131Y-124937850D01*
X100320966Y-124930799D01*
X100335610Y-124924734D01*
X100373491Y-124917200D01*
X109912970Y-124917200D01*
X109950884Y-124924748D01*
G37*
%TD.AperFunction*%
%TD*%
%TA.AperFunction,Conductor*%
%TO.N,Net-(Q12-D)*%
G36*
X124479792Y-110091135D02*
G01*
X124494425Y-110097196D01*
X124540951Y-110136933D01*
X124548001Y-110150770D01*
X124554063Y-110165405D01*
X124561600Y-110203291D01*
X124561600Y-120073108D01*
X124554063Y-120110997D01*
X124548002Y-120125628D01*
X124508263Y-120172152D01*
X124494430Y-120179201D01*
X124487048Y-120182258D01*
X124479797Y-120185262D01*
X124441909Y-120192800D01*
X119906091Y-120192800D01*
X119868205Y-120185263D01*
X119853570Y-120179201D01*
X119807047Y-120139463D01*
X119799997Y-120125628D01*
X119793934Y-120110990D01*
X119786400Y-120073108D01*
X119786400Y-110203291D01*
X119793934Y-110165410D01*
X119799996Y-110150773D01*
X119839731Y-110104250D01*
X119853566Y-110097199D01*
X119868210Y-110091134D01*
X119906091Y-110083600D01*
X124441909Y-110083600D01*
X124479792Y-110091135D01*
G37*
%TD.AperFunction*%
%TD*%
%TA.AperFunction,Conductor*%
%TO.N,/PACK+*%
G36*
X124632192Y-124899335D02*
G01*
X124646825Y-124905396D01*
X124693351Y-124945133D01*
X124700401Y-124958970D01*
X124706463Y-124973605D01*
X124714000Y-125011491D01*
X124714000Y-133890708D01*
X124706463Y-133928597D01*
X124700402Y-133943228D01*
X124660663Y-133989752D01*
X124646830Y-133996801D01*
X124639448Y-133999858D01*
X124632197Y-134002862D01*
X124594309Y-134010400D01*
X119575891Y-134010400D01*
X119538005Y-134002863D01*
X119523370Y-133996801D01*
X119476847Y-133957063D01*
X119469797Y-133943228D01*
X119463734Y-133928590D01*
X119456200Y-133890708D01*
X119456200Y-125011491D01*
X119463734Y-124973610D01*
X119469796Y-124958973D01*
X119509531Y-124912450D01*
X119523366Y-124905399D01*
X119538010Y-124899334D01*
X119575891Y-124891800D01*
X124594309Y-124891800D01*
X124632192Y-124899335D01*
G37*
%TD.AperFunction*%
%TD*%
%TA.AperFunction,Conductor*%
%TO.N,GND*%
G36*
X108155751Y-119286346D02*
G01*
X108158818Y-119288447D01*
X108158820Y-119288449D01*
X108161553Y-119290321D01*
X108166928Y-119294578D01*
X108189622Y-119315266D01*
X108196672Y-119317997D01*
X108198122Y-119318559D01*
X108218310Y-119329200D01*
X108225829Y-119334351D01*
X108255720Y-119341381D01*
X108262269Y-119343409D01*
X108290896Y-119354500D01*
X108300011Y-119354500D01*
X108322678Y-119357129D01*
X108331552Y-119359217D01*
X108358190Y-119355501D01*
X108361963Y-119354975D01*
X108368809Y-119354500D01*
X110345173Y-119354500D01*
X110403364Y-119373407D01*
X110439328Y-119422907D01*
X110439328Y-119484093D01*
X110437270Y-119489376D01*
X110436634Y-119491543D01*
X110416153Y-119633997D01*
X110416153Y-119634002D01*
X110436634Y-119776456D01*
X110496422Y-119907371D01*
X110496423Y-119907373D01*
X110590672Y-120016143D01*
X110711746Y-120093953D01*
X110711747Y-120093953D01*
X110718189Y-120096895D01*
X110718075Y-120097143D01*
X110726872Y-120100796D01*
X110731741Y-120103467D01*
X110735135Y-120104990D01*
X110765958Y-120115966D01*
X110838281Y-120135392D01*
X110889575Y-120168747D01*
X110911467Y-120225882D01*
X110911600Y-120231003D01*
X110911600Y-120640931D01*
X110911125Y-120647779D01*
X110909401Y-120660127D01*
X110911547Y-120706515D01*
X110911600Y-120708801D01*
X110911600Y-120727873D01*
X110912209Y-120731132D01*
X110913000Y-120737949D01*
X110914417Y-120768613D01*
X110914417Y-120768615D01*
X110914417Y-120768617D01*
X110914418Y-120768618D01*
X110918102Y-120776963D01*
X110924848Y-120798748D01*
X110926524Y-120807711D01*
X110926524Y-120807713D01*
X110942686Y-120833816D01*
X110945885Y-120839886D01*
X110958285Y-120867970D01*
X110958287Y-120867973D01*
X110964733Y-120874419D01*
X110978896Y-120892298D01*
X110983699Y-120900055D01*
X111008198Y-120918555D01*
X111013372Y-120923057D01*
X113722683Y-123632369D01*
X113727188Y-123637546D01*
X113734703Y-123647496D01*
X113734704Y-123647498D01*
X113769026Y-123678786D01*
X113770680Y-123680366D01*
X113778116Y-123687801D01*
X113784163Y-123693848D01*
X113786898Y-123695721D01*
X113792267Y-123699974D01*
X113814966Y-123720666D01*
X113822933Y-123723752D01*
X113823464Y-123723958D01*
X113843651Y-123734598D01*
X113851172Y-123739750D01*
X113881063Y-123746780D01*
X113887600Y-123748804D01*
X113916240Y-123759900D01*
X113925354Y-123759900D01*
X113948021Y-123762529D01*
X113956895Y-123764617D01*
X113983533Y-123760901D01*
X113987306Y-123760375D01*
X113994152Y-123759900D01*
X127482600Y-123759900D01*
X127482600Y-124587000D01*
X108120491Y-124587000D01*
X108082605Y-124579463D01*
X108067970Y-124573401D01*
X108021447Y-124533663D01*
X108014397Y-124519828D01*
X108008334Y-124505190D01*
X108000800Y-124467308D01*
X108000800Y-119368019D01*
X108019707Y-119309828D01*
X108069207Y-119273864D01*
X108130393Y-119273864D01*
X108155751Y-119286346D01*
G37*
%TD.AperFunction*%
%TA.AperFunction,Conductor*%
G36*
X112560671Y-119550100D02*
G01*
X114788739Y-121778169D01*
X114793244Y-121783346D01*
X114800759Y-121793296D01*
X114800760Y-121793298D01*
X114835082Y-121824586D01*
X114836736Y-121826166D01*
X114844172Y-121833601D01*
X114850220Y-121839649D01*
X114852955Y-121841522D01*
X114858325Y-121845775D01*
X114881022Y-121866466D01*
X114888072Y-121869197D01*
X114889522Y-121869759D01*
X114909710Y-121880400D01*
X114917229Y-121885551D01*
X114947120Y-121892581D01*
X114953669Y-121894609D01*
X114982296Y-121905700D01*
X114991411Y-121905700D01*
X115014078Y-121908329D01*
X115022952Y-121910417D01*
X115047247Y-121907027D01*
X115053363Y-121906175D01*
X115060209Y-121905700D01*
X127482600Y-121905700D01*
X127482600Y-122818900D01*
X114280997Y-122818900D01*
X114222806Y-122799993D01*
X114210993Y-122789904D01*
X111881596Y-120460507D01*
X111853819Y-120405990D01*
X111852600Y-120390503D01*
X111852600Y-120240010D01*
X111871507Y-120181819D01*
X111921007Y-120145855D01*
X111932029Y-120142964D01*
X111940060Y-120141345D01*
X111947268Y-120139618D01*
X112047124Y-120111858D01*
X112053060Y-120110013D01*
X112057328Y-120108543D01*
X112057398Y-120108519D01*
X112057549Y-120108466D01*
X112058045Y-120108295D01*
X112058051Y-120108290D01*
X112063118Y-120105867D01*
X112063378Y-120106412D01*
X112079826Y-120099010D01*
X112097053Y-120093953D01*
X112218128Y-120016143D01*
X112312377Y-119907373D01*
X112372165Y-119776457D01*
X112383217Y-119699590D01*
X112392647Y-119634002D01*
X112392647Y-119626919D01*
X112393934Y-119626919D01*
X112403107Y-119573906D01*
X112446984Y-119531263D01*
X112507547Y-119522554D01*
X112560671Y-119550100D01*
G37*
%TD.AperFunction*%
%TD*%
%TA.AperFunction,Conductor*%
%TO.N,Net-(C9-Pad1)*%
G36*
X124479792Y-100210535D02*
G01*
X124494425Y-100216596D01*
X124540951Y-100256333D01*
X124548001Y-100270170D01*
X124554063Y-100284805D01*
X124561600Y-100322691D01*
X124561600Y-109100308D01*
X124554063Y-109138197D01*
X124548002Y-109152828D01*
X124508263Y-109199352D01*
X124494430Y-109206401D01*
X124487048Y-109209458D01*
X124479797Y-109212462D01*
X124441909Y-109220000D01*
X118948200Y-109220000D01*
X118948200Y-109319999D01*
X118948200Y-118574508D01*
X118940663Y-118612397D01*
X118934602Y-118627028D01*
X118894863Y-118673552D01*
X118881030Y-118680601D01*
X118873648Y-118683658D01*
X118866397Y-118686662D01*
X118828509Y-118694200D01*
X116611400Y-118694200D01*
X114284520Y-118694200D01*
X114262029Y-118691611D01*
X114251368Y-118689124D01*
X114211042Y-118669231D01*
X114202582Y-118662286D01*
X114186848Y-118646022D01*
X112242788Y-116111362D01*
X112234027Y-116097768D01*
X112230200Y-116090604D01*
X112219843Y-116060079D01*
X112218520Y-116052067D01*
X112217200Y-116035952D01*
X112217200Y-100322691D01*
X112224734Y-100284810D01*
X112230796Y-100270173D01*
X112270531Y-100223650D01*
X112284366Y-100216599D01*
X112299010Y-100210534D01*
X112336891Y-100203000D01*
X124441909Y-100203000D01*
X124479792Y-100210535D01*
G37*
%TD.AperFunction*%
%TD*%
%TA.AperFunction,Conductor*%
%TO.N,Net-(Q12-D)*%
G36*
X136030708Y-109958805D02*
G01*
X136220362Y-110036680D01*
X136292584Y-110066336D01*
X136298936Y-110072648D01*
X136298963Y-110072715D01*
X136406487Y-110334574D01*
X136406460Y-110343529D01*
X136400108Y-110349841D01*
X136399454Y-110350087D01*
X136315424Y-110378861D01*
X136287445Y-110388442D01*
X136286871Y-110388606D01*
X136217647Y-110404591D01*
X136193027Y-110410277D01*
X136193023Y-110410278D01*
X136193019Y-110410279D01*
X136193006Y-110410282D01*
X136113367Y-110431851D01*
X136032758Y-110473836D01*
X135944000Y-110549766D01*
X135935485Y-110552540D01*
X135928121Y-110549148D01*
X135816150Y-110437177D01*
X135812723Y-110428904D01*
X135815530Y-110421301D01*
X135891464Y-110332537D01*
X135933447Y-110251929D01*
X135955021Y-110172271D01*
X135976691Y-110078426D01*
X135976853Y-110077860D01*
X136015212Y-109965842D01*
X136021134Y-109959128D01*
X136030072Y-109958566D01*
X136030708Y-109958805D01*
G37*
%TD.AperFunction*%
%TD*%
%TA.AperFunction,Conductor*%
%TO.N,/TS1*%
G36*
X149541503Y-115527616D02*
G01*
X149547815Y-115533968D01*
X149547788Y-115542923D01*
X149547499Y-115543559D01*
X149495424Y-115649872D01*
X149495131Y-115650399D01*
X149444087Y-115732097D01*
X149403024Y-115803667D01*
X149375712Y-115890352D01*
X149366641Y-116006809D01*
X149362582Y-116014791D01*
X149354976Y-116017600D01*
X149196624Y-116017600D01*
X149188351Y-116014173D01*
X149184959Y-116006809D01*
X149175887Y-115890353D01*
X149148575Y-115803667D01*
X149107503Y-115732086D01*
X149056466Y-115650399D01*
X149056179Y-115649884D01*
X149004098Y-115543557D01*
X149003537Y-115534621D01*
X149009459Y-115527905D01*
X149010062Y-115527630D01*
X149271290Y-115418483D01*
X149280244Y-115418457D01*
X149541503Y-115527616D01*
G37*
%TD.AperFunction*%
%TD*%
%TA.AperFunction,Conductor*%
%TO.N,/LEDCNTLA*%
G36*
X166404757Y-132896363D02*
G01*
X166408184Y-132904636D01*
X166408144Y-132905608D01*
X166397332Y-133035296D01*
X166396763Y-133038051D01*
X166364888Y-133132910D01*
X166363799Y-133135253D01*
X166315860Y-133214242D01*
X166315765Y-133214393D01*
X166256026Y-133306389D01*
X166194809Y-133429648D01*
X166188060Y-133435534D01*
X166179886Y-133435267D01*
X165917309Y-133327451D01*
X165910960Y-133321142D01*
X165803316Y-133060328D01*
X165803327Y-133051375D01*
X165809667Y-133045051D01*
X165811610Y-133044440D01*
X165922783Y-133019986D01*
X165925430Y-133019715D01*
X166041186Y-133021148D01*
X166138353Y-133021016D01*
X166204667Y-132988535D01*
X166225948Y-132905608D01*
X166226944Y-132901728D01*
X166232320Y-132894566D01*
X166238277Y-132892936D01*
X166396484Y-132892936D01*
X166404757Y-132896363D01*
G37*
%TD.AperFunction*%
%TD*%
%TA.AperFunction,Conductor*%
%TO.N,/PIN15*%
G36*
X164349249Y-119748627D02*
G01*
X164352640Y-119755989D01*
X164361712Y-119872446D01*
X164389024Y-119959131D01*
X164402844Y-119983217D01*
X164430091Y-120030708D01*
X164481127Y-120112391D01*
X164481420Y-120112918D01*
X164533500Y-120219240D01*
X164534062Y-120228177D01*
X164528140Y-120234894D01*
X164527504Y-120235183D01*
X164266311Y-120344315D01*
X164257356Y-120344342D01*
X164257289Y-120344315D01*
X163996095Y-120235183D01*
X163989783Y-120228831D01*
X163989810Y-120219876D01*
X163990087Y-120219264D01*
X164042183Y-120112906D01*
X164042465Y-120112399D01*
X164093503Y-120030713D01*
X164134575Y-119959131D01*
X164161887Y-119872446D01*
X164170959Y-119755990D01*
X164175018Y-119748009D01*
X164182624Y-119745200D01*
X164340976Y-119745200D01*
X164349249Y-119748627D01*
G37*
%TD.AperFunction*%
%TD*%
%TA.AperFunction,Conductor*%
%TO.N,Net-(Q7-D)*%
G36*
X131557333Y-108359894D02*
G01*
X131704846Y-108363547D01*
X131705394Y-108363587D01*
X131817447Y-108377411D01*
X131819189Y-108377763D01*
X131913786Y-108404569D01*
X131914376Y-108404771D01*
X132021411Y-108448099D01*
X132158771Y-108506514D01*
X132165043Y-108512905D01*
X132165015Y-108521725D01*
X132056497Y-108786014D01*
X132053928Y-108789863D01*
X131851504Y-108991338D01*
X131843223Y-108994745D01*
X131834957Y-108991299D01*
X131834281Y-108990558D01*
X131778229Y-108923638D01*
X131777832Y-108923103D01*
X131734568Y-108857198D01*
X131734567Y-108857196D01*
X131693636Y-108805405D01*
X131636747Y-108771658D01*
X131636746Y-108771657D01*
X131636747Y-108771657D01*
X131555590Y-108760942D01*
X131547837Y-108756462D01*
X131545422Y-108749343D01*
X131545422Y-108371592D01*
X131548849Y-108363319D01*
X131557122Y-108359892D01*
X131557333Y-108359894D01*
G37*
%TD.AperFunction*%
%TD*%
%TA.AperFunction,Conductor*%
%TO.N,/PIN17*%
G36*
X155052849Y-113982827D02*
G01*
X155056240Y-113990189D01*
X155065312Y-114106646D01*
X155092624Y-114193331D01*
X155106444Y-114217417D01*
X155133691Y-114264908D01*
X155184727Y-114346591D01*
X155185020Y-114347118D01*
X155237100Y-114453440D01*
X155237662Y-114462377D01*
X155231740Y-114469094D01*
X155231104Y-114469383D01*
X154969911Y-114578515D01*
X154960956Y-114578542D01*
X154960889Y-114578515D01*
X154699695Y-114469383D01*
X154693383Y-114463031D01*
X154693410Y-114454076D01*
X154693687Y-114453464D01*
X154745783Y-114347106D01*
X154746065Y-114346599D01*
X154797103Y-114264913D01*
X154838175Y-114193331D01*
X154865487Y-114106646D01*
X154874559Y-113990190D01*
X154878618Y-113982209D01*
X154886224Y-113979400D01*
X155044576Y-113979400D01*
X155052849Y-113982827D01*
G37*
%TD.AperFunction*%
%TD*%
%TA.AperFunction,Conductor*%
%TO.N,Net-(Q9-G)*%
G36*
X130020923Y-111843610D02*
G01*
X130021545Y-111843893D01*
X130127884Y-111895979D01*
X130128399Y-111896266D01*
X130209761Y-111947100D01*
X130210086Y-111947303D01*
X130281667Y-111988375D01*
X130368353Y-112015687D01*
X130484809Y-112024759D01*
X130492791Y-112028818D01*
X130495600Y-112036424D01*
X130495600Y-112194775D01*
X130492173Y-112203048D01*
X130484809Y-112206440D01*
X130368352Y-112215512D01*
X130281667Y-112242824D01*
X130210097Y-112283887D01*
X130128399Y-112334931D01*
X130127872Y-112335224D01*
X130021559Y-112387299D01*
X130012622Y-112387861D01*
X130005905Y-112381939D01*
X130005616Y-112381303D01*
X129896483Y-112120109D01*
X129896457Y-112111156D01*
X129896462Y-112111142D01*
X130005618Y-111849892D01*
X130011968Y-111843583D01*
X130020923Y-111843610D01*
G37*
%TD.AperFunction*%
%TD*%
%TA.AperFunction,Conductor*%
%TO.N,Net-(Q8-G)*%
G36*
X126453331Y-109352329D02*
G01*
X126578255Y-109357777D01*
X126578818Y-109357831D01*
X126639214Y-109366730D01*
X126675329Y-109372053D01*
X126675624Y-109372104D01*
X126758961Y-109389124D01*
X126846544Y-109402029D01*
X126855904Y-109403409D01*
X126861927Y-109403671D01*
X126982056Y-109408911D01*
X126990170Y-109412695D01*
X126993244Y-109420600D01*
X126993244Y-109579137D01*
X126989817Y-109587410D01*
X126983068Y-109590737D01*
X126888831Y-109603121D01*
X126823708Y-109641544D01*
X126823703Y-109641548D01*
X126776800Y-109700556D01*
X126776799Y-109700556D01*
X126727213Y-109775779D01*
X126726811Y-109776318D01*
X126661520Y-109854168D01*
X126653578Y-109858305D01*
X126645037Y-109855615D01*
X126644301Y-109854943D01*
X126443662Y-109655246D01*
X126440216Y-109646981D01*
X126440216Y-109646914D01*
X126440362Y-109603121D01*
X126441159Y-109363979D01*
X126444613Y-109355718D01*
X126452898Y-109352319D01*
X126453331Y-109352329D01*
G37*
%TD.AperFunction*%
%TD*%
%TA.AperFunction,Conductor*%
%TO.N,/SR_N*%
G36*
X111620544Y-119523591D02*
G01*
X111882490Y-119631148D01*
X111888839Y-119637457D01*
X111937873Y-119756262D01*
X111996769Y-119898962D01*
X111996758Y-119907917D01*
X111990418Y-119914241D01*
X111989088Y-119914699D01*
X111895797Y-119940634D01*
X111894146Y-119940967D01*
X111799448Y-119953068D01*
X111722359Y-119969253D01*
X111722357Y-119969254D01*
X111670856Y-120010883D01*
X111654065Y-120090147D01*
X111648998Y-120097530D01*
X111642619Y-120099422D01*
X111487834Y-120099422D01*
X111479561Y-120095995D01*
X111476156Y-120088431D01*
X111473402Y-120042961D01*
X111473392Y-120042503D01*
X111475464Y-119951284D01*
X111475501Y-119950757D01*
X111476652Y-119940860D01*
X111487618Y-119846581D01*
X111487953Y-119844853D01*
X111511974Y-119756870D01*
X111512174Y-119756272D01*
X111551694Y-119656697D01*
X111605328Y-119529855D01*
X111611704Y-119523573D01*
X111620544Y-119523591D01*
G37*
%TD.AperFunction*%
%TD*%
%TA.AperFunction,Conductor*%
%TO.N,/PIN21*%
G36*
X162266449Y-129883227D02*
G01*
X162269840Y-129890589D01*
X162278912Y-130007046D01*
X162306224Y-130093731D01*
X162320044Y-130117817D01*
X162347291Y-130165308D01*
X162398327Y-130246991D01*
X162398620Y-130247518D01*
X162450700Y-130353840D01*
X162451262Y-130362777D01*
X162445340Y-130369494D01*
X162444704Y-130369783D01*
X162183511Y-130478915D01*
X162174556Y-130478942D01*
X162174489Y-130478915D01*
X161913295Y-130369783D01*
X161906983Y-130363431D01*
X161907010Y-130354476D01*
X161907287Y-130353864D01*
X161959383Y-130247506D01*
X161959665Y-130246999D01*
X162010703Y-130165313D01*
X162051775Y-130093731D01*
X162079087Y-130007046D01*
X162088159Y-129890590D01*
X162092218Y-129882609D01*
X162099824Y-129879800D01*
X162258176Y-129879800D01*
X162266449Y-129883227D01*
G37*
%TD.AperFunction*%
%TD*%
%TA.AperFunction,Conductor*%
%TO.N,/BAT+*%
G36*
X137202094Y-117513459D02*
G01*
X137202380Y-117514089D01*
X137221759Y-117560470D01*
X137311515Y-117775289D01*
X137311542Y-117784244D01*
X137311515Y-117784311D01*
X137202383Y-118045504D01*
X137196031Y-118051816D01*
X137187076Y-118051789D01*
X137186440Y-118051500D01*
X137080118Y-117999420D01*
X137079591Y-117999127D01*
X136997908Y-117948091D01*
X136950417Y-117920844D01*
X136926331Y-117907024D01*
X136839646Y-117879712D01*
X136839645Y-117879712D01*
X136723191Y-117870640D01*
X136715209Y-117866581D01*
X136712400Y-117858975D01*
X136712400Y-117700624D01*
X136715827Y-117692351D01*
X136723190Y-117688959D01*
X136839646Y-117679887D01*
X136926331Y-117652575D01*
X136997913Y-117611503D01*
X137079599Y-117560465D01*
X137080106Y-117560183D01*
X137186442Y-117508098D01*
X137195378Y-117507537D01*
X137202094Y-117513459D01*
G37*
%TD.AperFunction*%
%TD*%
%TA.AperFunction,Conductor*%
%TO.N,/SMBC*%
G36*
X146799873Y-108901934D02*
G01*
X146911844Y-109013905D01*
X146915271Y-109022178D01*
X146912462Y-109029784D01*
X146836532Y-109118542D01*
X146794547Y-109199151D01*
X146772978Y-109278790D01*
X146772975Y-109278803D01*
X146751302Y-109372655D01*
X146751138Y-109373229D01*
X146741557Y-109401208D01*
X146712783Y-109485238D01*
X146706861Y-109491955D01*
X146697924Y-109492517D01*
X146697270Y-109492271D01*
X146435411Y-109384747D01*
X146429059Y-109378435D01*
X146429032Y-109378368D01*
X146388149Y-109278803D01*
X146321508Y-109116507D01*
X146321535Y-109107554D01*
X146327887Y-109101242D01*
X146328522Y-109101002D01*
X146440556Y-109062637D01*
X146441125Y-109062475D01*
X146534967Y-109040805D01*
X146614625Y-109019231D01*
X146695233Y-108977248D01*
X146783997Y-108901314D01*
X146792509Y-108898542D01*
X146799873Y-108901934D01*
G37*
%TD.AperFunction*%
%TD*%
%TA.AperFunction,Conductor*%
%TO.N,/SMBD*%
G36*
X154982094Y-109436259D02*
G01*
X154982380Y-109436889D01*
X155001759Y-109483270D01*
X155091515Y-109698089D01*
X155091542Y-109707044D01*
X155091515Y-109707111D01*
X154982383Y-109968304D01*
X154976031Y-109974616D01*
X154967076Y-109974589D01*
X154966440Y-109974300D01*
X154860118Y-109922220D01*
X154859591Y-109921927D01*
X154777908Y-109870891D01*
X154730417Y-109843644D01*
X154706331Y-109829824D01*
X154619646Y-109802512D01*
X154503191Y-109793440D01*
X154495209Y-109789381D01*
X154492400Y-109781775D01*
X154492400Y-109623424D01*
X154495827Y-109615151D01*
X154503190Y-109611759D01*
X154619646Y-109602687D01*
X154706331Y-109575375D01*
X154777913Y-109534303D01*
X154859599Y-109483265D01*
X154860106Y-109482983D01*
X154966442Y-109430898D01*
X154975378Y-109430337D01*
X154982094Y-109436259D01*
G37*
%TD.AperFunction*%
%TD*%
%TA.AperFunction,Conductor*%
%TO.N,/TS1*%
G36*
X133005649Y-141135427D02*
G01*
X133009040Y-141142789D01*
X133018112Y-141259246D01*
X133045424Y-141345931D01*
X133059244Y-141370017D01*
X133086491Y-141417508D01*
X133137527Y-141499191D01*
X133137820Y-141499718D01*
X133189900Y-141606040D01*
X133190462Y-141614977D01*
X133184540Y-141621694D01*
X133183904Y-141621983D01*
X132922710Y-141731115D01*
X132913755Y-141731142D01*
X132913702Y-141731120D01*
X132652494Y-141621982D01*
X132646183Y-141615631D01*
X132646210Y-141606676D01*
X132646487Y-141606064D01*
X132698583Y-141499706D01*
X132698865Y-141499199D01*
X132749903Y-141417513D01*
X132790975Y-141345931D01*
X132818287Y-141259246D01*
X132827359Y-141142790D01*
X132831418Y-141134809D01*
X132839024Y-141132000D01*
X132997376Y-141132000D01*
X133005649Y-141135427D01*
G37*
%TD.AperFunction*%
%TD*%
%TA.AperFunction,Conductor*%
%TO.N,/SR_P*%
G36*
X147355498Y-117343714D02*
G01*
X147554597Y-117543751D01*
X147558004Y-117552033D01*
X147554558Y-117560298D01*
X147553187Y-117561466D01*
X147468319Y-117623204D01*
X147465862Y-117624574D01*
X147406178Y-117648963D01*
X147374650Y-117661847D01*
X147374636Y-117661852D01*
X147296451Y-117694025D01*
X147242355Y-117747751D01*
X147224011Y-117840758D01*
X147219048Y-117848212D01*
X147212532Y-117850194D01*
X147053947Y-117850194D01*
X147045674Y-117846767D01*
X147042247Y-117838494D01*
X147042247Y-117838398D01*
X147043184Y-117723976D01*
X147045652Y-117634417D01*
X147046079Y-117623204D01*
X147048597Y-117557077D01*
X147051065Y-117467519D01*
X147052005Y-117352864D01*
X147055500Y-117344620D01*
X147063664Y-117341261D01*
X147347214Y-117340316D01*
X147355498Y-117343714D01*
G37*
%TD.AperFunction*%
%TD*%
%TA.AperFunction,Conductor*%
%TO.N,Net-(Q12-D)*%
G36*
X130166294Y-113703459D02*
G01*
X130166580Y-113704089D01*
X130185892Y-113750310D01*
X130275715Y-113965288D01*
X130275742Y-113974243D01*
X130275715Y-113974310D01*
X130166583Y-114235504D01*
X130160231Y-114241816D01*
X130151276Y-114241789D01*
X130150640Y-114241500D01*
X130044318Y-114189420D01*
X130043791Y-114189127D01*
X129962108Y-114138091D01*
X129914617Y-114110844D01*
X129890531Y-114097024D01*
X129803846Y-114069712D01*
X129803845Y-114069712D01*
X129687390Y-114060640D01*
X129679408Y-114056581D01*
X129676600Y-114048977D01*
X129676600Y-113890621D01*
X129680026Y-113882351D01*
X129687388Y-113878959D01*
X129803846Y-113869887D01*
X129890531Y-113842575D01*
X129962113Y-113801503D01*
X130043799Y-113750465D01*
X130044306Y-113750183D01*
X130150642Y-113698098D01*
X130159578Y-113697537D01*
X130166294Y-113703459D01*
G37*
%TD.AperFunction*%
%TD*%
%TA.AperFunction,Conductor*%
%TO.N,/PIN17*%
G36*
X148029523Y-111691210D02*
G01*
X148030145Y-111691493D01*
X148136484Y-111743579D01*
X148136999Y-111743866D01*
X148218361Y-111794700D01*
X148218686Y-111794903D01*
X148290267Y-111835975D01*
X148376953Y-111863287D01*
X148493409Y-111872359D01*
X148501391Y-111876418D01*
X148504200Y-111884024D01*
X148504200Y-112042375D01*
X148500773Y-112050648D01*
X148493409Y-112054040D01*
X148376952Y-112063112D01*
X148290267Y-112090424D01*
X148218697Y-112131487D01*
X148136999Y-112182531D01*
X148136472Y-112182824D01*
X148030159Y-112234899D01*
X148021222Y-112235461D01*
X148014505Y-112229539D01*
X148014216Y-112228903D01*
X147905083Y-111967709D01*
X147905057Y-111958755D01*
X148014218Y-111697492D01*
X148020568Y-111691183D01*
X148029523Y-111691210D01*
G37*
%TD.AperFunction*%
%TD*%
%TA.AperFunction,Conductor*%
%TO.N,/PIN16*%
G36*
X147348600Y-106488433D02*
G01*
X147384495Y-106519139D01*
X147437361Y-106564364D01*
X147517969Y-106606347D01*
X147597627Y-106627921D01*
X147691481Y-106649594D01*
X147692027Y-106649749D01*
X147804055Y-106688112D01*
X147810771Y-106694034D01*
X147811333Y-106702972D01*
X147811087Y-106703625D01*
X147703563Y-106965484D01*
X147697251Y-106971836D01*
X147697184Y-106971863D01*
X147435325Y-107079387D01*
X147426370Y-107079360D01*
X147420058Y-107073008D01*
X147419812Y-107072355D01*
X147381449Y-106960327D01*
X147381294Y-106959781D01*
X147359621Y-106865927D01*
X147338047Y-106786269D01*
X147296064Y-106705661D01*
X147248098Y-106649591D01*
X147220133Y-106616900D01*
X147217359Y-106608385D01*
X147220750Y-106601022D01*
X147332722Y-106489050D01*
X147340994Y-106485624D01*
X147348600Y-106488433D01*
G37*
%TD.AperFunction*%
%TD*%
%TA.AperFunction,Conductor*%
%TO.N,Net-(Q12-G)*%
G36*
X126968838Y-119625956D02*
G01*
X126975162Y-119632296D01*
X126975687Y-119633879D01*
X127001033Y-119733652D01*
X127001365Y-119735726D01*
X127008454Y-119838294D01*
X127018707Y-119923033D01*
X127018708Y-119923034D01*
X127056906Y-119980216D01*
X127138835Y-119999108D01*
X127146127Y-120004306D01*
X127147906Y-120010509D01*
X127147906Y-120168957D01*
X127144479Y-120177230D01*
X127136206Y-120180657D01*
X127135676Y-120180645D01*
X127002342Y-120174595D01*
X127000628Y-120174390D01*
X126900061Y-120154733D01*
X126898052Y-120154150D01*
X126813261Y-120121069D01*
X126812828Y-120120879D01*
X126763050Y-120096662D01*
X126716008Y-120073777D01*
X126715998Y-120073772D01*
X126715991Y-120073769D01*
X126590717Y-120017407D01*
X126584578Y-120010887D01*
X126584694Y-120002293D01*
X126593759Y-119980216D01*
X126692348Y-119740107D01*
X126698656Y-119733760D01*
X126959885Y-119625945D01*
X126968838Y-119625956D01*
G37*
%TD.AperFunction*%
%TD*%
%TA.AperFunction,Conductor*%
%TO.N,Net-(Q7-D)*%
G36*
X110172253Y-118115663D02*
G01*
X110308847Y-118125134D01*
X110310708Y-118125416D01*
X110390595Y-118144284D01*
X110414557Y-118149944D01*
X110415027Y-118150076D01*
X110474618Y-118169673D01*
X110504794Y-118179597D01*
X110504797Y-118179597D01*
X110504804Y-118179600D01*
X110609808Y-118204400D01*
X110748910Y-118214044D01*
X110756926Y-118218035D01*
X110759800Y-118225716D01*
X110759800Y-118603883D01*
X110756373Y-118612156D01*
X110748909Y-118615555D01*
X110609809Y-118625199D01*
X110504795Y-118650002D01*
X110504794Y-118650002D01*
X110415040Y-118679519D01*
X110414557Y-118679655D01*
X110310717Y-118704181D01*
X110308837Y-118704466D01*
X110172267Y-118713935D01*
X110163777Y-118711089D01*
X110159786Y-118703072D01*
X110159758Y-118702302D01*
X110159682Y-118679600D01*
X110158800Y-118414800D01*
X110159758Y-118127296D01*
X110163212Y-118119035D01*
X110171497Y-118115636D01*
X110172253Y-118115663D01*
G37*
%TD.AperFunction*%
%TD*%
%TA.AperFunction,Conductor*%
%TO.N,/PIN21*%
G36*
X143242073Y-107091420D02*
G01*
X143248384Y-107097771D01*
X143248357Y-107106726D01*
X143247963Y-107107571D01*
X143193468Y-107213416D01*
X143192577Y-107214874D01*
X143135535Y-107294489D01*
X143087085Y-107363877D01*
X143053660Y-107448980D01*
X143053659Y-107448984D01*
X143042232Y-107565886D01*
X143038017Y-107573787D01*
X143030588Y-107576448D01*
X142872216Y-107576448D01*
X142863943Y-107573021D01*
X142860537Y-107565452D01*
X142853683Y-107451702D01*
X142832179Y-107365404D01*
X142798257Y-107293464D01*
X142755175Y-107214874D01*
X142753573Y-107211951D01*
X142753404Y-107211618D01*
X142704608Y-107107356D01*
X142704205Y-107098411D01*
X142710246Y-107091800D01*
X142710694Y-107091601D01*
X142711130Y-107091419D01*
X142972090Y-106982383D01*
X142981044Y-106982357D01*
X143242073Y-107091420D01*
G37*
%TD.AperFunction*%
%TD*%
%TA.AperFunction,Conductor*%
%TO.N,Net-(Q12-G)*%
G36*
X135934584Y-112954673D02*
G01*
X136195803Y-113063816D01*
X136202115Y-113070168D01*
X136202088Y-113079123D01*
X136201799Y-113079759D01*
X136149724Y-113186072D01*
X136149431Y-113186599D01*
X136098387Y-113268297D01*
X136057324Y-113339867D01*
X136030012Y-113426552D01*
X136020941Y-113543009D01*
X136016882Y-113550991D01*
X136009276Y-113553800D01*
X135850924Y-113553800D01*
X135842651Y-113550373D01*
X135839259Y-113543009D01*
X135830187Y-113426553D01*
X135802875Y-113339867D01*
X135761803Y-113268286D01*
X135710766Y-113186599D01*
X135710479Y-113186084D01*
X135658398Y-113079757D01*
X135657837Y-113070821D01*
X135663759Y-113064105D01*
X135664362Y-113063830D01*
X135925590Y-112954683D01*
X135934543Y-112954657D01*
X135934584Y-112954673D01*
G37*
%TD.AperFunction*%
%TD*%
%TA.AperFunction,Conductor*%
%TO.N,/PIN20*%
G36*
X162369477Y-132666550D02*
G01*
X162481448Y-132778521D01*
X162484875Y-132786794D01*
X162482066Y-132794400D01*
X162406136Y-132883158D01*
X162364151Y-132963767D01*
X162342582Y-133043406D01*
X162342579Y-133043419D01*
X162320906Y-133137271D01*
X162320742Y-133137845D01*
X162311161Y-133165824D01*
X162282387Y-133249854D01*
X162276465Y-133256571D01*
X162267528Y-133257133D01*
X162266874Y-133256887D01*
X162005015Y-133149363D01*
X161998663Y-133143051D01*
X161998636Y-133142984D01*
X161957753Y-133043419D01*
X161891112Y-132881123D01*
X161891139Y-132872170D01*
X161897491Y-132865858D01*
X161898126Y-132865618D01*
X162010160Y-132827253D01*
X162010729Y-132827091D01*
X162104571Y-132805421D01*
X162184229Y-132783847D01*
X162264837Y-132741864D01*
X162353601Y-132665930D01*
X162362113Y-132663158D01*
X162369477Y-132666550D01*
G37*
%TD.AperFunction*%
%TD*%
%TA.AperFunction,Conductor*%
%TO.N,/PACK+*%
G36*
X136799714Y-110710104D02*
G01*
X136806026Y-110716456D01*
X136806244Y-110717028D01*
X136845153Y-110827963D01*
X136845300Y-110828448D01*
X136868928Y-110920719D01*
X136868930Y-110920725D01*
X136892877Y-110998719D01*
X136892877Y-110998720D01*
X136936679Y-111077817D01*
X136936678Y-111077817D01*
X136936682Y-111077822D01*
X136936683Y-111077823D01*
X136957192Y-111101444D01*
X137012825Y-111165519D01*
X137015661Y-111174013D01*
X137012263Y-111181463D01*
X136886263Y-111307463D01*
X136877990Y-111310890D01*
X136870319Y-111308025D01*
X136782617Y-111231878D01*
X136703519Y-111188077D01*
X136703518Y-111188076D01*
X136703517Y-111188076D01*
X136625539Y-111164134D01*
X136625533Y-111164132D01*
X136625525Y-111164130D01*
X136625519Y-111164128D01*
X136533248Y-111140500D01*
X136532763Y-111140353D01*
X136421828Y-111101444D01*
X136415155Y-111095472D01*
X136414659Y-111086531D01*
X136414863Y-111085995D01*
X136522436Y-110824014D01*
X136528746Y-110817664D01*
X136790761Y-110710077D01*
X136799714Y-110710104D01*
G37*
%TD.AperFunction*%
%TD*%
%TA.AperFunction,Conductor*%
%TO.N,/PACK+*%
G36*
X126817318Y-120508534D02*
G01*
X126817838Y-120508767D01*
X126923521Y-120559235D01*
X126923919Y-120559446D01*
X127005876Y-120607091D01*
X127077996Y-120644276D01*
X127164854Y-120668405D01*
X127280318Y-120676258D01*
X127288339Y-120680238D01*
X127291224Y-120687931D01*
X127291224Y-120866127D01*
X127287797Y-120874400D01*
X127280381Y-120877796D01*
X127164481Y-120886304D01*
X127077784Y-120912146D01*
X127006020Y-120951411D01*
X127006000Y-120951422D01*
X126924270Y-121000864D01*
X126923791Y-121001124D01*
X126817880Y-121052411D01*
X126808941Y-121052933D01*
X126802251Y-121046980D01*
X126801985Y-121046392D01*
X126783020Y-121001002D01*
X126692830Y-120785146D01*
X126692804Y-120776192D01*
X126802011Y-120514818D01*
X126808363Y-120508507D01*
X126817318Y-120508534D01*
G37*
%TD.AperFunction*%
%TD*%
%TA.AperFunction,Conductor*%
%TO.N,/SMBC*%
G36*
X156400642Y-110076770D02*
G01*
X156454101Y-110125752D01*
X156482888Y-110152128D01*
X156555139Y-110201354D01*
X156625602Y-110232918D01*
X156705569Y-110261035D01*
X156710686Y-110262834D01*
X156710816Y-110262882D01*
X156815815Y-110302920D01*
X156822324Y-110309070D01*
X156822578Y-110318021D01*
X156822469Y-110318296D01*
X156714786Y-110580544D01*
X156708474Y-110586896D01*
X156708407Y-110586923D01*
X156446988Y-110694266D01*
X156438033Y-110694239D01*
X156431721Y-110687887D01*
X156431341Y-110686816D01*
X156400709Y-110585067D01*
X156396712Y-110571792D01*
X156396288Y-110569705D01*
X156385410Y-110470413D01*
X156383081Y-110447194D01*
X156376734Y-110383878D01*
X156345075Y-110297271D01*
X156345075Y-110297270D01*
X156271588Y-110204653D01*
X156269130Y-110196042D01*
X156272479Y-110189109D01*
X156384466Y-110077122D01*
X156392738Y-110073696D01*
X156400642Y-110076770D01*
G37*
%TD.AperFunction*%
%TD*%
%TA.AperFunction,Conductor*%
%TO.N,/LEDCNTLA*%
G36*
X166584903Y-129446816D02*
G01*
X166591215Y-129453168D01*
X166591188Y-129462123D01*
X166590899Y-129462759D01*
X166538824Y-129569072D01*
X166538531Y-129569599D01*
X166487487Y-129651297D01*
X166446424Y-129722867D01*
X166419112Y-129809552D01*
X166410041Y-129926009D01*
X166405982Y-129933991D01*
X166398376Y-129936800D01*
X166240024Y-129936800D01*
X166231751Y-129933373D01*
X166228359Y-129926009D01*
X166219287Y-129809553D01*
X166191975Y-129722867D01*
X166150903Y-129651286D01*
X166099866Y-129569599D01*
X166099579Y-129569084D01*
X166047498Y-129462757D01*
X166046937Y-129453821D01*
X166052859Y-129447105D01*
X166053462Y-129446830D01*
X166314690Y-129337683D01*
X166323644Y-129337657D01*
X166584903Y-129446816D01*
G37*
%TD.AperFunction*%
%TD*%
%TA.AperFunction,Conductor*%
%TO.N,/PIN20*%
G36*
X144817103Y-107091516D02*
G01*
X144823415Y-107097868D01*
X144823388Y-107106823D01*
X144823099Y-107107459D01*
X144771024Y-107213772D01*
X144770731Y-107214299D01*
X144719687Y-107295997D01*
X144678624Y-107367567D01*
X144651312Y-107454252D01*
X144642241Y-107570709D01*
X144638182Y-107578691D01*
X144630576Y-107581500D01*
X144472224Y-107581500D01*
X144463951Y-107578073D01*
X144460559Y-107570709D01*
X144451487Y-107454253D01*
X144424175Y-107367567D01*
X144383103Y-107295986D01*
X144332066Y-107214299D01*
X144331779Y-107213784D01*
X144279698Y-107107457D01*
X144279137Y-107098521D01*
X144285059Y-107091805D01*
X144285662Y-107091530D01*
X144546890Y-106982383D01*
X144555844Y-106982357D01*
X144817103Y-107091516D01*
G37*
%TD.AperFunction*%
%TD*%
%TA.AperFunction,Conductor*%
%TO.N,/SR_N*%
G36*
X146802433Y-117373360D02*
G01*
X146810694Y-117376814D01*
X146814093Y-117385099D01*
X146814091Y-117385266D01*
X146811998Y-117504364D01*
X146811989Y-117504606D01*
X146806505Y-117597411D01*
X146806496Y-117597539D01*
X146799946Y-117677699D01*
X146798473Y-117702620D01*
X146794452Y-117770663D01*
X146794452Y-117770665D01*
X146792352Y-117890262D01*
X146788781Y-117898474D01*
X146780654Y-117901757D01*
X146622056Y-117901757D01*
X146613783Y-117898330D01*
X146610516Y-117891987D01*
X146594941Y-117798878D01*
X146548125Y-117739886D01*
X146548124Y-117739885D01*
X146517517Y-117722560D01*
X146478915Y-117700710D01*
X146478900Y-117700702D01*
X146478887Y-117700695D01*
X146395488Y-117657778D01*
X146393664Y-117656614D01*
X146312615Y-117593648D01*
X146308184Y-117585867D01*
X146310554Y-117577231D01*
X146311492Y-117576163D01*
X146510855Y-117375861D01*
X146519117Y-117372416D01*
X146802433Y-117373360D01*
G37*
%TD.AperFunction*%
%TD*%
%TA.AperFunction,Conductor*%
%TO.N,/PIN22*%
G36*
X161529849Y-127292427D02*
G01*
X161533240Y-127299789D01*
X161542312Y-127416246D01*
X161569624Y-127502931D01*
X161583444Y-127527017D01*
X161610691Y-127574508D01*
X161661727Y-127656191D01*
X161662020Y-127656718D01*
X161714100Y-127763040D01*
X161714662Y-127771977D01*
X161708740Y-127778694D01*
X161708104Y-127778983D01*
X161446911Y-127888115D01*
X161437956Y-127888142D01*
X161437889Y-127888115D01*
X161176695Y-127778983D01*
X161170383Y-127772631D01*
X161170410Y-127763676D01*
X161170687Y-127763064D01*
X161222783Y-127656706D01*
X161223065Y-127656199D01*
X161274103Y-127574513D01*
X161315175Y-127502931D01*
X161342487Y-127416246D01*
X161351559Y-127299790D01*
X161355618Y-127291809D01*
X161363224Y-127289000D01*
X161521576Y-127289000D01*
X161529849Y-127292427D01*
G37*
%TD.AperFunction*%
%TD*%
%TA.AperFunction,Conductor*%
%TO.N,/PIN16*%
G36*
X134338923Y-119590610D02*
G01*
X134339545Y-119590893D01*
X134445884Y-119642979D01*
X134446399Y-119643266D01*
X134527761Y-119694100D01*
X134528086Y-119694303D01*
X134599667Y-119735375D01*
X134686353Y-119762687D01*
X134802809Y-119771759D01*
X134810791Y-119775818D01*
X134813600Y-119783424D01*
X134813600Y-119941775D01*
X134810173Y-119950048D01*
X134802809Y-119953440D01*
X134686352Y-119962512D01*
X134599667Y-119989824D01*
X134528097Y-120030887D01*
X134446399Y-120081931D01*
X134445872Y-120082224D01*
X134339559Y-120134299D01*
X134330622Y-120134861D01*
X134323905Y-120128939D01*
X134323616Y-120128303D01*
X134214483Y-119867109D01*
X134214457Y-119858156D01*
X134214462Y-119858142D01*
X134323618Y-119596892D01*
X134329968Y-119590583D01*
X134338923Y-119590610D01*
G37*
%TD.AperFunction*%
%TD*%
%TA.AperFunction,Conductor*%
%TO.N,/PIN15*%
G36*
X149541503Y-107104716D02*
G01*
X149547815Y-107111068D01*
X149547788Y-107120023D01*
X149547499Y-107120659D01*
X149495424Y-107226972D01*
X149495131Y-107227499D01*
X149444087Y-107309197D01*
X149403024Y-107380767D01*
X149375712Y-107467452D01*
X149366641Y-107583909D01*
X149362582Y-107591891D01*
X149354976Y-107594700D01*
X149196624Y-107594700D01*
X149188351Y-107591273D01*
X149184959Y-107583909D01*
X149175887Y-107467453D01*
X149148575Y-107380767D01*
X149107503Y-107309186D01*
X149056466Y-107227499D01*
X149056179Y-107226984D01*
X149004098Y-107120657D01*
X149003537Y-107111721D01*
X149009459Y-107105005D01*
X149010062Y-107104730D01*
X149271290Y-106995583D01*
X149280244Y-106995557D01*
X149541503Y-107104716D01*
G37*
%TD.AperFunction*%
%TD*%
%TA.AperFunction,Conductor*%
%TO.N,/SR_P*%
G36*
X111210823Y-119633963D02*
G01*
X111219085Y-119637417D01*
X111222463Y-119644956D01*
X111229111Y-119754737D01*
X111229111Y-119754741D01*
X111229112Y-119754743D01*
X111246541Y-119839522D01*
X111246544Y-119839533D01*
X111246545Y-119839537D01*
X111249523Y-119849961D01*
X111267294Y-119912154D01*
X111267400Y-119912583D01*
X111284619Y-119996336D01*
X111284838Y-119997985D01*
X111291349Y-120105489D01*
X111288428Y-120113954D01*
X111280377Y-120117875D01*
X111279670Y-120117896D01*
X111121310Y-120117896D01*
X111113037Y-120114469D01*
X111109937Y-120108944D01*
X111086728Y-120012879D01*
X111019889Y-119966790D01*
X111019887Y-119966789D01*
X110925610Y-119946060D01*
X110925355Y-119945997D01*
X110910318Y-119941958D01*
X110819267Y-119917501D01*
X110815873Y-119915978D01*
X110810711Y-119912583D01*
X110721637Y-119854003D01*
X110716610Y-119846597D01*
X110718292Y-119837801D01*
X110719769Y-119835983D01*
X110918355Y-119636461D01*
X110926617Y-119633016D01*
X111210823Y-119633963D01*
G37*
%TD.AperFunction*%
%TD*%
%TA.AperFunction,Conductor*%
%TO.N,/SMBD*%
G36*
X147267523Y-109430610D02*
G01*
X147268145Y-109430893D01*
X147374484Y-109482979D01*
X147374999Y-109483266D01*
X147456361Y-109534100D01*
X147456686Y-109534303D01*
X147528267Y-109575375D01*
X147614953Y-109602687D01*
X147731409Y-109611759D01*
X147739391Y-109615818D01*
X147742200Y-109623424D01*
X147742200Y-109781775D01*
X147738773Y-109790048D01*
X147731409Y-109793440D01*
X147614952Y-109802512D01*
X147528267Y-109829824D01*
X147456697Y-109870887D01*
X147374999Y-109921931D01*
X147374472Y-109922224D01*
X147268159Y-109974299D01*
X147259222Y-109974861D01*
X147252505Y-109968939D01*
X147252216Y-109968303D01*
X147143083Y-109707109D01*
X147143057Y-109698156D01*
X147143062Y-109698142D01*
X147252218Y-109436892D01*
X147258568Y-109430583D01*
X147267523Y-109430610D01*
G37*
%TD.AperFunction*%
%TD*%
%TA.AperFunction,Conductor*%
%TO.N,/PIN22*%
G36*
X141666446Y-107091101D02*
G01*
X141672770Y-107097441D01*
X141672759Y-107106396D01*
X141671986Y-107107928D01*
X141618367Y-107197234D01*
X141617079Y-107198985D01*
X141547811Y-107276885D01*
X141547776Y-107276926D01*
X141493252Y-107344300D01*
X141478589Y-107412037D01*
X141478590Y-107412039D01*
X141523264Y-107483998D01*
X141524716Y-107492834D01*
X141521597Y-107498442D01*
X141409576Y-107610463D01*
X141401303Y-107613890D01*
X141393030Y-107610463D01*
X141392629Y-107610042D01*
X141303352Y-107511409D01*
X141302222Y-107509942D01*
X141294733Y-107498442D01*
X141246497Y-107424368D01*
X141245495Y-107422466D01*
X141213093Y-107344300D01*
X141210620Y-107338333D01*
X141210479Y-107337955D01*
X141176743Y-107235505D01*
X141163072Y-107198985D01*
X141128586Y-107106858D01*
X141128895Y-107097908D01*
X141135029Y-107091962D01*
X141396595Y-106982671D01*
X141405548Y-106982645D01*
X141666446Y-107091101D01*
G37*
%TD.AperFunction*%
%TD*%
%TA.AperFunction,Conductor*%
%TO.N,Net-(Q9-G)*%
G36*
X136587049Y-113322427D02*
G01*
X136590440Y-113329789D01*
X136599512Y-113446246D01*
X136626824Y-113532931D01*
X136640644Y-113557017D01*
X136667891Y-113604508D01*
X136718927Y-113686191D01*
X136719220Y-113686718D01*
X136771300Y-113793040D01*
X136771862Y-113801977D01*
X136765940Y-113808694D01*
X136765304Y-113808983D01*
X136504111Y-113918115D01*
X136495156Y-113918142D01*
X136495089Y-113918115D01*
X136233895Y-113808983D01*
X136227583Y-113802631D01*
X136227610Y-113793676D01*
X136227887Y-113793064D01*
X136279983Y-113686706D01*
X136280265Y-113686199D01*
X136331303Y-113604513D01*
X136372375Y-113532931D01*
X136399687Y-113446246D01*
X136408759Y-113329790D01*
X136412818Y-113321809D01*
X136420424Y-113319000D01*
X136578776Y-113319000D01*
X136587049Y-113322427D01*
G37*
%TD.AperFunction*%
%TD*%
%TA.AperFunction,Conductor*%
%TO.N,Net-(Q8-G)*%
G36*
X137933246Y-115069836D02*
G01*
X137936638Y-115077204D01*
X137947072Y-115211636D01*
X137947072Y-115211639D01*
X137947072Y-115211642D01*
X137947073Y-115211643D01*
X137973956Y-115312963D01*
X138005947Y-115399385D01*
X138006112Y-115399906D01*
X138032652Y-115499935D01*
X138033008Y-115502030D01*
X138043224Y-115633637D01*
X138040448Y-115642150D01*
X138032464Y-115646207D01*
X138031598Y-115646242D01*
X137746567Y-115647192D01*
X137742017Y-115646288D01*
X137741823Y-115646207D01*
X137479418Y-115536568D01*
X137473107Y-115530217D01*
X137473134Y-115521262D01*
X137473847Y-115519838D01*
X137536497Y-115413551D01*
X137538391Y-115411133D01*
X137613826Y-115337403D01*
X137614029Y-115337216D01*
X137684317Y-115275493D01*
X137735822Y-115195586D01*
X137754267Y-115076320D01*
X137758919Y-115068669D01*
X137765830Y-115066409D01*
X137924973Y-115066409D01*
X137933246Y-115069836D01*
G37*
%TD.AperFunction*%
%TD*%
M02*
