%TF.GenerationSoftware,KiCad,Pcbnew,7.0.5*%
%TF.CreationDate,2023-06-27T23:48:28+08:00*%
%TF.ProjectId,BQ40Z80,42513430-5a38-4302-9e6b-696361645f70,rev?*%
%TF.SameCoordinates,Original*%
%TF.FileFunction,Copper,L4,Bot*%
%TF.FilePolarity,Positive*%
%FSLAX46Y46*%
G04 Gerber Fmt 4.6, Leading zero omitted, Abs format (unit mm)*
G04 Created by KiCad (PCBNEW 7.0.5) date 2023-06-27 23:48:28*
%MOMM*%
%LPD*%
G01*
G04 APERTURE LIST*
G04 Aperture macros list*
%AMRoundRect*
0 Rectangle with rounded corners*
0 $1 Rounding radius*
0 $2 $3 $4 $5 $6 $7 $8 $9 X,Y pos of 4 corners*
0 Add a 4 corners polygon primitive as box body*
4,1,4,$2,$3,$4,$5,$6,$7,$8,$9,$2,$3,0*
0 Add four circle primitives for the rounded corners*
1,1,$1+$1,$2,$3*
1,1,$1+$1,$4,$5*
1,1,$1+$1,$6,$7*
1,1,$1+$1,$8,$9*
0 Add four rect primitives between the rounded corners*
20,1,$1+$1,$2,$3,$4,$5,0*
20,1,$1+$1,$4,$5,$6,$7,0*
20,1,$1+$1,$6,$7,$8,$9,0*
20,1,$1+$1,$8,$9,$2,$3,0*%
G04 Aperture macros list end*
%TA.AperFunction,ComponentPad*%
%ADD10R,0.900000X2.000000*%
%TD*%
%TA.AperFunction,ComponentPad*%
%ADD11RoundRect,1.025000X1.025000X1.025000X-1.025000X1.025000X-1.025000X-1.025000X1.025000X-1.025000X0*%
%TD*%
%TA.AperFunction,ComponentPad*%
%ADD12C,4.100000*%
%TD*%
%TA.AperFunction,ComponentPad*%
%ADD13R,1.700000X1.700000*%
%TD*%
%TA.AperFunction,ComponentPad*%
%ADD14O,1.700000X1.700000*%
%TD*%
%TA.AperFunction,SMDPad,CuDef*%
%ADD15RoundRect,0.200000X-0.300000X0.050000X-0.300000X-0.050000X0.300000X-0.050000X0.300000X0.050000X0*%
%TD*%
%TA.AperFunction,ViaPad*%
%ADD16C,0.600000*%
%TD*%
%TA.AperFunction,Conductor*%
%ADD17C,0.180000*%
%TD*%
G04 APERTURE END LIST*
%TA.AperFunction,EtchedComponent*%
%TO.C,NT2*%
G36*
X109008800Y-125264800D02*
G01*
X108008800Y-125264800D01*
X108008800Y-124264800D01*
X109008800Y-124264800D01*
X109008800Y-125264800D01*
G37*
%TD.AperFunction*%
%TD*%
D10*
%TO.P,J5,*%
%TO.N,*%
X125596600Y-137729200D03*
X112096600Y-137729200D03*
D11*
%TO.P,J5,1,Pin_1*%
%TO.N,/PACK-*%
X115246600Y-131729200D03*
D12*
%TO.P,J5,2,Pin_2*%
%TO.N,/PACK+*%
X122446600Y-131729200D03*
%TD*%
D13*
%TO.P,J4,1,Pin_1*%
%TO.N,/PIN12*%
X155981400Y-102108000D03*
D14*
%TO.P,J4,2,Pin_2*%
%TO.N,/PIN13*%
X153441400Y-102108000D03*
%TO.P,J4,3,Pin_3*%
%TO.N,/PIN15*%
X150901400Y-102108000D03*
%TO.P,J4,4,Pin_4*%
%TO.N,/PIN16*%
X148361400Y-102108000D03*
%TO.P,J4,5,Pin_5*%
%TO.N,/PIN17*%
X145821400Y-102108000D03*
%TO.P,J4,6,Pin_6*%
%TO.N,/PIN20*%
X143281400Y-102108000D03*
%TO.P,J4,7,Pin_7*%
%TO.N,/PIN21*%
X140741400Y-102108000D03*
%TO.P,J4,8,Pin_8*%
%TO.N,/PIN22*%
X138201400Y-102108000D03*
%TD*%
D15*
%TO.P,NT2,1,1*%
%TO.N,GND*%
X108508800Y-124264800D03*
%TO.P,NT2,2,2*%
%TO.N,GNDPWR*%
X108508800Y-125264800D03*
%TD*%
D16*
%TO.N,GND*%
X134467600Y-134975600D03*
X151815800Y-144373600D03*
X146633800Y-113131200D03*
X135813800Y-101498400D03*
X160274000Y-125069600D03*
X145744800Y-113131200D03*
X167792400Y-111683800D03*
X146633800Y-114020200D03*
X114604800Y-122402600D03*
X135813800Y-103632000D03*
X166827200Y-122428000D03*
X144855800Y-114909200D03*
X108331000Y-122631200D03*
X135813800Y-102920800D03*
X144855800Y-113131200D03*
X150393400Y-144373600D03*
X167792400Y-114528600D03*
X167792400Y-113817400D03*
X158419800Y-100685600D03*
X158419800Y-102819200D03*
X152501600Y-117500400D03*
X144855800Y-114020200D03*
X131419600Y-124282200D03*
X135813800Y-100787200D03*
X136601200Y-134975600D03*
X135890000Y-134975600D03*
X160274000Y-126492000D03*
X166827200Y-123139200D03*
X158419800Y-102108000D03*
X160274000Y-125780800D03*
X162052000Y-113487200D03*
X166827200Y-121716800D03*
X152527000Y-144373600D03*
X149682200Y-144373600D03*
X158419800Y-101396800D03*
X133527800Y-143865600D03*
X134239000Y-143865600D03*
X161366200Y-109626400D03*
X135178800Y-134975600D03*
X151104600Y-144373600D03*
X109778800Y-122605800D03*
X153924000Y-117500400D03*
X167792400Y-112395000D03*
X145744800Y-114909200D03*
X153212800Y-117500400D03*
X151079200Y-117500400D03*
X151790400Y-117500400D03*
X132816600Y-143865600D03*
X130632200Y-124282200D03*
X135813800Y-102209600D03*
X137312400Y-134975600D03*
X158419800Y-103530400D03*
X145744800Y-114020200D03*
X130632200Y-122351800D03*
X167792400Y-113106200D03*
X131419600Y-122351800D03*
X161391600Y-111556800D03*
X160477200Y-114020600D03*
X146633800Y-114909200D03*
%TO.N,/SR_P*%
X147352100Y-117341300D03*
X110921800Y-119634000D03*
%TO.N,/PACK+*%
X122783600Y-129082800D03*
X120243600Y-129082800D03*
X122783600Y-127812800D03*
X124053600Y-126542800D03*
X122783600Y-126542800D03*
X124053600Y-127812800D03*
X120243600Y-127812800D03*
X136525000Y-110820200D03*
X124053600Y-125272800D03*
X126691947Y-120780637D03*
X121513600Y-127812800D03*
X122783600Y-125272800D03*
X124053600Y-129082800D03*
X121513600Y-129082800D03*
X121513600Y-125272800D03*
X121513600Y-126542800D03*
X120243600Y-126542800D03*
X120243600Y-125272800D03*
%TO.N,/SR_N*%
X111887000Y-119634000D03*
X146514300Y-117373400D03*
%TO.N,/BAT+*%
X102565200Y-113741200D03*
X105105200Y-115011200D03*
X108915200Y-109931200D03*
X105105200Y-109931200D03*
X108915200Y-115011200D03*
X102565200Y-104851200D03*
X107645200Y-113741200D03*
X101295200Y-102311200D03*
X106375200Y-108661200D03*
X103835200Y-104851200D03*
X106375200Y-112471200D03*
X137312400Y-117779800D03*
X101295200Y-109931200D03*
X107645200Y-101041200D03*
X108915200Y-111201200D03*
X108915200Y-103581200D03*
X105105200Y-102311200D03*
X107645200Y-104851200D03*
X103835200Y-117551200D03*
X107645200Y-117551200D03*
X107645200Y-103581200D03*
X101295200Y-115011200D03*
X105105200Y-107391200D03*
X101295200Y-108661200D03*
X106375200Y-106121200D03*
X108915200Y-107391200D03*
X102565200Y-112471200D03*
X103835200Y-111201200D03*
X105105200Y-117551200D03*
X107645200Y-102311200D03*
X102565200Y-111201200D03*
X102565200Y-115011200D03*
X107645200Y-107391200D03*
X102565200Y-102311200D03*
X106375200Y-104851200D03*
X106375200Y-111201200D03*
X102565200Y-116281200D03*
X102565200Y-109931200D03*
X108915200Y-108661200D03*
X106375200Y-101041200D03*
X103835200Y-102311200D03*
X108915200Y-106121200D03*
X102565200Y-103581200D03*
X101295200Y-112471200D03*
X107645200Y-116281200D03*
X103835200Y-109931200D03*
X106375200Y-102311200D03*
X105105200Y-103581200D03*
X106375200Y-117551200D03*
X103835200Y-107391200D03*
X106375200Y-103581200D03*
X101295200Y-117551200D03*
X107645200Y-111201200D03*
X106375200Y-115011200D03*
X106375200Y-107391200D03*
X108915200Y-101041200D03*
X105105200Y-113741200D03*
X103835200Y-103581200D03*
X105105200Y-116281200D03*
X101295200Y-104851200D03*
X101295200Y-101041200D03*
X107645200Y-109931200D03*
X106375200Y-113741200D03*
X101295200Y-111201200D03*
X103835200Y-113741200D03*
X102565200Y-106121200D03*
X102565200Y-117551200D03*
X108915200Y-116281200D03*
X101295200Y-116281200D03*
X101295200Y-113741200D03*
X106375200Y-109931200D03*
X108915200Y-113741200D03*
X103835200Y-108661200D03*
X107645200Y-106121200D03*
X108915200Y-102311200D03*
X103835200Y-112471200D03*
X102565200Y-108661200D03*
X101295200Y-103581200D03*
X105105200Y-111201200D03*
X105105200Y-101041200D03*
X105105200Y-112471200D03*
X105105200Y-106121200D03*
X107645200Y-112471200D03*
X106375200Y-116281200D03*
X103835200Y-115011200D03*
X101295200Y-107391200D03*
X108915200Y-104851200D03*
X103835200Y-116281200D03*
X103835200Y-101041200D03*
X103835200Y-106121200D03*
X101295200Y-106121200D03*
X105105200Y-104851200D03*
X108915200Y-112471200D03*
X102565200Y-107391200D03*
X107645200Y-115011200D03*
X102565200Y-101041200D03*
X105105200Y-108661200D03*
X107645200Y-108661200D03*
%TO.N,/LEDCNTLA*%
X165912800Y-133324600D03*
X166319200Y-129336800D03*
%TO.N,Net-(Q7-D)*%
X112115600Y-118414800D03*
X132054600Y-108788200D03*
X111150400Y-118414800D03*
X110159800Y-118414800D03*
%TO.N,/TS1*%
X132918200Y-141732000D03*
X149275800Y-115417600D03*
%TO.N,Net-(Q12-D)*%
X124053600Y-114452400D03*
X122783600Y-113182400D03*
X121513600Y-114452400D03*
X122783600Y-115722400D03*
X122783600Y-111912400D03*
X120243600Y-114452400D03*
X120243600Y-115722400D03*
X121513600Y-110642400D03*
X124053600Y-116992400D03*
X120243600Y-119532400D03*
X124053600Y-115722400D03*
X122783600Y-119532400D03*
X130276600Y-113969800D03*
X122783600Y-118262400D03*
X121513600Y-116992400D03*
X120243600Y-118262400D03*
X121513600Y-111912400D03*
X122783600Y-116992400D03*
X121513600Y-113182400D03*
X124053600Y-111912400D03*
X136296400Y-110068900D03*
X122783600Y-110642400D03*
X120243600Y-113182400D03*
X121513600Y-118262400D03*
X124053600Y-110642400D03*
X120243600Y-111912400D03*
X121513600Y-115722400D03*
X124053600Y-113182400D03*
X124053600Y-119532400D03*
X122783600Y-114452400D03*
X120243600Y-116992400D03*
X121513600Y-119532400D03*
X124053600Y-118262400D03*
X120243600Y-110642400D03*
%TO.N,Net-(Q8-G)*%
X126441200Y-109651800D03*
X137744200Y-115646200D03*
%TO.N,Net-(Q9-G)*%
X129895600Y-112115600D03*
X136499600Y-113919000D03*
%TO.N,Net-(Q12-G)*%
X135930100Y-112953800D03*
X126695200Y-119735600D03*
%TO.N,/PACK-*%
X113588800Y-127812800D03*
X117398800Y-126542800D03*
X113588800Y-126542800D03*
X114858800Y-127812800D03*
X116128800Y-129082800D03*
X114858800Y-126542800D03*
X117398800Y-125272800D03*
X116128800Y-125272800D03*
X114858800Y-125272800D03*
X113588800Y-125272800D03*
X117398800Y-129082800D03*
X117398800Y-127812800D03*
X116128800Y-126542800D03*
X114858800Y-129082800D03*
X113588800Y-129082800D03*
X116128800Y-127812800D03*
%TO.N,/PIN22*%
X161442400Y-127889000D03*
X141401800Y-106981500D03*
%TO.N,/PIN21*%
X142976600Y-106981500D03*
X162179000Y-130479800D03*
%TO.N,/PIN20*%
X144551400Y-106981500D03*
X162001200Y-133146800D03*
%TO.N,/PIN13*%
X150850600Y-107007900D03*
%TO.N,/PIN16*%
X147701000Y-106969300D03*
X134213600Y-119862600D03*
%TO.N,/PIN17*%
X146126200Y-106981500D03*
X147904200Y-111963200D03*
X154965400Y-114579400D03*
%TO.N,/PIN15*%
X164261800Y-120345200D03*
X149275800Y-106994700D03*
%TO.N,/PIN12*%
X152425400Y-107007900D03*
%TO.N,/SMBC*%
X156712223Y-110584360D03*
X146431596Y-109382184D03*
%TO.N,/SMBD*%
X155092400Y-109702600D03*
X147142200Y-109702600D03*
%TO.N,Net-(C9-Pad1)*%
X115214400Y-109931200D03*
X121564400Y-101041200D03*
X121564400Y-103581200D03*
X124104400Y-102311200D03*
X121564400Y-104851200D03*
X119024400Y-104851200D03*
X116484400Y-112471200D03*
X115214400Y-104851200D03*
X116484400Y-113741200D03*
X112674400Y-111201200D03*
X120294400Y-103581200D03*
X124104400Y-101041200D03*
X119024400Y-106121200D03*
X117754400Y-107391200D03*
X112674400Y-106121200D03*
X117754400Y-103581200D03*
X124104400Y-103581200D03*
X117754400Y-104851200D03*
X112674400Y-101041200D03*
X120294400Y-102311200D03*
X122834400Y-103581200D03*
X113944400Y-106121200D03*
X112674400Y-113741200D03*
X122834400Y-104851200D03*
X112674400Y-115011200D03*
X122834400Y-107391200D03*
X112674400Y-109931200D03*
X117754400Y-115011200D03*
X115214400Y-108661200D03*
X113944400Y-102311200D03*
X112674400Y-104851200D03*
X122834400Y-106121200D03*
X115214400Y-117551200D03*
X116484400Y-108661200D03*
X120294400Y-101041200D03*
X119024400Y-101041200D03*
X124104400Y-107391200D03*
X113944400Y-107391200D03*
X115214400Y-103581200D03*
X113944400Y-101041200D03*
X113944400Y-104851200D03*
X116484400Y-101041200D03*
X113944400Y-117551200D03*
X116484400Y-106121200D03*
X120294400Y-106121200D03*
X117754400Y-108661200D03*
X115214400Y-116281200D03*
X112674400Y-112471200D03*
X115214400Y-107391200D03*
X117754400Y-111201200D03*
X116484400Y-102311200D03*
X116484400Y-104851200D03*
X122834400Y-101041200D03*
X117754400Y-112471200D03*
X112674400Y-103581200D03*
X115214400Y-113741200D03*
X117754400Y-106121200D03*
X113944400Y-103581200D03*
X120294400Y-107391200D03*
X122834400Y-102311200D03*
X121564400Y-106121200D03*
X113944400Y-113741200D03*
X117754400Y-116281200D03*
X119024400Y-107391200D03*
X113944400Y-108661200D03*
X115214400Y-102311200D03*
X124104400Y-106121200D03*
X112674400Y-102311200D03*
X117754400Y-109931200D03*
X113944400Y-116281200D03*
X120294400Y-104851200D03*
X119024400Y-102311200D03*
X115214400Y-106121200D03*
X116484400Y-116281200D03*
X115214400Y-115011200D03*
X113944400Y-112471200D03*
X116484400Y-107391200D03*
X116484400Y-111201200D03*
X113944400Y-111201200D03*
X113944400Y-109931200D03*
X115214400Y-112471200D03*
X112674400Y-107391200D03*
X112674400Y-108661200D03*
X117754400Y-101041200D03*
X117754400Y-102311200D03*
X116484400Y-103581200D03*
X119024400Y-103581200D03*
X115214400Y-111201200D03*
X116484400Y-109931200D03*
X121564400Y-107391200D03*
X113944400Y-115011200D03*
X115214400Y-101041200D03*
X117754400Y-113741200D03*
X116484400Y-115011200D03*
X121564400Y-102311200D03*
X124104400Y-104851200D03*
%TO.N,GNDPWR*%
X108839000Y-127127000D03*
X103759000Y-142367000D03*
X101219000Y-130937000D03*
X108839000Y-134747000D03*
X102489000Y-139827000D03*
X107569000Y-137287000D03*
X108839000Y-144907000D03*
X101219000Y-139827000D03*
X107569000Y-128397000D03*
X108839000Y-138557000D03*
X102489000Y-141097000D03*
X103759000Y-130937000D03*
X105029000Y-136017000D03*
X105029000Y-134747000D03*
X105029000Y-127127000D03*
X107569000Y-134747000D03*
X108839000Y-129667000D03*
X105029000Y-137287000D03*
X108839000Y-130937000D03*
X102489000Y-125857000D03*
X106299000Y-127127000D03*
X102489000Y-138557000D03*
X103759000Y-137287000D03*
X101219000Y-141097000D03*
X105029000Y-144907000D03*
X102489000Y-143637000D03*
X108839000Y-141097000D03*
X105029000Y-129667000D03*
X101219000Y-133477000D03*
X107569000Y-142367000D03*
X106299000Y-132207000D03*
X108839000Y-132207000D03*
X103759000Y-139827000D03*
X107569000Y-139827000D03*
X105029000Y-138557000D03*
X107569000Y-141097000D03*
X106299000Y-142367000D03*
X102489000Y-144907000D03*
X103759000Y-129667000D03*
X108839000Y-142367000D03*
X103759000Y-132207000D03*
X101219000Y-138557000D03*
X108839000Y-143637000D03*
X103759000Y-133477000D03*
X107569000Y-138557000D03*
X107569000Y-133477000D03*
X105029000Y-130937000D03*
X101219000Y-129667000D03*
X106299000Y-144907000D03*
X106299000Y-134747000D03*
X107569000Y-144907000D03*
X103759000Y-125857000D03*
X106299000Y-130937000D03*
X108839000Y-136017000D03*
X101219000Y-142367000D03*
X107569000Y-132207000D03*
X102489000Y-134747000D03*
X103759000Y-138557000D03*
X102489000Y-127127000D03*
X101219000Y-132207000D03*
X102489000Y-129667000D03*
X107569000Y-130937000D03*
X105029000Y-143637000D03*
X105029000Y-142367000D03*
X105029000Y-128397000D03*
X107569000Y-136017000D03*
X106299000Y-129667000D03*
X106299000Y-138557000D03*
X101219000Y-134747000D03*
X106299000Y-137287000D03*
X102489000Y-130937000D03*
X106299000Y-136017000D03*
X101219000Y-127127000D03*
X108839000Y-137287000D03*
X102489000Y-128397000D03*
X108839000Y-139827000D03*
X102489000Y-132207000D03*
X105029000Y-141097000D03*
X103759000Y-134747000D03*
X106299000Y-141097000D03*
X103759000Y-136017000D03*
X107569000Y-143637000D03*
X105029000Y-132207000D03*
X107569000Y-129667000D03*
X106299000Y-139827000D03*
X101219000Y-137287000D03*
X103759000Y-143637000D03*
X106299000Y-128397000D03*
X101219000Y-144907000D03*
X103759000Y-144907000D03*
X102489000Y-136017000D03*
X107569000Y-125857000D03*
X106299000Y-125857000D03*
X108839000Y-125857000D03*
X101219000Y-136017000D03*
X101219000Y-143637000D03*
X106299000Y-133477000D03*
X108839000Y-133477000D03*
X108839000Y-128397000D03*
X103759000Y-127127000D03*
X107569000Y-127127000D03*
X101219000Y-125857000D03*
X105029000Y-139827000D03*
X101219000Y-128397000D03*
X103759000Y-128397000D03*
X102489000Y-142367000D03*
X102489000Y-137287000D03*
X105029000Y-133477000D03*
X106299000Y-143637000D03*
X105029000Y-125857000D03*
X102489000Y-133477000D03*
X103759000Y-141097000D03*
%TD*%
D17*
%TO.N,/PIN22*%
X138201400Y-102108000D02*
X141401800Y-105308400D01*
X141401800Y-105308400D02*
X141401800Y-106981500D01*
%TO.N,/PIN21*%
X142976600Y-104343200D02*
X142976600Y-106981500D01*
X140741400Y-102108000D02*
X142976600Y-104343200D01*
%TO.N,/PIN20*%
X144551400Y-103378000D02*
X144551400Y-106981500D01*
X143281400Y-102108000D02*
X144551400Y-103378000D01*
%TO.N,/PIN13*%
X153441400Y-102108000D02*
X150850600Y-104698800D01*
X150850600Y-104698800D02*
X150850600Y-107007900D01*
%TO.N,/PIN16*%
X148361400Y-102108000D02*
X147701000Y-102768400D01*
X147701000Y-102768400D02*
X147701000Y-106969300D01*
%TO.N,/PIN17*%
X146126200Y-102412800D02*
X146126200Y-106981500D01*
%TO.N,/PIN15*%
X150901400Y-102108000D02*
X149275800Y-103733600D01*
X149275800Y-103733600D02*
X149275800Y-106994700D01*
%TO.N,/PIN12*%
X152425400Y-105664000D02*
X152425400Y-107007900D01*
X155981400Y-102108000D02*
X152425400Y-105664000D01*
%TD*%
%TA.AperFunction,Conductor*%
%TO.N,/PACK-*%
G36*
X118028192Y-124924735D02*
G01*
X118042825Y-124930796D01*
X118089351Y-124970533D01*
X118096401Y-124984370D01*
X118102463Y-124999005D01*
X118110000Y-125036891D01*
X118110000Y-133890708D01*
X118102463Y-133928597D01*
X118096402Y-133943228D01*
X118056663Y-133989752D01*
X118042830Y-133996801D01*
X118035448Y-133999858D01*
X118028197Y-134002862D01*
X117990309Y-134010400D01*
X113098891Y-134010400D01*
X113061005Y-134002863D01*
X113046370Y-133996801D01*
X112999847Y-133957063D01*
X112992797Y-133943228D01*
X112986734Y-133928590D01*
X112979200Y-133890708D01*
X112979200Y-125036891D01*
X112986734Y-124999010D01*
X112992796Y-124984373D01*
X113032531Y-124937850D01*
X113046366Y-124930799D01*
X113061010Y-124924734D01*
X113098891Y-124917200D01*
X117990309Y-124917200D01*
X118028192Y-124924735D01*
G37*
%TD.AperFunction*%
%TD*%
%TA.AperFunction,Conductor*%
%TO.N,/BAT+*%
G36*
X109950992Y-100210535D02*
G01*
X109965625Y-100216596D01*
X110012151Y-100256333D01*
X110019201Y-100270170D01*
X110025263Y-100284805D01*
X110032800Y-100322691D01*
X110032800Y-116058178D01*
X110031284Y-116075438D01*
X110029778Y-116083944D01*
X110017944Y-116116334D01*
X110013612Y-116123807D01*
X110003650Y-116137972D01*
X107885334Y-118650394D01*
X107869774Y-118665228D01*
X107861455Y-118671588D01*
X107822700Y-118689604D01*
X107812474Y-118691865D01*
X107791101Y-118694200D01*
X100373338Y-118694200D01*
X100335482Y-118686676D01*
X100320853Y-118680622D01*
X100274314Y-118640901D01*
X100267287Y-118627134D01*
X100261210Y-118612504D01*
X100253635Y-118574666D01*
X100228565Y-100322844D01*
X100236060Y-100284923D01*
X100242110Y-100270274D01*
X100281796Y-100223710D01*
X100295691Y-100216618D01*
X100310334Y-100210547D01*
X100348247Y-100203000D01*
X109913109Y-100203000D01*
X109950992Y-100210535D01*
G37*
%TD.AperFunction*%
%TD*%
%TA.AperFunction,Conductor*%
%TO.N,GND*%
G36*
X168919399Y-100008035D02*
G01*
X168932825Y-100013596D01*
X168979350Y-100053333D01*
X168986401Y-100067170D01*
X168991963Y-100080598D01*
X168999500Y-100118484D01*
X168999500Y-145881515D01*
X168991963Y-145919404D01*
X168986402Y-145932828D01*
X168946663Y-145979352D01*
X168932829Y-145986401D01*
X168919403Y-145991962D01*
X168881516Y-145999500D01*
X127347084Y-145999500D01*
X127309198Y-145991963D01*
X127295770Y-145986401D01*
X127249247Y-145946663D01*
X127242197Y-145932828D01*
X127236134Y-145918190D01*
X127228600Y-145880308D01*
X127228600Y-141732002D01*
X132412553Y-141732002D01*
X132433034Y-141874456D01*
X132492822Y-142005371D01*
X132492823Y-142005373D01*
X132587072Y-142114143D01*
X132587073Y-142114144D01*
X132708142Y-142191950D01*
X132708147Y-142191953D01*
X132814603Y-142223211D01*
X132846235Y-142232499D01*
X132846236Y-142232499D01*
X132846239Y-142232500D01*
X132846241Y-142232500D01*
X132990159Y-142232500D01*
X132990161Y-142232500D01*
X133128253Y-142191953D01*
X133249328Y-142114143D01*
X133343577Y-142005373D01*
X133403365Y-141874457D01*
X133423847Y-141732000D01*
X133403365Y-141589543D01*
X133343577Y-141458627D01*
X133249328Y-141349857D01*
X133249327Y-141349856D01*
X133249326Y-141349855D01*
X133128257Y-141272049D01*
X133128254Y-141272047D01*
X133128253Y-141272047D01*
X133128250Y-141272046D01*
X132990164Y-141231500D01*
X132990161Y-141231500D01*
X132846239Y-141231500D01*
X132846235Y-141231500D01*
X132708149Y-141272046D01*
X132708142Y-141272049D01*
X132587073Y-141349855D01*
X132492822Y-141458628D01*
X132433034Y-141589543D01*
X132412553Y-141731997D01*
X132412553Y-141732002D01*
X127228600Y-141732002D01*
X127228600Y-133146802D01*
X161495553Y-133146802D01*
X161516034Y-133289256D01*
X161575822Y-133420171D01*
X161575823Y-133420173D01*
X161616448Y-133467057D01*
X161670073Y-133528944D01*
X161777482Y-133597971D01*
X161791147Y-133606753D01*
X161897603Y-133638011D01*
X161929235Y-133647299D01*
X161929236Y-133647299D01*
X161929239Y-133647300D01*
X161929241Y-133647300D01*
X162073159Y-133647300D01*
X162073161Y-133647300D01*
X162211253Y-133606753D01*
X162332328Y-133528943D01*
X162426577Y-133420173D01*
X162470223Y-133324602D01*
X165407153Y-133324602D01*
X165427634Y-133467056D01*
X165455898Y-133528944D01*
X165487423Y-133597973D01*
X165530164Y-133647299D01*
X165581673Y-133706744D01*
X165702742Y-133784550D01*
X165702747Y-133784553D01*
X165809203Y-133815811D01*
X165840835Y-133825099D01*
X165840836Y-133825099D01*
X165840839Y-133825100D01*
X165840841Y-133825100D01*
X165984759Y-133825100D01*
X165984761Y-133825100D01*
X166122853Y-133784553D01*
X166243928Y-133706743D01*
X166338177Y-133597973D01*
X166397965Y-133467057D01*
X166418447Y-133324600D01*
X166413365Y-133289257D01*
X166397965Y-133182143D01*
X166338177Y-133051228D01*
X166338177Y-133051227D01*
X166243928Y-132942457D01*
X166243927Y-132942456D01*
X166243926Y-132942455D01*
X166122857Y-132864649D01*
X166122854Y-132864647D01*
X166122853Y-132864647D01*
X166122850Y-132864646D01*
X165984764Y-132824100D01*
X165984761Y-132824100D01*
X165840839Y-132824100D01*
X165840835Y-132824100D01*
X165702749Y-132864646D01*
X165702742Y-132864649D01*
X165581673Y-132942455D01*
X165487422Y-133051228D01*
X165427634Y-133182143D01*
X165407153Y-133324597D01*
X165407153Y-133324602D01*
X162470223Y-133324602D01*
X162486365Y-133289257D01*
X162493192Y-133241771D01*
X162506847Y-133146802D01*
X162506847Y-133146797D01*
X162486365Y-133004343D01*
X162426577Y-132873428D01*
X162426577Y-132873427D01*
X162332328Y-132764657D01*
X162332327Y-132764656D01*
X162332326Y-132764655D01*
X162211257Y-132686849D01*
X162211254Y-132686847D01*
X162211253Y-132686847D01*
X162211250Y-132686846D01*
X162073164Y-132646300D01*
X162073161Y-132646300D01*
X161929239Y-132646300D01*
X161929235Y-132646300D01*
X161791149Y-132686846D01*
X161791142Y-132686849D01*
X161670073Y-132764655D01*
X161575822Y-132873428D01*
X161516034Y-133004343D01*
X161495553Y-133146797D01*
X161495553Y-133146802D01*
X127228600Y-133146802D01*
X127228600Y-130479802D01*
X161673353Y-130479802D01*
X161693834Y-130622256D01*
X161753622Y-130753171D01*
X161753623Y-130753173D01*
X161847872Y-130861943D01*
X161847873Y-130861944D01*
X161968942Y-130939750D01*
X161968947Y-130939753D01*
X162075403Y-130971011D01*
X162107035Y-130980299D01*
X162107036Y-130980299D01*
X162107039Y-130980300D01*
X162107041Y-130980300D01*
X162250959Y-130980300D01*
X162250961Y-130980300D01*
X162389053Y-130939753D01*
X162510128Y-130861943D01*
X162604377Y-130753173D01*
X162664165Y-130622257D01*
X162684647Y-130479800D01*
X162664165Y-130337343D01*
X162604377Y-130206427D01*
X162510128Y-130097657D01*
X162510127Y-130097656D01*
X162510126Y-130097655D01*
X162389057Y-130019849D01*
X162389054Y-130019847D01*
X162389053Y-130019847D01*
X162389050Y-130019846D01*
X162250964Y-129979300D01*
X162250961Y-129979300D01*
X162107039Y-129979300D01*
X162107035Y-129979300D01*
X161968949Y-130019846D01*
X161968942Y-130019849D01*
X161847873Y-130097655D01*
X161753622Y-130206428D01*
X161693834Y-130337343D01*
X161673353Y-130479797D01*
X161673353Y-130479802D01*
X127228600Y-130479802D01*
X127228600Y-129336802D01*
X165813553Y-129336802D01*
X165834034Y-129479256D01*
X165893822Y-129610171D01*
X165893823Y-129610173D01*
X165988072Y-129718943D01*
X165988073Y-129718944D01*
X166109142Y-129796750D01*
X166109147Y-129796753D01*
X166215603Y-129828011D01*
X166247235Y-129837299D01*
X166247236Y-129837299D01*
X166247239Y-129837300D01*
X166247241Y-129837300D01*
X166391159Y-129837300D01*
X166391161Y-129837300D01*
X166529253Y-129796753D01*
X166650328Y-129718943D01*
X166744577Y-129610173D01*
X166804365Y-129479257D01*
X166824847Y-129336800D01*
X166804365Y-129194343D01*
X166744577Y-129063427D01*
X166650328Y-128954657D01*
X166650327Y-128954656D01*
X166650326Y-128954655D01*
X166529257Y-128876849D01*
X166529254Y-128876847D01*
X166529253Y-128876847D01*
X166529250Y-128876846D01*
X166391164Y-128836300D01*
X166391161Y-128836300D01*
X166247239Y-128836300D01*
X166247235Y-128836300D01*
X166109149Y-128876846D01*
X166109142Y-128876849D01*
X165988073Y-128954655D01*
X165893822Y-129063428D01*
X165834034Y-129194343D01*
X165813553Y-129336797D01*
X165813553Y-129336802D01*
X127228600Y-129336802D01*
X127228600Y-127889002D01*
X160936753Y-127889002D01*
X160957234Y-128031456D01*
X161017022Y-128162371D01*
X161017023Y-128162373D01*
X161111272Y-128271143D01*
X161111273Y-128271144D01*
X161232342Y-128348950D01*
X161232347Y-128348953D01*
X161338803Y-128380211D01*
X161370435Y-128389499D01*
X161370436Y-128389499D01*
X161370439Y-128389500D01*
X161370441Y-128389500D01*
X161514359Y-128389500D01*
X161514361Y-128389500D01*
X161652453Y-128348953D01*
X161773528Y-128271143D01*
X161867777Y-128162373D01*
X161927565Y-128031457D01*
X161948047Y-127889000D01*
X161927565Y-127746543D01*
X161867777Y-127615627D01*
X161773528Y-127506857D01*
X161773527Y-127506856D01*
X161773526Y-127506855D01*
X161652457Y-127429049D01*
X161652454Y-127429047D01*
X161652453Y-127429047D01*
X161652450Y-127429046D01*
X161514364Y-127388500D01*
X161514361Y-127388500D01*
X161370439Y-127388500D01*
X161370435Y-127388500D01*
X161232349Y-127429046D01*
X161232342Y-127429049D01*
X161111273Y-127506855D01*
X161017022Y-127615628D01*
X160957234Y-127746543D01*
X160936753Y-127888997D01*
X160936753Y-127889002D01*
X127228600Y-127889002D01*
X127228600Y-127101600D01*
X127226356Y-124686908D01*
X127226356Y-124686907D01*
X127226355Y-124686906D01*
X127226262Y-124587000D01*
X127482600Y-124587000D01*
X127482600Y-121031000D01*
X127222957Y-121031000D01*
X127221871Y-119862602D01*
X133707953Y-119862602D01*
X133728434Y-120005056D01*
X133788222Y-120135971D01*
X133788223Y-120135973D01*
X133839849Y-120195553D01*
X133882473Y-120244744D01*
X134003542Y-120322550D01*
X134003547Y-120322553D01*
X134110003Y-120353811D01*
X134141635Y-120363099D01*
X134141636Y-120363099D01*
X134141639Y-120363100D01*
X134141641Y-120363100D01*
X134285559Y-120363100D01*
X134285561Y-120363100D01*
X134346517Y-120345202D01*
X163756153Y-120345202D01*
X163776634Y-120487656D01*
X163785589Y-120507264D01*
X163836423Y-120618573D01*
X163930672Y-120727343D01*
X163930673Y-120727344D01*
X164013599Y-120780637D01*
X164051747Y-120805153D01*
X164158203Y-120836411D01*
X164189835Y-120845699D01*
X164189836Y-120845699D01*
X164189839Y-120845700D01*
X164189841Y-120845700D01*
X164333759Y-120845700D01*
X164333761Y-120845700D01*
X164471853Y-120805153D01*
X164592928Y-120727343D01*
X164687177Y-120618573D01*
X164746965Y-120487657D01*
X164759785Y-120398494D01*
X164767447Y-120345202D01*
X164767447Y-120345197D01*
X164746965Y-120202743D01*
X164687177Y-120071828D01*
X164687177Y-120071827D01*
X164592928Y-119963057D01*
X164592927Y-119963056D01*
X164592926Y-119963055D01*
X164471857Y-119885249D01*
X164471854Y-119885247D01*
X164471853Y-119885247D01*
X164471850Y-119885246D01*
X164333764Y-119844700D01*
X164333761Y-119844700D01*
X164189839Y-119844700D01*
X164189835Y-119844700D01*
X164051749Y-119885246D01*
X164051742Y-119885249D01*
X163930673Y-119963055D01*
X163836422Y-120071828D01*
X163776634Y-120202743D01*
X163756153Y-120345197D01*
X163756153Y-120345202D01*
X134346517Y-120345202D01*
X134423653Y-120322553D01*
X134544728Y-120244743D01*
X134638977Y-120135973D01*
X134698765Y-120005057D01*
X134719247Y-119862600D01*
X134716673Y-119844700D01*
X134698765Y-119720143D01*
X134638977Y-119589228D01*
X134638977Y-119589227D01*
X134544728Y-119480457D01*
X134544727Y-119480456D01*
X134544726Y-119480455D01*
X134423657Y-119402649D01*
X134423654Y-119402647D01*
X134423653Y-119402647D01*
X134423650Y-119402646D01*
X134285564Y-119362100D01*
X134285561Y-119362100D01*
X134141639Y-119362100D01*
X134141635Y-119362100D01*
X134003549Y-119402646D01*
X134003542Y-119402649D01*
X133882473Y-119480455D01*
X133788222Y-119589228D01*
X133728434Y-119720143D01*
X133707953Y-119862597D01*
X133707953Y-119862602D01*
X127221871Y-119862602D01*
X127219936Y-117779802D01*
X136806753Y-117779802D01*
X136827234Y-117922256D01*
X136887022Y-118053171D01*
X136887023Y-118053173D01*
X136981272Y-118161943D01*
X136981273Y-118161944D01*
X137102342Y-118239750D01*
X137102347Y-118239753D01*
X137208803Y-118271011D01*
X137240435Y-118280299D01*
X137240436Y-118280299D01*
X137240439Y-118280300D01*
X137240441Y-118280300D01*
X137384359Y-118280300D01*
X137384361Y-118280300D01*
X137522453Y-118239753D01*
X137643528Y-118161943D01*
X137737777Y-118053173D01*
X137797565Y-117922257D01*
X137818047Y-117779800D01*
X137814559Y-117755543D01*
X137797565Y-117637343D01*
X137737777Y-117506427D01*
X137643528Y-117397657D01*
X137643527Y-117397656D01*
X137643526Y-117397655D01*
X137605787Y-117373402D01*
X146008653Y-117373402D01*
X146029134Y-117515856D01*
X146074262Y-117614671D01*
X146088923Y-117646773D01*
X146183172Y-117755543D01*
X146183173Y-117755544D01*
X146254298Y-117801253D01*
X146304247Y-117833353D01*
X146410703Y-117864611D01*
X146442335Y-117873899D01*
X146442336Y-117873899D01*
X146442339Y-117873900D01*
X146442341Y-117873900D01*
X146586259Y-117873900D01*
X146586261Y-117873900D01*
X146724353Y-117833353D01*
X146845428Y-117755543D01*
X146872289Y-117724542D01*
X146924682Y-117692948D01*
X146985643Y-117698183D01*
X147015003Y-117719515D01*
X147015619Y-117718805D01*
X147020972Y-117723443D01*
X147108668Y-117779802D01*
X147142047Y-117801253D01*
X147248503Y-117832511D01*
X147280135Y-117841799D01*
X147280136Y-117841799D01*
X147280139Y-117841800D01*
X147280141Y-117841800D01*
X147424059Y-117841800D01*
X147424061Y-117841800D01*
X147562153Y-117801253D01*
X147683228Y-117723443D01*
X147777477Y-117614673D01*
X147837265Y-117483757D01*
X147849644Y-117397657D01*
X147857747Y-117341302D01*
X147857747Y-117341297D01*
X147837265Y-117198843D01*
X147792137Y-117100028D01*
X147777477Y-117067927D01*
X147683228Y-116959157D01*
X147683227Y-116959156D01*
X147683226Y-116959155D01*
X147562157Y-116881349D01*
X147562154Y-116881347D01*
X147562153Y-116881347D01*
X147562150Y-116881346D01*
X147424064Y-116840800D01*
X147424061Y-116840800D01*
X147280139Y-116840800D01*
X147280135Y-116840800D01*
X147142049Y-116881346D01*
X147142042Y-116881349D01*
X147020972Y-116959156D01*
X146994111Y-116990156D01*
X146941715Y-117021751D01*
X146880754Y-117016515D01*
X146851397Y-116995183D01*
X146850781Y-116995895D01*
X146845427Y-116991256D01*
X146724357Y-116913449D01*
X146724354Y-116913447D01*
X146724353Y-116913447D01*
X146724350Y-116913446D01*
X146586264Y-116872900D01*
X146586261Y-116872900D01*
X146442339Y-116872900D01*
X146442335Y-116872900D01*
X146304249Y-116913446D01*
X146304242Y-116913449D01*
X146183173Y-116991255D01*
X146088922Y-117100028D01*
X146029134Y-117230943D01*
X146008653Y-117373397D01*
X146008653Y-117373402D01*
X137605787Y-117373402D01*
X137522457Y-117319849D01*
X137522454Y-117319847D01*
X137522453Y-117319847D01*
X137522450Y-117319846D01*
X137384364Y-117279300D01*
X137384361Y-117279300D01*
X137240439Y-117279300D01*
X137240435Y-117279300D01*
X137102349Y-117319846D01*
X137102342Y-117319849D01*
X136981273Y-117397655D01*
X136887022Y-117506428D01*
X136827234Y-117637343D01*
X136806753Y-117779797D01*
X136806753Y-117779802D01*
X127219936Y-117779802D01*
X127217953Y-115646202D01*
X137238553Y-115646202D01*
X137259034Y-115788656D01*
X137299633Y-115877553D01*
X137318823Y-115919573D01*
X137413072Y-116028343D01*
X137413073Y-116028344D01*
X137534142Y-116106150D01*
X137534147Y-116106153D01*
X137640603Y-116137411D01*
X137672235Y-116146699D01*
X137672236Y-116146699D01*
X137672239Y-116146700D01*
X137672241Y-116146700D01*
X137816159Y-116146700D01*
X137816161Y-116146700D01*
X137954253Y-116106153D01*
X138075328Y-116028343D01*
X138169577Y-115919573D01*
X138229365Y-115788657D01*
X138249847Y-115646200D01*
X138237461Y-115560056D01*
X138229365Y-115503743D01*
X138190025Y-115417602D01*
X148770153Y-115417602D01*
X148790634Y-115560056D01*
X148850422Y-115690971D01*
X148850423Y-115690973D01*
X148935065Y-115788656D01*
X148944673Y-115799744D01*
X149065742Y-115877550D01*
X149065747Y-115877553D01*
X149172203Y-115908811D01*
X149203835Y-115918099D01*
X149203836Y-115918099D01*
X149203839Y-115918100D01*
X149203841Y-115918100D01*
X149347759Y-115918100D01*
X149347761Y-115918100D01*
X149485853Y-115877553D01*
X149606928Y-115799743D01*
X149701177Y-115690973D01*
X149760965Y-115560057D01*
X149781447Y-115417600D01*
X149760965Y-115275143D01*
X149701177Y-115144227D01*
X149606928Y-115035457D01*
X149606927Y-115035456D01*
X149606926Y-115035455D01*
X149485857Y-114957649D01*
X149485854Y-114957647D01*
X149485853Y-114957647D01*
X149485850Y-114957646D01*
X149347764Y-114917100D01*
X149347761Y-114917100D01*
X149203839Y-114917100D01*
X149203835Y-114917100D01*
X149065749Y-114957646D01*
X149065742Y-114957649D01*
X148944673Y-115035455D01*
X148850422Y-115144228D01*
X148790634Y-115275143D01*
X148770153Y-115417597D01*
X148770153Y-115417602D01*
X138190025Y-115417602D01*
X138169577Y-115372828D01*
X138169577Y-115372827D01*
X138075328Y-115264057D01*
X138075327Y-115264056D01*
X138075326Y-115264055D01*
X137954257Y-115186249D01*
X137954254Y-115186247D01*
X137954253Y-115186247D01*
X137954250Y-115186246D01*
X137816164Y-115145700D01*
X137816161Y-115145700D01*
X137672239Y-115145700D01*
X137672235Y-115145700D01*
X137534149Y-115186246D01*
X137534142Y-115186249D01*
X137413073Y-115264055D01*
X137318822Y-115372828D01*
X137259034Y-115503743D01*
X137238553Y-115646197D01*
X137238553Y-115646202D01*
X127217953Y-115646202D01*
X127216962Y-114579402D01*
X154459753Y-114579402D01*
X154480234Y-114721856D01*
X154540022Y-114852771D01*
X154540023Y-114852773D01*
X154630895Y-114957646D01*
X154634273Y-114961544D01*
X154755342Y-115039350D01*
X154755347Y-115039353D01*
X154861803Y-115070611D01*
X154893435Y-115079899D01*
X154893436Y-115079899D01*
X154893439Y-115079900D01*
X154893441Y-115079900D01*
X155037359Y-115079900D01*
X155037361Y-115079900D01*
X155175453Y-115039353D01*
X155296528Y-114961543D01*
X155390777Y-114852773D01*
X155450565Y-114721857D01*
X155471047Y-114579400D01*
X155450565Y-114436943D01*
X155390777Y-114306027D01*
X155296528Y-114197257D01*
X155296527Y-114197256D01*
X155296526Y-114197255D01*
X155175457Y-114119449D01*
X155175454Y-114119447D01*
X155175453Y-114119447D01*
X155175450Y-114119446D01*
X155037364Y-114078900D01*
X155037361Y-114078900D01*
X154893439Y-114078900D01*
X154893435Y-114078900D01*
X154755349Y-114119446D01*
X154755342Y-114119449D01*
X154634273Y-114197255D01*
X154540022Y-114306028D01*
X154480234Y-114436943D01*
X154459753Y-114579397D01*
X154459753Y-114579402D01*
X127216962Y-114579402D01*
X127216395Y-113969802D01*
X129770953Y-113969802D01*
X129791434Y-114112256D01*
X129851222Y-114243171D01*
X129851223Y-114243173D01*
X129901454Y-114301143D01*
X129945473Y-114351944D01*
X129987500Y-114378953D01*
X130066547Y-114429753D01*
X130173003Y-114461011D01*
X130204635Y-114470299D01*
X130204636Y-114470299D01*
X130204639Y-114470300D01*
X130204641Y-114470300D01*
X130348559Y-114470300D01*
X130348561Y-114470300D01*
X130486653Y-114429753D01*
X130607728Y-114351943D01*
X130701977Y-114243173D01*
X130761765Y-114112257D01*
X130782247Y-113969800D01*
X130774943Y-113919002D01*
X130761765Y-113827343D01*
X130701977Y-113696428D01*
X130701977Y-113696427D01*
X130607728Y-113587657D01*
X130607727Y-113587656D01*
X130607726Y-113587655D01*
X130486657Y-113509849D01*
X130486654Y-113509847D01*
X130486653Y-113509847D01*
X130486650Y-113509846D01*
X130348564Y-113469300D01*
X130348561Y-113469300D01*
X130204639Y-113469300D01*
X130204635Y-113469300D01*
X130066549Y-113509846D01*
X130066542Y-113509849D01*
X129945473Y-113587655D01*
X129851222Y-113696428D01*
X129791434Y-113827343D01*
X129770953Y-113969797D01*
X129770953Y-113969802D01*
X127216395Y-113969802D01*
X127216066Y-113615398D01*
X127215451Y-112953802D01*
X135424453Y-112953802D01*
X135444934Y-113096256D01*
X135504722Y-113227171D01*
X135504723Y-113227173D01*
X135530913Y-113257398D01*
X135598973Y-113335944D01*
X135664557Y-113378092D01*
X135720047Y-113413753D01*
X135826503Y-113445011D01*
X135858135Y-113454299D01*
X135858136Y-113454299D01*
X135858139Y-113454300D01*
X135858141Y-113454300D01*
X136002059Y-113454300D01*
X136002061Y-113454300D01*
X136002062Y-113454299D01*
X136009070Y-113453292D01*
X136009447Y-113455919D01*
X136058837Y-113457317D01*
X136107300Y-113494667D01*
X136124554Y-113553369D01*
X136104009Y-113611002D01*
X136100415Y-113615398D01*
X136074223Y-113645626D01*
X136014434Y-113776543D01*
X135993953Y-113918997D01*
X135993953Y-113919002D01*
X136014434Y-114061456D01*
X136040918Y-114119446D01*
X136074223Y-114192373D01*
X136168472Y-114301143D01*
X136168473Y-114301144D01*
X136247520Y-114351944D01*
X136289547Y-114378953D01*
X136396003Y-114410211D01*
X136427635Y-114419499D01*
X136427636Y-114419499D01*
X136427639Y-114419500D01*
X136427641Y-114419500D01*
X136571559Y-114419500D01*
X136571561Y-114419500D01*
X136709653Y-114378953D01*
X136830728Y-114301143D01*
X136924977Y-114192373D01*
X136984765Y-114061457D01*
X137005247Y-113919000D01*
X136984765Y-113776543D01*
X136924977Y-113645627D01*
X136830728Y-113536857D01*
X136830727Y-113536856D01*
X136830726Y-113536855D01*
X136709657Y-113459049D01*
X136709654Y-113459047D01*
X136709653Y-113459047D01*
X136709650Y-113459046D01*
X136571564Y-113418500D01*
X136571561Y-113418500D01*
X136427639Y-113418500D01*
X136427637Y-113418500D01*
X136420630Y-113419508D01*
X136420253Y-113416888D01*
X136370816Y-113415465D01*
X136322371Y-113378092D01*
X136305146Y-113319382D01*
X136325720Y-113261759D01*
X136329267Y-113257420D01*
X136355477Y-113227173D01*
X136415265Y-113096257D01*
X136435747Y-112953800D01*
X136415265Y-112811343D01*
X136355477Y-112680427D01*
X136261228Y-112571657D01*
X136261227Y-112571656D01*
X136261226Y-112571655D01*
X136140157Y-112493849D01*
X136140154Y-112493847D01*
X136140153Y-112493847D01*
X136140150Y-112493846D01*
X136002064Y-112453300D01*
X136002061Y-112453300D01*
X135858139Y-112453300D01*
X135858135Y-112453300D01*
X135720049Y-112493846D01*
X135720042Y-112493849D01*
X135598973Y-112571655D01*
X135504722Y-112680428D01*
X135444934Y-112811343D01*
X135424453Y-112953797D01*
X135424453Y-112953802D01*
X127215451Y-112953802D01*
X127214672Y-112115602D01*
X129389953Y-112115602D01*
X129410434Y-112258056D01*
X129450298Y-112345344D01*
X129470223Y-112388973D01*
X129534973Y-112463699D01*
X129564473Y-112497744D01*
X129685542Y-112575550D01*
X129685547Y-112575553D01*
X129792003Y-112606811D01*
X129823635Y-112616099D01*
X129823636Y-112616099D01*
X129823639Y-112616100D01*
X129823641Y-112616100D01*
X129967559Y-112616100D01*
X129967561Y-112616100D01*
X130105653Y-112575553D01*
X130226728Y-112497743D01*
X130320977Y-112388973D01*
X130380765Y-112258057D01*
X130401247Y-112115600D01*
X130399817Y-112105657D01*
X130380765Y-111973143D01*
X130376225Y-111963202D01*
X147398553Y-111963202D01*
X147419034Y-112105656D01*
X147478822Y-112236571D01*
X147478823Y-112236573D01*
X147497439Y-112258057D01*
X147573073Y-112345344D01*
X147694142Y-112423150D01*
X147694147Y-112423153D01*
X147800603Y-112454411D01*
X147832235Y-112463699D01*
X147832236Y-112463699D01*
X147832239Y-112463700D01*
X147832241Y-112463700D01*
X147976159Y-112463700D01*
X147976161Y-112463700D01*
X148114253Y-112423153D01*
X148235328Y-112345343D01*
X148329577Y-112236573D01*
X148389365Y-112105657D01*
X148396192Y-112058171D01*
X148409847Y-111963202D01*
X148409847Y-111963197D01*
X148389365Y-111820743D01*
X148329577Y-111689828D01*
X148329577Y-111689827D01*
X148235328Y-111581057D01*
X148235327Y-111581056D01*
X148235326Y-111581055D01*
X148114257Y-111503249D01*
X148114254Y-111503247D01*
X148114253Y-111503247D01*
X148114250Y-111503246D01*
X147976164Y-111462700D01*
X147976161Y-111462700D01*
X147832239Y-111462700D01*
X147832235Y-111462700D01*
X147694149Y-111503246D01*
X147694142Y-111503249D01*
X147573073Y-111581055D01*
X147478822Y-111689828D01*
X147419034Y-111820743D01*
X147398553Y-111963197D01*
X147398553Y-111963202D01*
X130376225Y-111963202D01*
X130320977Y-111842228D01*
X130320977Y-111842227D01*
X130226728Y-111733457D01*
X130226727Y-111733456D01*
X130226726Y-111733455D01*
X130105657Y-111655649D01*
X130105654Y-111655647D01*
X130105653Y-111655647D01*
X130105650Y-111655646D01*
X129967564Y-111615100D01*
X129967561Y-111615100D01*
X129823639Y-111615100D01*
X129823635Y-111615100D01*
X129685549Y-111655646D01*
X129685542Y-111655649D01*
X129564473Y-111733455D01*
X129470222Y-111842228D01*
X129410434Y-111973143D01*
X129389953Y-112115597D01*
X129389953Y-112115602D01*
X127214672Y-112115602D01*
X127212770Y-110068902D01*
X135790753Y-110068902D01*
X135811234Y-110211356D01*
X135838719Y-110271538D01*
X135871023Y-110342273D01*
X135917534Y-110395950D01*
X135965273Y-110451044D01*
X136030789Y-110493148D01*
X136069520Y-110540514D01*
X136073014Y-110601599D01*
X136067320Y-110617557D01*
X136039834Y-110677743D01*
X136019353Y-110820197D01*
X136019353Y-110820202D01*
X136039834Y-110962656D01*
X136077125Y-111044310D01*
X136099623Y-111093573D01*
X136193872Y-111202343D01*
X136193873Y-111202344D01*
X136314942Y-111280150D01*
X136314947Y-111280153D01*
X136421403Y-111311411D01*
X136453035Y-111320699D01*
X136453036Y-111320699D01*
X136453039Y-111320700D01*
X136453041Y-111320700D01*
X136596959Y-111320700D01*
X136596961Y-111320700D01*
X136735053Y-111280153D01*
X136856128Y-111202343D01*
X136950377Y-111093573D01*
X137010165Y-110962657D01*
X137030647Y-110820200D01*
X137010165Y-110677743D01*
X136967519Y-110584362D01*
X156206576Y-110584362D01*
X156227057Y-110726816D01*
X156269705Y-110820200D01*
X156286846Y-110857733D01*
X156381095Y-110966503D01*
X156381096Y-110966504D01*
X156502165Y-111044310D01*
X156502170Y-111044313D01*
X156608626Y-111075571D01*
X156640258Y-111084859D01*
X156640259Y-111084859D01*
X156640262Y-111084860D01*
X156640264Y-111084860D01*
X156784182Y-111084860D01*
X156784184Y-111084860D01*
X156922276Y-111044313D01*
X157043351Y-110966503D01*
X157137600Y-110857733D01*
X157197388Y-110726817D01*
X157213097Y-110617557D01*
X157217870Y-110584362D01*
X157217870Y-110584357D01*
X157197388Y-110441903D01*
X157176402Y-110395950D01*
X157137600Y-110310987D01*
X157043351Y-110202217D01*
X157043350Y-110202216D01*
X157043349Y-110202215D01*
X156922280Y-110124409D01*
X156922277Y-110124407D01*
X156922276Y-110124407D01*
X156922273Y-110124406D01*
X156784187Y-110083860D01*
X156784184Y-110083860D01*
X156640262Y-110083860D01*
X156640258Y-110083860D01*
X156502172Y-110124406D01*
X156502165Y-110124409D01*
X156381096Y-110202215D01*
X156286845Y-110310988D01*
X156227057Y-110441903D01*
X156206576Y-110584357D01*
X156206576Y-110584362D01*
X136967519Y-110584362D01*
X136950377Y-110546827D01*
X136856128Y-110438057D01*
X136856127Y-110438056D01*
X136790609Y-110395950D01*
X136751878Y-110348583D01*
X136748386Y-110287498D01*
X136754076Y-110271547D01*
X136781565Y-110211357D01*
X136781565Y-110211355D01*
X136781566Y-110211354D01*
X136802047Y-110068902D01*
X136802047Y-110068897D01*
X136781565Y-109926443D01*
X136761580Y-109882683D01*
X136721777Y-109795527D01*
X136627528Y-109686757D01*
X136627527Y-109686756D01*
X136627526Y-109686755D01*
X136506457Y-109608949D01*
X136506454Y-109608947D01*
X136506453Y-109608947D01*
X136506450Y-109608946D01*
X136368364Y-109568400D01*
X136368361Y-109568400D01*
X136224439Y-109568400D01*
X136224435Y-109568400D01*
X136086349Y-109608946D01*
X136086342Y-109608949D01*
X135965273Y-109686755D01*
X135871022Y-109795528D01*
X135811234Y-109926443D01*
X135790753Y-110068897D01*
X135790753Y-110068902D01*
X127212770Y-110068902D01*
X127212132Y-109382186D01*
X145925949Y-109382186D01*
X145946430Y-109524640D01*
X146006218Y-109655555D01*
X146006219Y-109655557D01*
X146100468Y-109764327D01*
X146100469Y-109764328D01*
X146207842Y-109833332D01*
X146221543Y-109842137D01*
X146327999Y-109873395D01*
X146359631Y-109882683D01*
X146359632Y-109882683D01*
X146359635Y-109882684D01*
X146359637Y-109882684D01*
X146503555Y-109882684D01*
X146503557Y-109882684D01*
X146571732Y-109862666D01*
X146632890Y-109864413D01*
X146681343Y-109901776D01*
X146689675Y-109916529D01*
X146694203Y-109926443D01*
X146716823Y-109975973D01*
X146797344Y-110068900D01*
X146811073Y-110084744D01*
X146932142Y-110162550D01*
X146932147Y-110162553D01*
X147038603Y-110193811D01*
X147070235Y-110203099D01*
X147070236Y-110203099D01*
X147070239Y-110203100D01*
X147070241Y-110203100D01*
X147214159Y-110203100D01*
X147214161Y-110203100D01*
X147352253Y-110162553D01*
X147473328Y-110084743D01*
X147567577Y-109975973D01*
X147627365Y-109845057D01*
X147647847Y-109702602D01*
X154586753Y-109702602D01*
X154607234Y-109845056D01*
X154644403Y-109926443D01*
X154667023Y-109975973D01*
X154747544Y-110068900D01*
X154761273Y-110084744D01*
X154882342Y-110162550D01*
X154882347Y-110162553D01*
X154988803Y-110193811D01*
X155020435Y-110203099D01*
X155020436Y-110203099D01*
X155020439Y-110203100D01*
X155020441Y-110203100D01*
X155164359Y-110203100D01*
X155164361Y-110203100D01*
X155302453Y-110162553D01*
X155423528Y-110084743D01*
X155517777Y-109975973D01*
X155577565Y-109845057D01*
X155598047Y-109702600D01*
X155595769Y-109686757D01*
X155577565Y-109560143D01*
X155577565Y-109560142D01*
X155517777Y-109429227D01*
X155423528Y-109320457D01*
X155423527Y-109320456D01*
X155423526Y-109320455D01*
X155302457Y-109242649D01*
X155302454Y-109242647D01*
X155302453Y-109242647D01*
X155302450Y-109242646D01*
X155164364Y-109202100D01*
X155164361Y-109202100D01*
X155020439Y-109202100D01*
X155020435Y-109202100D01*
X154882349Y-109242646D01*
X154882342Y-109242649D01*
X154761273Y-109320455D01*
X154667022Y-109429228D01*
X154607234Y-109560143D01*
X154586753Y-109702597D01*
X154586753Y-109702602D01*
X147647847Y-109702602D01*
X147647847Y-109702600D01*
X147645569Y-109686757D01*
X147627365Y-109560143D01*
X147627364Y-109560142D01*
X147567577Y-109429227D01*
X147473328Y-109320457D01*
X147473327Y-109320456D01*
X147473326Y-109320455D01*
X147352257Y-109242649D01*
X147352254Y-109242647D01*
X147352253Y-109242647D01*
X147352250Y-109242646D01*
X147214164Y-109202100D01*
X147214161Y-109202100D01*
X147070239Y-109202100D01*
X147070237Y-109202100D01*
X147070233Y-109202101D01*
X147002063Y-109222117D01*
X146940903Y-109220369D01*
X146892451Y-109183006D01*
X146884120Y-109168253D01*
X146856974Y-109108813D01*
X146856973Y-109108812D01*
X146856973Y-109108811D01*
X146762724Y-109000041D01*
X146762723Y-109000040D01*
X146762722Y-109000039D01*
X146641653Y-108922233D01*
X146641650Y-108922231D01*
X146641649Y-108922231D01*
X146641646Y-108922230D01*
X146503560Y-108881684D01*
X146503557Y-108881684D01*
X146359635Y-108881684D01*
X146359631Y-108881684D01*
X146221545Y-108922230D01*
X146221538Y-108922233D01*
X146100469Y-109000039D01*
X146006218Y-109108812D01*
X145946430Y-109239727D01*
X145925949Y-109382181D01*
X145925949Y-109382186D01*
X127212132Y-109382186D01*
X127211580Y-108788202D01*
X131548953Y-108788202D01*
X131569434Y-108930656D01*
X131601121Y-109000039D01*
X131629223Y-109061573D01*
X131721661Y-109168253D01*
X131723473Y-109170344D01*
X131844542Y-109248150D01*
X131844547Y-109248153D01*
X131951003Y-109279411D01*
X131982635Y-109288699D01*
X131982636Y-109288699D01*
X131982639Y-109288700D01*
X131982641Y-109288700D01*
X132126559Y-109288700D01*
X132126561Y-109288700D01*
X132264653Y-109248153D01*
X132385728Y-109170343D01*
X132479977Y-109061573D01*
X132539765Y-108930657D01*
X132560247Y-108788200D01*
X132539765Y-108645743D01*
X132479977Y-108514827D01*
X132385728Y-108406057D01*
X132385727Y-108406056D01*
X132385726Y-108406055D01*
X132264657Y-108328249D01*
X132264654Y-108328247D01*
X132264653Y-108328247D01*
X132264650Y-108328246D01*
X132126564Y-108287700D01*
X132126561Y-108287700D01*
X131982639Y-108287700D01*
X131982635Y-108287700D01*
X131844549Y-108328246D01*
X131844542Y-108328249D01*
X131723473Y-108406055D01*
X131629222Y-108514828D01*
X131569434Y-108645743D01*
X131548953Y-108788197D01*
X131548953Y-108788202D01*
X127211580Y-108788202D01*
X127205372Y-102108003D01*
X137145817Y-102108003D01*
X137166098Y-102313929D01*
X137166099Y-102313934D01*
X137226168Y-102511954D01*
X137323716Y-102694452D01*
X137437430Y-102833013D01*
X137454990Y-102854410D01*
X137454994Y-102854413D01*
X137454995Y-102854414D01*
X137614947Y-102985683D01*
X137614948Y-102985683D01*
X137614950Y-102985685D01*
X137797446Y-103083232D01*
X137819521Y-103089928D01*
X137823829Y-103091455D01*
X137830030Y-103093982D01*
X137830032Y-103093983D01*
X137968041Y-103134980D01*
X137990247Y-103141716D01*
X137995887Y-103143428D01*
X137999392Y-103144294D01*
X138194449Y-103202239D01*
X138194460Y-103202241D01*
X138194461Y-103202242D01*
X138203976Y-103204580D01*
X138203985Y-103204582D01*
X138203998Y-103204585D01*
X138215815Y-103206895D01*
X138215820Y-103206895D01*
X138215827Y-103206897D01*
X138219689Y-103207462D01*
X138225500Y-103208314D01*
X138523224Y-103237536D01*
X138523259Y-103237538D01*
X138523290Y-103237542D01*
X138605941Y-103244526D01*
X138738299Y-103255711D01*
X138762760Y-103260950D01*
X138930934Y-103320019D01*
X138959379Y-103335649D01*
X139204527Y-103528730D01*
X139207008Y-103530086D01*
X139229516Y-103546945D01*
X141082304Y-105399733D01*
X141110081Y-105454250D01*
X141111300Y-105469737D01*
X141111300Y-106344111D01*
X141107604Y-106370908D01*
X141106081Y-106376321D01*
X141106080Y-106376331D01*
X141099709Y-106458102D01*
X141095432Y-106480161D01*
X141088478Y-106502233D01*
X141079924Y-106521753D01*
X141057646Y-106560580D01*
X141056691Y-106562174D01*
X141014541Y-106629636D01*
X141008432Y-106639416D01*
X141006794Y-106642037D01*
X141004153Y-106646514D01*
X141004123Y-106646566D01*
X141001314Y-106651615D01*
X140998809Y-106656408D01*
X140998789Y-106656448D01*
X140944862Y-106766544D01*
X140943533Y-106769365D01*
X140942594Y-106771438D01*
X140942592Y-106771442D01*
X140940392Y-106781567D01*
X140933705Y-106801663D01*
X140916635Y-106839042D01*
X140916633Y-106839047D01*
X140896153Y-106981497D01*
X140896153Y-106981502D01*
X140916634Y-107123956D01*
X140970850Y-107242671D01*
X140976423Y-107254873D01*
X140987861Y-107268073D01*
X141070673Y-107363644D01*
X141172763Y-107429253D01*
X141191747Y-107441453D01*
X141281648Y-107467850D01*
X141329835Y-107481999D01*
X141329836Y-107481999D01*
X141329839Y-107482000D01*
X141329841Y-107482000D01*
X141473759Y-107482000D01*
X141473761Y-107482000D01*
X141611853Y-107441453D01*
X141732928Y-107363643D01*
X141827177Y-107254873D01*
X141886965Y-107123957D01*
X141903651Y-107007902D01*
X141907447Y-106981502D01*
X141907447Y-106981497D01*
X141888863Y-106852242D01*
X141886965Y-106839043D01*
X141871498Y-106805175D01*
X141868227Y-106798013D01*
X141862585Y-106782253D01*
X141858050Y-106765146D01*
X141858049Y-106765142D01*
X141804795Y-106656423D01*
X141802324Y-106651693D01*
X141802301Y-106651651D01*
X141802282Y-106651616D01*
X141799488Y-106646593D01*
X141799460Y-106646542D01*
X141796795Y-106642024D01*
X141795165Y-106639416D01*
X141788339Y-106628490D01*
X141746894Y-106562159D01*
X141745984Y-106560640D01*
X141723672Y-106521751D01*
X141715122Y-106502245D01*
X141708163Y-106480158D01*
X141703888Y-106458104D01*
X141697519Y-106376329D01*
X141696108Y-106370908D01*
X141695493Y-106368545D01*
X141692300Y-106343605D01*
X141692300Y-105368427D01*
X141692775Y-105361580D01*
X141694498Y-105349227D01*
X141692353Y-105302839D01*
X141692300Y-105300553D01*
X141692300Y-105281486D01*
X141692300Y-105281482D01*
X141691689Y-105278218D01*
X141690899Y-105271415D01*
X141689482Y-105240738D01*
X141685797Y-105232392D01*
X141679049Y-105210600D01*
X141677375Y-105201642D01*
X141661206Y-105175528D01*
X141658018Y-105169480D01*
X141645613Y-105141384D01*
X141639161Y-105134932D01*
X141625001Y-105117054D01*
X141620201Y-105109301D01*
X141595702Y-105090800D01*
X141590527Y-105086297D01*
X139640252Y-103136023D01*
X139625024Y-103115050D01*
X139624751Y-103115225D01*
X139622133Y-103111132D01*
X139622130Y-103111128D01*
X139622129Y-103111126D01*
X139429052Y-102865983D01*
X139413423Y-102837540D01*
X139354353Y-102669368D01*
X139349111Y-102644896D01*
X139330945Y-102429922D01*
X139330942Y-102429897D01*
X139330939Y-102429855D01*
X139301714Y-102132100D01*
X139300295Y-102122415D01*
X139297985Y-102110598D01*
X139297972Y-102110546D01*
X139297347Y-102108003D01*
X139685817Y-102108003D01*
X139706098Y-102313929D01*
X139706099Y-102313934D01*
X139766168Y-102511954D01*
X139863716Y-102694452D01*
X139977430Y-102833013D01*
X139994990Y-102854410D01*
X139994994Y-102854413D01*
X139994995Y-102854414D01*
X140154947Y-102985683D01*
X140154948Y-102985683D01*
X140154950Y-102985685D01*
X140337446Y-103083232D01*
X140359521Y-103089928D01*
X140363829Y-103091455D01*
X140370030Y-103093982D01*
X140370032Y-103093983D01*
X140508041Y-103134980D01*
X140530247Y-103141716D01*
X140535887Y-103143428D01*
X140539392Y-103144294D01*
X140734449Y-103202239D01*
X140734460Y-103202241D01*
X140734461Y-103202242D01*
X140743976Y-103204580D01*
X140743985Y-103204582D01*
X140743998Y-103204585D01*
X140755815Y-103206895D01*
X140755820Y-103206895D01*
X140755827Y-103206897D01*
X140759689Y-103207462D01*
X140765500Y-103208314D01*
X141063224Y-103237536D01*
X141063259Y-103237538D01*
X141063290Y-103237542D01*
X141145941Y-103244526D01*
X141278299Y-103255711D01*
X141302760Y-103260950D01*
X141470934Y-103320019D01*
X141499379Y-103335649D01*
X141744527Y-103528730D01*
X141747008Y-103530086D01*
X141769516Y-103546945D01*
X142657104Y-104434533D01*
X142684881Y-104489050D01*
X142686100Y-104504537D01*
X142686100Y-106344111D01*
X142682404Y-106370908D01*
X142680881Y-106376321D01*
X142680880Y-106376331D01*
X142674509Y-106458102D01*
X142670232Y-106480161D01*
X142663278Y-106502233D01*
X142654724Y-106521753D01*
X142632446Y-106560580D01*
X142631491Y-106562174D01*
X142589341Y-106629636D01*
X142583232Y-106639416D01*
X142581594Y-106642037D01*
X142578953Y-106646514D01*
X142578923Y-106646566D01*
X142576114Y-106651615D01*
X142573609Y-106656408D01*
X142573589Y-106656448D01*
X142519662Y-106766544D01*
X142518333Y-106769365D01*
X142517394Y-106771438D01*
X142517392Y-106771442D01*
X142515192Y-106781567D01*
X142508505Y-106801663D01*
X142491435Y-106839042D01*
X142491433Y-106839047D01*
X142470953Y-106981497D01*
X142470953Y-106981502D01*
X142491434Y-107123956D01*
X142545650Y-107242671D01*
X142551223Y-107254873D01*
X142562661Y-107268073D01*
X142645473Y-107363644D01*
X142747563Y-107429253D01*
X142766547Y-107441453D01*
X142856448Y-107467850D01*
X142904635Y-107481999D01*
X142904636Y-107481999D01*
X142904639Y-107482000D01*
X142904641Y-107482000D01*
X143048559Y-107482000D01*
X143048561Y-107482000D01*
X143186653Y-107441453D01*
X143307728Y-107363643D01*
X143401977Y-107254873D01*
X143461765Y-107123957D01*
X143478451Y-107007902D01*
X143482247Y-106981502D01*
X143482247Y-106981497D01*
X143463663Y-106852242D01*
X143461765Y-106839043D01*
X143446298Y-106805175D01*
X143443027Y-106798013D01*
X143437385Y-106782253D01*
X143432850Y-106765146D01*
X143432849Y-106765142D01*
X143379595Y-106656423D01*
X143377124Y-106651693D01*
X143377101Y-106651651D01*
X143377082Y-106651616D01*
X143374288Y-106646593D01*
X143374260Y-106646542D01*
X143371595Y-106642024D01*
X143369965Y-106639416D01*
X143363139Y-106628490D01*
X143321694Y-106562159D01*
X143320784Y-106560640D01*
X143298472Y-106521751D01*
X143289922Y-106502245D01*
X143282963Y-106480158D01*
X143278688Y-106458104D01*
X143272319Y-106376329D01*
X143270908Y-106370908D01*
X143270293Y-106368545D01*
X143267100Y-106343605D01*
X143267100Y-104403227D01*
X143267575Y-104396380D01*
X143269298Y-104384027D01*
X143267153Y-104337639D01*
X143267100Y-104335353D01*
X143267100Y-104316286D01*
X143267100Y-104316282D01*
X143266489Y-104313018D01*
X143265699Y-104306215D01*
X143264282Y-104275538D01*
X143260597Y-104267192D01*
X143253849Y-104245400D01*
X143252175Y-104236442D01*
X143236006Y-104210328D01*
X143232818Y-104204280D01*
X143220413Y-104176184D01*
X143213961Y-104169732D01*
X143199801Y-104151854D01*
X143195001Y-104144101D01*
X143170502Y-104125600D01*
X143165327Y-104121097D01*
X142180252Y-103136023D01*
X142165024Y-103115050D01*
X142164751Y-103115225D01*
X142162133Y-103111132D01*
X142162130Y-103111128D01*
X142162129Y-103111126D01*
X141969052Y-102865983D01*
X141953423Y-102837540D01*
X141894353Y-102669368D01*
X141889111Y-102644896D01*
X141870945Y-102429922D01*
X141870942Y-102429897D01*
X141870939Y-102429855D01*
X141841714Y-102132100D01*
X141840295Y-102122415D01*
X141837985Y-102110598D01*
X141837972Y-102110546D01*
X141837347Y-102108003D01*
X142225817Y-102108003D01*
X142246098Y-102313929D01*
X142246099Y-102313934D01*
X142306168Y-102511954D01*
X142403716Y-102694452D01*
X142517430Y-102833013D01*
X142534990Y-102854410D01*
X142534994Y-102854413D01*
X142534995Y-102854414D01*
X142694947Y-102985683D01*
X142694948Y-102985683D01*
X142694950Y-102985685D01*
X142877446Y-103083232D01*
X142899521Y-103089928D01*
X142903829Y-103091455D01*
X142910030Y-103093982D01*
X142910032Y-103093983D01*
X143048041Y-103134980D01*
X143070247Y-103141716D01*
X143075887Y-103143428D01*
X143079392Y-103144294D01*
X143274449Y-103202239D01*
X143274460Y-103202241D01*
X143274461Y-103202242D01*
X143283976Y-103204580D01*
X143283985Y-103204582D01*
X143283998Y-103204585D01*
X143295815Y-103206895D01*
X143295820Y-103206895D01*
X143295827Y-103206897D01*
X143299689Y-103207462D01*
X143305500Y-103208314D01*
X143603224Y-103237536D01*
X143603259Y-103237538D01*
X143603290Y-103237542D01*
X143685941Y-103244526D01*
X143818299Y-103255711D01*
X143842760Y-103260950D01*
X144010934Y-103320019D01*
X144039379Y-103335649D01*
X144223156Y-103480393D01*
X144257171Y-103531250D01*
X144260900Y-103558166D01*
X144260900Y-106344111D01*
X144257204Y-106370908D01*
X144255681Y-106376321D01*
X144255680Y-106376331D01*
X144249309Y-106458102D01*
X144245032Y-106480161D01*
X144238078Y-106502233D01*
X144229524Y-106521753D01*
X144207246Y-106560580D01*
X144206291Y-106562174D01*
X144164141Y-106629636D01*
X144158032Y-106639416D01*
X144156394Y-106642037D01*
X144153753Y-106646514D01*
X144153723Y-106646566D01*
X144150914Y-106651615D01*
X144148409Y-106656408D01*
X144148389Y-106656448D01*
X144094462Y-106766544D01*
X144093133Y-106769365D01*
X144092194Y-106771438D01*
X144092192Y-106771442D01*
X144089992Y-106781567D01*
X144083305Y-106801663D01*
X144066235Y-106839042D01*
X144066233Y-106839047D01*
X144045753Y-106981497D01*
X144045753Y-106981502D01*
X144066234Y-107123956D01*
X144120450Y-107242671D01*
X144126023Y-107254873D01*
X144137461Y-107268073D01*
X144220273Y-107363644D01*
X144322363Y-107429253D01*
X144341347Y-107441453D01*
X144431248Y-107467850D01*
X144479435Y-107481999D01*
X144479436Y-107481999D01*
X144479439Y-107482000D01*
X144479441Y-107482000D01*
X144623359Y-107482000D01*
X144623361Y-107482000D01*
X144761453Y-107441453D01*
X144882528Y-107363643D01*
X144976777Y-107254873D01*
X145036565Y-107123957D01*
X145053251Y-107007902D01*
X145057047Y-106981502D01*
X145057047Y-106981497D01*
X145038463Y-106852242D01*
X145036565Y-106839043D01*
X145021098Y-106805175D01*
X145017827Y-106798013D01*
X145012185Y-106782253D01*
X145007650Y-106765146D01*
X145007649Y-106765142D01*
X144954395Y-106656423D01*
X144951924Y-106651693D01*
X144951901Y-106651651D01*
X144951882Y-106651616D01*
X144949088Y-106646593D01*
X144949060Y-106646542D01*
X144946395Y-106642024D01*
X144944765Y-106639416D01*
X144937939Y-106628490D01*
X144896494Y-106562159D01*
X144895584Y-106560640D01*
X144873272Y-106521751D01*
X144864722Y-106502245D01*
X144857763Y-106480158D01*
X144853488Y-106458104D01*
X144847119Y-106376329D01*
X144845708Y-106370908D01*
X144845093Y-106368545D01*
X144841900Y-106343605D01*
X144841900Y-103438027D01*
X144842375Y-103431180D01*
X144844098Y-103418827D01*
X144841953Y-103372439D01*
X144841900Y-103370153D01*
X144841900Y-103351086D01*
X144841900Y-103351082D01*
X144841289Y-103347818D01*
X144840499Y-103341015D01*
X144839082Y-103310338D01*
X144835397Y-103301992D01*
X144828649Y-103280200D01*
X144826975Y-103271242D01*
X144810806Y-103245128D01*
X144807618Y-103239080D01*
X144795213Y-103210984D01*
X144788761Y-103204532D01*
X144774601Y-103186654D01*
X144769801Y-103178901D01*
X144745302Y-103160400D01*
X144740127Y-103155897D01*
X144720252Y-103136023D01*
X144705024Y-103115050D01*
X144704751Y-103115225D01*
X144702133Y-103111132D01*
X144702130Y-103111128D01*
X144702129Y-103111126D01*
X144509052Y-102865983D01*
X144493423Y-102837540D01*
X144434353Y-102669368D01*
X144429111Y-102644896D01*
X144410945Y-102429922D01*
X144410942Y-102429897D01*
X144410939Y-102429855D01*
X144381714Y-102132100D01*
X144380295Y-102122415D01*
X144377985Y-102110598D01*
X144377972Y-102110546D01*
X144377347Y-102108003D01*
X144765817Y-102108003D01*
X144786098Y-102313929D01*
X144786099Y-102313934D01*
X144846168Y-102511954D01*
X144943716Y-102694452D01*
X145057430Y-102833013D01*
X145074990Y-102854410D01*
X145081125Y-102859445D01*
X145088357Y-102865380D01*
X145092512Y-102869206D01*
X145097167Y-102874012D01*
X145343996Y-103083230D01*
X145353435Y-103091231D01*
X145357663Y-103094627D01*
X145362443Y-103098264D01*
X145366793Y-103101397D01*
X145583395Y-103249001D01*
X145587172Y-103251850D01*
X145608877Y-103269916D01*
X145709111Y-103353344D01*
X145731983Y-103380755D01*
X145761399Y-103432847D01*
X145787787Y-103479575D01*
X145799800Y-103515839D01*
X145830308Y-103757207D01*
X145831030Y-103762912D01*
X145831546Y-103764636D01*
X145835700Y-103793012D01*
X145835700Y-106344111D01*
X145832004Y-106370908D01*
X145830481Y-106376321D01*
X145830480Y-106376331D01*
X145824109Y-106458102D01*
X145819832Y-106480161D01*
X145812878Y-106502233D01*
X145804324Y-106521753D01*
X145782046Y-106560580D01*
X145781091Y-106562174D01*
X145738941Y-106629636D01*
X145732832Y-106639416D01*
X145731194Y-106642037D01*
X145728553Y-106646514D01*
X145728523Y-106646566D01*
X145725714Y-106651615D01*
X145723209Y-106656408D01*
X145723189Y-106656448D01*
X145669262Y-106766544D01*
X145667933Y-106769365D01*
X145666994Y-106771438D01*
X145666992Y-106771442D01*
X145664792Y-106781567D01*
X145658105Y-106801663D01*
X145641035Y-106839042D01*
X145641033Y-106839047D01*
X145620553Y-106981497D01*
X145620553Y-106981502D01*
X145641034Y-107123956D01*
X145695250Y-107242671D01*
X145700823Y-107254873D01*
X145712261Y-107268073D01*
X145795073Y-107363644D01*
X145897163Y-107429253D01*
X145916147Y-107441453D01*
X146006048Y-107467850D01*
X146054235Y-107481999D01*
X146054236Y-107481999D01*
X146054239Y-107482000D01*
X146054241Y-107482000D01*
X146198159Y-107482000D01*
X146198161Y-107482000D01*
X146336253Y-107441453D01*
X146457328Y-107363643D01*
X146551577Y-107254873D01*
X146611365Y-107123957D01*
X146628051Y-107007902D01*
X146631847Y-106981502D01*
X146631847Y-106981497D01*
X146630094Y-106969302D01*
X147195353Y-106969302D01*
X147215834Y-107111756D01*
X147233463Y-107150357D01*
X147275623Y-107242673D01*
X147309070Y-107281273D01*
X147369873Y-107351444D01*
X147429936Y-107390044D01*
X147490947Y-107429253D01*
X147597403Y-107460511D01*
X147629035Y-107469799D01*
X147629036Y-107469799D01*
X147629039Y-107469800D01*
X147629041Y-107469800D01*
X147772959Y-107469800D01*
X147772961Y-107469800D01*
X147911053Y-107429253D01*
X148032128Y-107351443D01*
X148126377Y-107242673D01*
X148186165Y-107111757D01*
X148202995Y-106994702D01*
X148770153Y-106994702D01*
X148790634Y-107137156D01*
X148796663Y-107150357D01*
X148850423Y-107268073D01*
X148861861Y-107281273D01*
X148944673Y-107376844D01*
X149045207Y-107441453D01*
X149065747Y-107454653D01*
X149172203Y-107485911D01*
X149203835Y-107495199D01*
X149203836Y-107495199D01*
X149203839Y-107495200D01*
X149203841Y-107495200D01*
X149347759Y-107495200D01*
X149347761Y-107495200D01*
X149485853Y-107454653D01*
X149606928Y-107376843D01*
X149701177Y-107268073D01*
X149760965Y-107137157D01*
X149779549Y-107007902D01*
X150344953Y-107007902D01*
X150365434Y-107150356D01*
X150407594Y-107242671D01*
X150425223Y-107281273D01*
X150508034Y-107376843D01*
X150519473Y-107390044D01*
X150620007Y-107454653D01*
X150640547Y-107467853D01*
X150747003Y-107499111D01*
X150778635Y-107508399D01*
X150778636Y-107508399D01*
X150778639Y-107508400D01*
X150778641Y-107508400D01*
X150922559Y-107508400D01*
X150922561Y-107508400D01*
X151060653Y-107467853D01*
X151181728Y-107390043D01*
X151275977Y-107281273D01*
X151335765Y-107150357D01*
X151356247Y-107007902D01*
X151919753Y-107007902D01*
X151940234Y-107150356D01*
X151982394Y-107242671D01*
X152000023Y-107281273D01*
X152082834Y-107376843D01*
X152094273Y-107390044D01*
X152194807Y-107454653D01*
X152215347Y-107467853D01*
X152321803Y-107499111D01*
X152353435Y-107508399D01*
X152353436Y-107508399D01*
X152353439Y-107508400D01*
X152353441Y-107508400D01*
X152497359Y-107508400D01*
X152497361Y-107508400D01*
X152635453Y-107467853D01*
X152756528Y-107390043D01*
X152850777Y-107281273D01*
X152910565Y-107150357D01*
X152931047Y-107007900D01*
X152929149Y-106994702D01*
X152915685Y-106901057D01*
X152910565Y-106865443D01*
X152893494Y-106828063D01*
X152891827Y-106824413D01*
X152886185Y-106808653D01*
X152881650Y-106791546D01*
X152881649Y-106791542D01*
X152828395Y-106682823D01*
X152825924Y-106678093D01*
X152825901Y-106678051D01*
X152825882Y-106678016D01*
X152823088Y-106672993D01*
X152823060Y-106672942D01*
X152820395Y-106668424D01*
X152770494Y-106588559D01*
X152769584Y-106587040D01*
X152747272Y-106548151D01*
X152738722Y-106528645D01*
X152731763Y-106506558D01*
X152727488Y-106484504D01*
X152721119Y-106402729D01*
X152719093Y-106394945D01*
X152715900Y-106370005D01*
X152715900Y-105825336D01*
X152734807Y-105767145D01*
X152744890Y-105755338D01*
X154696415Y-103803812D01*
X154712797Y-103790597D01*
X154713226Y-103790320D01*
X154713230Y-103790319D01*
X155042676Y-103578070D01*
X155046868Y-103575652D01*
X155325139Y-103432847D01*
X155371218Y-103409200D01*
X155376139Y-103407003D01*
X155696846Y-103284455D01*
X155702442Y-103282690D01*
X156019954Y-103202982D01*
X156026103Y-103201847D01*
X156349604Y-103163039D01*
X156363359Y-103160430D01*
X156363359Y-103160429D01*
X156364387Y-103160235D01*
X156382839Y-103158500D01*
X156851147Y-103158500D01*
X156851148Y-103158500D01*
X156909631Y-103146867D01*
X156975952Y-103102552D01*
X157020267Y-103036231D01*
X157031900Y-102977748D01*
X157031900Y-101238252D01*
X157030321Y-101230316D01*
X157029111Y-101224231D01*
X157020267Y-101179769D01*
X156975952Y-101113448D01*
X156975948Y-101113445D01*
X156909633Y-101069134D01*
X156909631Y-101069133D01*
X156909628Y-101069132D01*
X156909627Y-101069132D01*
X156851158Y-101057501D01*
X156851148Y-101057500D01*
X155111652Y-101057500D01*
X155111651Y-101057500D01*
X155111641Y-101057501D01*
X155053172Y-101069132D01*
X155053166Y-101069134D01*
X154986851Y-101113445D01*
X154986845Y-101113451D01*
X154942534Y-101179766D01*
X154942532Y-101179772D01*
X154930901Y-101238241D01*
X154930900Y-101238253D01*
X154930900Y-101694316D01*
X154926652Y-101723002D01*
X154805728Y-102122427D01*
X154802951Y-102131598D01*
X154802470Y-102133098D01*
X154672435Y-102518007D01*
X154671778Y-102519833D01*
X154542870Y-102857187D01*
X154541943Y-102859445D01*
X154414811Y-103148542D01*
X154413454Y-103151380D01*
X154298347Y-103373651D01*
X154280440Y-103398129D01*
X152262427Y-105416141D01*
X152257252Y-105420645D01*
X152247300Y-105428160D01*
X152216001Y-105462493D01*
X152214425Y-105464144D01*
X152200957Y-105477612D01*
X152200945Y-105477628D01*
X152199070Y-105480364D01*
X152194817Y-105485731D01*
X152174135Y-105508419D01*
X152174132Y-105508424D01*
X152170836Y-105516931D01*
X152160205Y-105537101D01*
X152155051Y-105544625D01*
X152155049Y-105544629D01*
X152148019Y-105574517D01*
X152145989Y-105581070D01*
X152134899Y-105609695D01*
X152134900Y-105618810D01*
X152132270Y-105641478D01*
X152130183Y-105650350D01*
X152134425Y-105680761D01*
X152134900Y-105687607D01*
X152134900Y-106370511D01*
X152131204Y-106397308D01*
X152129681Y-106402721D01*
X152129680Y-106402731D01*
X152123309Y-106484502D01*
X152119032Y-106506561D01*
X152112078Y-106528633D01*
X152103524Y-106548153D01*
X152081246Y-106586980D01*
X152080291Y-106588574D01*
X152030394Y-106668437D01*
X152027753Y-106672914D01*
X152027723Y-106672966D01*
X152024914Y-106678015D01*
X152022409Y-106682808D01*
X152022389Y-106682848D01*
X151968462Y-106792944D01*
X151967120Y-106795792D01*
X151966194Y-106797838D01*
X151966192Y-106797842D01*
X151963992Y-106807967D01*
X151957305Y-106828063D01*
X151940235Y-106865442D01*
X151940233Y-106865447D01*
X151919753Y-107007897D01*
X151919753Y-107007902D01*
X151356247Y-107007902D01*
X151356247Y-107007900D01*
X151354349Y-106994702D01*
X151340885Y-106901057D01*
X151335765Y-106865443D01*
X151318694Y-106828063D01*
X151317027Y-106824413D01*
X151311385Y-106808653D01*
X151306850Y-106791546D01*
X151306849Y-106791542D01*
X151253595Y-106682823D01*
X151251124Y-106678093D01*
X151251101Y-106678051D01*
X151251082Y-106678016D01*
X151248288Y-106672993D01*
X151248260Y-106672942D01*
X151245595Y-106668424D01*
X151195694Y-106588559D01*
X151194784Y-106587040D01*
X151172472Y-106548151D01*
X151163922Y-106528645D01*
X151156963Y-106506558D01*
X151152688Y-106484504D01*
X151146319Y-106402729D01*
X151144293Y-106394945D01*
X151141100Y-106370005D01*
X151141100Y-104860136D01*
X151160007Y-104801945D01*
X151170090Y-104790138D01*
X152413378Y-103546849D01*
X152434345Y-103531626D01*
X152434170Y-103531353D01*
X152438265Y-103528733D01*
X152438264Y-103528733D01*
X152438273Y-103528729D01*
X152683416Y-103335649D01*
X152711856Y-103320021D01*
X152880027Y-103260952D01*
X152904488Y-103255712D01*
X153119563Y-103237536D01*
X153417297Y-103208314D01*
X153426983Y-103206895D01*
X153426990Y-103206893D01*
X153427000Y-103206892D01*
X153438775Y-103204590D01*
X153438780Y-103204588D01*
X153438800Y-103204585D01*
X153438815Y-103204581D01*
X153438821Y-103204580D01*
X153443112Y-103203525D01*
X153448349Y-103202239D01*
X153643392Y-103144297D01*
X153646910Y-103143428D01*
X153647330Y-103143300D01*
X153647334Y-103143300D01*
X153674863Y-103134949D01*
X153815324Y-103093223D01*
X153820397Y-103091572D01*
X153824044Y-103090279D01*
X153824045Y-103090278D01*
X153829234Y-103088439D01*
X153829286Y-103088585D01*
X153834715Y-103086458D01*
X153845354Y-103083232D01*
X154027850Y-102985685D01*
X154187810Y-102854410D01*
X154319085Y-102694450D01*
X154416632Y-102511954D01*
X154476700Y-102313934D01*
X154476701Y-102313929D01*
X154496983Y-102108003D01*
X154496983Y-102107996D01*
X154476701Y-101902070D01*
X154476700Y-101902065D01*
X154458478Y-101841996D01*
X154416632Y-101704046D01*
X154319085Y-101521550D01*
X154187810Y-101361590D01*
X154037523Y-101238253D01*
X154027852Y-101230316D01*
X153845354Y-101132768D01*
X153647334Y-101072699D01*
X153647329Y-101072698D01*
X153441403Y-101052417D01*
X153441397Y-101052417D01*
X153235470Y-101072698D01*
X153235465Y-101072699D01*
X153037445Y-101132768D01*
X152854947Y-101230316D01*
X152694995Y-101361585D01*
X152694985Y-101361595D01*
X152563716Y-101521547D01*
X152466170Y-101704041D01*
X152466167Y-101704048D01*
X152459472Y-101726118D01*
X152457945Y-101730427D01*
X152455417Y-101736629D01*
X152414399Y-101874707D01*
X152405971Y-101902489D01*
X152405099Y-101906009D01*
X152347169Y-102101016D01*
X152347160Y-102101047D01*
X152344828Y-102110532D01*
X152344822Y-102110557D01*
X152342516Y-102122333D01*
X152342506Y-102122389D01*
X152341087Y-102132066D01*
X152311856Y-102429885D01*
X152293686Y-102644897D01*
X152288444Y-102669368D01*
X152229376Y-102837536D01*
X152213744Y-102865983D01*
X152020666Y-103111130D01*
X152019307Y-103113616D01*
X152002452Y-103136117D01*
X150687627Y-104450941D01*
X150682452Y-104455445D01*
X150672500Y-104462960D01*
X150641201Y-104497293D01*
X150639625Y-104498944D01*
X150626157Y-104512412D01*
X150626145Y-104512428D01*
X150624270Y-104515164D01*
X150620017Y-104520531D01*
X150599335Y-104543219D01*
X150599332Y-104543224D01*
X150596036Y-104551731D01*
X150585405Y-104571901D01*
X150580251Y-104579425D01*
X150580249Y-104579429D01*
X150573219Y-104609317D01*
X150571189Y-104615870D01*
X150560099Y-104644495D01*
X150560100Y-104653610D01*
X150557470Y-104676278D01*
X150555383Y-104685150D01*
X150559625Y-104715561D01*
X150560100Y-104722407D01*
X150560100Y-106370511D01*
X150556404Y-106397308D01*
X150554881Y-106402721D01*
X150554880Y-106402731D01*
X150548509Y-106484502D01*
X150544232Y-106506561D01*
X150537278Y-106528633D01*
X150528724Y-106548153D01*
X150506446Y-106586980D01*
X150505491Y-106588574D01*
X150455594Y-106668437D01*
X150452953Y-106672914D01*
X150452923Y-106672966D01*
X150450114Y-106678015D01*
X150447609Y-106682808D01*
X150447589Y-106682848D01*
X150393662Y-106792944D01*
X150392320Y-106795792D01*
X150391394Y-106797838D01*
X150391392Y-106797842D01*
X150389192Y-106807967D01*
X150382505Y-106828063D01*
X150365435Y-106865442D01*
X150365433Y-106865447D01*
X150344953Y-107007897D01*
X150344953Y-107007902D01*
X149779549Y-107007902D01*
X149781447Y-106994700D01*
X149779549Y-106981502D01*
X149762863Y-106865442D01*
X149760965Y-106852243D01*
X149745498Y-106818375D01*
X149742227Y-106811213D01*
X149736585Y-106795453D01*
X149732050Y-106778346D01*
X149732049Y-106778342D01*
X149678795Y-106669623D01*
X149676324Y-106664893D01*
X149676301Y-106664851D01*
X149676282Y-106664816D01*
X149673488Y-106659793D01*
X149673460Y-106659742D01*
X149670795Y-106655224D01*
X149620894Y-106575359D01*
X149619984Y-106573840D01*
X149597672Y-106534951D01*
X149589122Y-106515445D01*
X149582163Y-106493358D01*
X149577888Y-106471304D01*
X149571519Y-106389529D01*
X149570108Y-106384108D01*
X149569493Y-106381745D01*
X149566300Y-106356805D01*
X149566300Y-103894935D01*
X149585207Y-103836744D01*
X149595290Y-103824938D01*
X149873376Y-103546851D01*
X149894345Y-103531626D01*
X149894170Y-103531353D01*
X149898265Y-103528733D01*
X149898264Y-103528733D01*
X149898273Y-103528729D01*
X150143416Y-103335649D01*
X150171856Y-103320021D01*
X150340027Y-103260952D01*
X150364488Y-103255712D01*
X150579563Y-103237536D01*
X150877297Y-103208314D01*
X150886983Y-103206895D01*
X150886990Y-103206893D01*
X150887000Y-103206892D01*
X150898775Y-103204590D01*
X150898780Y-103204588D01*
X150898800Y-103204585D01*
X150898815Y-103204581D01*
X150898821Y-103204580D01*
X150903112Y-103203525D01*
X150908349Y-103202239D01*
X151103392Y-103144297D01*
X151106910Y-103143428D01*
X151107330Y-103143300D01*
X151107334Y-103143300D01*
X151134863Y-103134949D01*
X151275324Y-103093223D01*
X151280397Y-103091572D01*
X151284044Y-103090279D01*
X151284045Y-103090278D01*
X151289234Y-103088439D01*
X151289286Y-103088585D01*
X151294715Y-103086458D01*
X151305354Y-103083232D01*
X151487850Y-102985685D01*
X151647810Y-102854410D01*
X151779085Y-102694450D01*
X151876632Y-102511954D01*
X151936700Y-102313934D01*
X151936701Y-102313929D01*
X151956983Y-102108003D01*
X151956983Y-102107996D01*
X151936701Y-101902070D01*
X151936700Y-101902065D01*
X151918478Y-101841996D01*
X151876632Y-101704046D01*
X151779085Y-101521550D01*
X151647810Y-101361590D01*
X151497523Y-101238253D01*
X151487852Y-101230316D01*
X151305354Y-101132768D01*
X151107334Y-101072699D01*
X151107329Y-101072698D01*
X150901403Y-101052417D01*
X150901397Y-101052417D01*
X150695470Y-101072698D01*
X150695465Y-101072699D01*
X150497445Y-101132768D01*
X150314947Y-101230316D01*
X150154995Y-101361585D01*
X150154985Y-101361595D01*
X150023716Y-101521547D01*
X149926170Y-101704041D01*
X149926167Y-101704048D01*
X149919472Y-101726118D01*
X149917945Y-101730427D01*
X149915417Y-101736629D01*
X149874399Y-101874707D01*
X149865971Y-101902489D01*
X149865099Y-101906009D01*
X149807169Y-102101016D01*
X149807160Y-102101047D01*
X149804828Y-102110532D01*
X149804822Y-102110557D01*
X149802516Y-102122333D01*
X149802506Y-102122389D01*
X149801087Y-102132066D01*
X149771856Y-102429885D01*
X149753686Y-102644897D01*
X149748444Y-102669368D01*
X149689376Y-102837536D01*
X149673744Y-102865983D01*
X149480666Y-103111130D01*
X149479307Y-103113616D01*
X149462452Y-103136117D01*
X149112827Y-103485741D01*
X149107652Y-103490245D01*
X149097700Y-103497760D01*
X149066401Y-103532093D01*
X149064825Y-103533744D01*
X149051357Y-103547212D01*
X149051345Y-103547228D01*
X149049470Y-103549964D01*
X149045217Y-103555331D01*
X149024535Y-103578019D01*
X149024532Y-103578024D01*
X149021236Y-103586531D01*
X149010605Y-103606701D01*
X149005451Y-103614225D01*
X149005449Y-103614229D01*
X148998419Y-103644117D01*
X148996389Y-103650670D01*
X148985299Y-103679295D01*
X148985300Y-103688410D01*
X148982670Y-103711078D01*
X148980583Y-103719950D01*
X148984825Y-103750361D01*
X148985300Y-103757207D01*
X148985300Y-106357311D01*
X148981604Y-106384108D01*
X148980081Y-106389521D01*
X148980080Y-106389531D01*
X148973709Y-106471302D01*
X148969432Y-106493361D01*
X148962478Y-106515433D01*
X148953924Y-106534953D01*
X148931646Y-106573780D01*
X148930691Y-106575374D01*
X148880794Y-106655237D01*
X148878153Y-106659714D01*
X148878123Y-106659766D01*
X148875314Y-106664815D01*
X148872809Y-106669608D01*
X148872789Y-106669648D01*
X148818862Y-106779744D01*
X148817520Y-106782592D01*
X148816594Y-106784638D01*
X148816592Y-106784642D01*
X148814392Y-106794767D01*
X148807705Y-106814863D01*
X148790635Y-106852242D01*
X148790633Y-106852247D01*
X148770153Y-106994697D01*
X148770153Y-106994702D01*
X148202995Y-106994702D01*
X148204893Y-106981500D01*
X148206647Y-106969302D01*
X148206647Y-106969297D01*
X148191285Y-106862457D01*
X148186165Y-106826843D01*
X148172919Y-106797839D01*
X148167427Y-106785813D01*
X148161785Y-106770053D01*
X148157250Y-106752946D01*
X148157249Y-106752942D01*
X148103995Y-106644223D01*
X148101524Y-106639493D01*
X148101501Y-106639451D01*
X148101482Y-106639416D01*
X148098688Y-106634393D01*
X148098660Y-106634342D01*
X148095995Y-106629824D01*
X148046104Y-106549974D01*
X148045161Y-106548399D01*
X148022872Y-106509551D01*
X148014318Y-106490035D01*
X148011207Y-106480161D01*
X148007364Y-106467963D01*
X148003088Y-106445907D01*
X147996719Y-106364129D01*
X147995308Y-106358708D01*
X147994693Y-106356345D01*
X147991500Y-106331405D01*
X147991500Y-103590989D01*
X147994111Y-103568402D01*
X147997174Y-103555331D01*
X148038618Y-103378467D01*
X148070303Y-103326126D01*
X148076421Y-103321251D01*
X148130649Y-103281453D01*
X148165289Y-103265204D01*
X148381760Y-103211293D01*
X148383228Y-103210911D01*
X148383746Y-103210777D01*
X148383772Y-103210770D01*
X148386815Y-103209946D01*
X148701641Y-103118501D01*
X148723913Y-103110131D01*
X148731144Y-103107414D01*
X148731156Y-103107409D01*
X148734395Y-103105899D01*
X148761809Y-103090460D01*
X148799498Y-103065251D01*
X148803648Y-103062762D01*
X148912873Y-103004380D01*
X148947849Y-102985686D01*
X148988374Y-102952428D01*
X149107810Y-102854410D01*
X149239085Y-102694450D01*
X149336632Y-102511954D01*
X149396700Y-102313934D01*
X149396701Y-102313929D01*
X149416983Y-102108003D01*
X149416983Y-102107996D01*
X149396701Y-101902070D01*
X149396700Y-101902065D01*
X149378478Y-101841996D01*
X149336632Y-101704046D01*
X149239085Y-101521550D01*
X149107810Y-101361590D01*
X148957523Y-101238253D01*
X148947852Y-101230316D01*
X148765354Y-101132768D01*
X148567334Y-101072699D01*
X148567329Y-101072698D01*
X148361403Y-101052417D01*
X148361397Y-101052417D01*
X148155470Y-101072698D01*
X148155465Y-101072699D01*
X147957445Y-101132768D01*
X147774947Y-101230316D01*
X147614995Y-101361585D01*
X147614985Y-101361595D01*
X147483716Y-101521547D01*
X147386168Y-101704045D01*
X147326099Y-101902065D01*
X147326098Y-101902070D01*
X147305817Y-102107995D01*
X147305817Y-102107999D01*
X147306044Y-102110308D01*
X147306208Y-102121568D01*
X147316393Y-102469875D01*
X147316564Y-102473531D01*
X147316815Y-102477404D01*
X147316818Y-102477440D01*
X147317098Y-102480879D01*
X147317102Y-102480919D01*
X147342060Y-102734352D01*
X147342367Y-102737103D01*
X147342684Y-102739676D01*
X147371680Y-102952428D01*
X147371894Y-102954255D01*
X147394781Y-103186645D01*
X147395268Y-103191583D01*
X147395485Y-103194989D01*
X147403988Y-103485741D01*
X147405256Y-103529103D01*
X147406285Y-103533744D01*
X147408151Y-103542153D01*
X147410500Y-103563593D01*
X147410500Y-106331911D01*
X147406804Y-106358708D01*
X147405281Y-106364121D01*
X147405280Y-106364131D01*
X147398909Y-106445902D01*
X147394632Y-106467961D01*
X147387678Y-106490033D01*
X147379124Y-106509553D01*
X147356846Y-106548380D01*
X147355891Y-106549974D01*
X147305994Y-106629837D01*
X147303353Y-106634314D01*
X147303323Y-106634366D01*
X147300514Y-106639415D01*
X147298009Y-106644208D01*
X147297989Y-106644248D01*
X147244062Y-106754344D01*
X147242720Y-106757192D01*
X147241792Y-106759241D01*
X147239592Y-106769365D01*
X147232907Y-106789457D01*
X147215835Y-106826842D01*
X147215833Y-106826847D01*
X147195353Y-106969297D01*
X147195353Y-106969302D01*
X146630094Y-106969302D01*
X146613263Y-106852242D01*
X146611365Y-106839043D01*
X146595898Y-106805175D01*
X146592627Y-106798013D01*
X146586985Y-106782253D01*
X146582450Y-106765146D01*
X146582449Y-106765142D01*
X146529195Y-106656423D01*
X146526724Y-106651693D01*
X146526701Y-106651651D01*
X146526682Y-106651616D01*
X146523888Y-106646593D01*
X146523860Y-106646542D01*
X146521195Y-106642024D01*
X146519565Y-106639416D01*
X146512739Y-106628490D01*
X146471294Y-106562159D01*
X146470384Y-106560640D01*
X146448072Y-106521751D01*
X146439522Y-106502245D01*
X146432563Y-106480158D01*
X146428288Y-106458104D01*
X146421919Y-106376329D01*
X146420508Y-106370908D01*
X146419893Y-106368545D01*
X146416700Y-106343605D01*
X146416700Y-103779047D01*
X146419580Y-103755341D01*
X146420808Y-103750361D01*
X146421996Y-103745546D01*
X146435891Y-103440167D01*
X146437636Y-103425645D01*
X146474518Y-103237420D01*
X146479459Y-103220432D01*
X146543586Y-103056372D01*
X146545162Y-103052775D01*
X146650747Y-102835994D01*
X146652145Y-102833013D01*
X146789697Y-102527387D01*
X146790366Y-102525847D01*
X146790366Y-102525842D01*
X146792382Y-102521205D01*
X146792626Y-102521311D01*
X146796359Y-102512464D01*
X146796632Y-102511954D01*
X146856700Y-102313934D01*
X146856701Y-102313929D01*
X146876983Y-102108003D01*
X146876983Y-102107996D01*
X146856701Y-101902070D01*
X146856700Y-101902065D01*
X146838478Y-101841997D01*
X146796632Y-101704046D01*
X146699085Y-101521550D01*
X146567810Y-101361590D01*
X146417523Y-101238253D01*
X146407852Y-101230316D01*
X146225354Y-101132768D01*
X146027334Y-101072699D01*
X146027329Y-101072698D01*
X145821403Y-101052417D01*
X145821397Y-101052417D01*
X145615470Y-101072698D01*
X145615465Y-101072699D01*
X145417445Y-101132768D01*
X145234947Y-101230316D01*
X145074995Y-101361585D01*
X145074985Y-101361595D01*
X144943716Y-101521547D01*
X144846168Y-101704045D01*
X144786099Y-101902065D01*
X144786098Y-101902070D01*
X144765817Y-102107996D01*
X144765817Y-102108003D01*
X144377347Y-102108003D01*
X144375642Y-102101061D01*
X144375641Y-102101060D01*
X144375639Y-102101049D01*
X144317697Y-101906003D01*
X144316827Y-101902488D01*
X144316700Y-101902070D01*
X144316700Y-101902066D01*
X144308369Y-101874602D01*
X144266623Y-101734075D01*
X144264972Y-101729002D01*
X144264961Y-101728970D01*
X144264956Y-101728955D01*
X144261844Y-101720179D01*
X144261988Y-101720127D01*
X144259864Y-101714700D01*
X144256632Y-101704046D01*
X144159085Y-101521550D01*
X144027810Y-101361590D01*
X143877523Y-101238253D01*
X143867852Y-101230316D01*
X143685354Y-101132768D01*
X143487334Y-101072699D01*
X143487329Y-101072698D01*
X143281403Y-101052417D01*
X143281397Y-101052417D01*
X143075470Y-101072698D01*
X143075465Y-101072699D01*
X142877445Y-101132768D01*
X142694947Y-101230316D01*
X142534995Y-101361585D01*
X142534985Y-101361595D01*
X142403716Y-101521547D01*
X142306168Y-101704045D01*
X142246099Y-101902065D01*
X142246098Y-101902070D01*
X142225817Y-102107996D01*
X142225817Y-102108003D01*
X141837347Y-102108003D01*
X141835642Y-102101061D01*
X141835641Y-102101060D01*
X141835639Y-102101049D01*
X141777697Y-101906003D01*
X141776827Y-101902488D01*
X141776700Y-101902070D01*
X141776700Y-101902066D01*
X141768369Y-101874602D01*
X141726623Y-101734075D01*
X141724972Y-101729002D01*
X141724961Y-101728970D01*
X141724956Y-101728955D01*
X141721844Y-101720179D01*
X141721988Y-101720127D01*
X141719864Y-101714700D01*
X141716632Y-101704046D01*
X141619085Y-101521550D01*
X141487810Y-101361590D01*
X141337523Y-101238253D01*
X141327852Y-101230316D01*
X141145354Y-101132768D01*
X140947334Y-101072699D01*
X140947329Y-101072698D01*
X140741403Y-101052417D01*
X140741397Y-101052417D01*
X140535470Y-101072698D01*
X140535465Y-101072699D01*
X140337445Y-101132768D01*
X140154947Y-101230316D01*
X139994995Y-101361585D01*
X139994985Y-101361595D01*
X139863716Y-101521547D01*
X139766168Y-101704045D01*
X139706099Y-101902065D01*
X139706098Y-101902070D01*
X139685817Y-102107996D01*
X139685817Y-102108003D01*
X139297347Y-102108003D01*
X139295642Y-102101061D01*
X139295641Y-102101060D01*
X139295639Y-102101049D01*
X139237697Y-101906003D01*
X139236827Y-101902488D01*
X139236700Y-101902070D01*
X139236700Y-101902066D01*
X139228369Y-101874602D01*
X139186623Y-101734075D01*
X139184972Y-101729002D01*
X139184961Y-101728970D01*
X139184956Y-101728955D01*
X139181844Y-101720179D01*
X139181988Y-101720127D01*
X139179864Y-101714700D01*
X139176632Y-101704046D01*
X139079085Y-101521550D01*
X138947810Y-101361590D01*
X138797523Y-101238253D01*
X138787852Y-101230316D01*
X138605354Y-101132768D01*
X138407334Y-101072699D01*
X138407329Y-101072698D01*
X138201403Y-101052417D01*
X138201397Y-101052417D01*
X137995470Y-101072698D01*
X137995465Y-101072699D01*
X137797445Y-101132768D01*
X137614947Y-101230316D01*
X137454995Y-101361585D01*
X137454985Y-101361595D01*
X137323716Y-101521547D01*
X137226168Y-101704045D01*
X137166099Y-101902065D01*
X137166098Y-101902070D01*
X137145817Y-102107996D01*
X137145817Y-102108003D01*
X127205372Y-102108003D01*
X127203524Y-100119797D01*
X127211033Y-100081884D01*
X127217085Y-100067244D01*
X127256789Y-100020690D01*
X127270671Y-100013609D01*
X127275641Y-100011549D01*
X127284105Y-100008042D01*
X127322005Y-100000500D01*
X168881516Y-100000500D01*
X168919399Y-100008035D01*
G37*
%TD.AperFunction*%
%TD*%
%TA.AperFunction,Conductor*%
%TO.N,GNDPWR*%
G36*
X109950884Y-124924748D02*
G01*
X109965518Y-124930815D01*
X110012032Y-124970566D01*
X110019101Y-124984461D01*
X110025151Y-124999103D01*
X110032654Y-125037029D01*
X110007544Y-145701844D01*
X109999974Y-145739692D01*
X109993902Y-145754314D01*
X109954124Y-145800804D01*
X109940330Y-145807821D01*
X109925702Y-145813875D01*
X109887844Y-145821400D01*
X100373491Y-145821400D01*
X100335605Y-145813863D01*
X100320970Y-145807801D01*
X100274447Y-145768063D01*
X100267397Y-145754228D01*
X100261334Y-145739590D01*
X100253800Y-145701708D01*
X100253800Y-125036891D01*
X100261334Y-124999010D01*
X100267396Y-124984373D01*
X100307131Y-124937850D01*
X100320966Y-124930799D01*
X100335610Y-124924734D01*
X100373491Y-124917200D01*
X109912970Y-124917200D01*
X109950884Y-124924748D01*
G37*
%TD.AperFunction*%
%TD*%
%TA.AperFunction,Conductor*%
%TO.N,Net-(Q12-D)*%
G36*
X124479792Y-110091135D02*
G01*
X124494425Y-110097196D01*
X124540951Y-110136933D01*
X124548001Y-110150770D01*
X124554063Y-110165405D01*
X124561600Y-110203291D01*
X124561600Y-120073108D01*
X124554063Y-120110997D01*
X124548002Y-120125628D01*
X124508263Y-120172152D01*
X124494430Y-120179201D01*
X124487048Y-120182258D01*
X124479797Y-120185262D01*
X124441909Y-120192800D01*
X119906091Y-120192800D01*
X119868205Y-120185263D01*
X119853570Y-120179201D01*
X119807047Y-120139463D01*
X119799997Y-120125628D01*
X119793934Y-120110990D01*
X119786400Y-120073108D01*
X119786400Y-110203291D01*
X119793934Y-110165410D01*
X119799996Y-110150773D01*
X119839731Y-110104250D01*
X119853566Y-110097199D01*
X119868210Y-110091134D01*
X119906091Y-110083600D01*
X124441909Y-110083600D01*
X124479792Y-110091135D01*
G37*
%TD.AperFunction*%
%TD*%
%TA.AperFunction,Conductor*%
%TO.N,/PACK+*%
G36*
X124632192Y-124899335D02*
G01*
X124646825Y-124905396D01*
X124693351Y-124945133D01*
X124700401Y-124958970D01*
X124706463Y-124973605D01*
X124714000Y-125011491D01*
X124714000Y-133890708D01*
X124706463Y-133928597D01*
X124700402Y-133943228D01*
X124660663Y-133989752D01*
X124646830Y-133996801D01*
X124639448Y-133999858D01*
X124632197Y-134002862D01*
X124594309Y-134010400D01*
X119575891Y-134010400D01*
X119538005Y-134002863D01*
X119523370Y-133996801D01*
X119476847Y-133957063D01*
X119469797Y-133943228D01*
X119463734Y-133928590D01*
X119456200Y-133890708D01*
X119456200Y-125011491D01*
X119463734Y-124973610D01*
X119469796Y-124958973D01*
X119509531Y-124912450D01*
X119523366Y-124905399D01*
X119538010Y-124899334D01*
X119575891Y-124891800D01*
X124594309Y-124891800D01*
X124632192Y-124899335D01*
G37*
%TD.AperFunction*%
%TD*%
%TA.AperFunction,Conductor*%
%TO.N,GND*%
G36*
X110587307Y-119094107D02*
G01*
X110623271Y-119143607D01*
X110623271Y-119204793D01*
X110593946Y-119249021D01*
X110590670Y-119251858D01*
X110496422Y-119360628D01*
X110436634Y-119491543D01*
X110416153Y-119633997D01*
X110416153Y-119634002D01*
X110436634Y-119776456D01*
X110491267Y-119896084D01*
X110496423Y-119907373D01*
X110570058Y-119992353D01*
X110590673Y-120016144D01*
X110616746Y-120032900D01*
X110711747Y-120093953D01*
X110818203Y-120125211D01*
X110849835Y-120134499D01*
X110849836Y-120134499D01*
X110849839Y-120134500D01*
X110849841Y-120134500D01*
X110993759Y-120134500D01*
X110993761Y-120134500D01*
X111131853Y-120093953D01*
X111252928Y-120016143D01*
X111329582Y-119927678D01*
X111381976Y-119896084D01*
X111442937Y-119901319D01*
X111479217Y-119927677D01*
X111535258Y-119992353D01*
X111555873Y-120016144D01*
X111581946Y-120032900D01*
X111676947Y-120093953D01*
X111783403Y-120125211D01*
X111815035Y-120134499D01*
X111815036Y-120134499D01*
X111815039Y-120134500D01*
X111815041Y-120134500D01*
X111958959Y-120134500D01*
X111958961Y-120134500D01*
X112097053Y-120093953D01*
X112218128Y-120016143D01*
X112312377Y-119907373D01*
X112372165Y-119776457D01*
X112392647Y-119634000D01*
X112372165Y-119491543D01*
X112312377Y-119360627D01*
X112218128Y-119251857D01*
X112218127Y-119251856D01*
X112214854Y-119249021D01*
X112183257Y-119196625D01*
X112188492Y-119135664D01*
X112228559Y-119089423D01*
X112279684Y-119075200D01*
X114891509Y-119075200D01*
X114929392Y-119082735D01*
X114944025Y-119088796D01*
X114990551Y-119128533D01*
X114997602Y-119142371D01*
X115003663Y-119157002D01*
X115011199Y-119194891D01*
X115011200Y-121031000D01*
X126201420Y-121031000D01*
X126259611Y-121049907D01*
X126276236Y-121065165D01*
X126360819Y-121162780D01*
X126360820Y-121162781D01*
X126481889Y-121240587D01*
X126481894Y-121240590D01*
X126588350Y-121271848D01*
X126619982Y-121281136D01*
X126619983Y-121281136D01*
X126619986Y-121281137D01*
X126619988Y-121281137D01*
X126763906Y-121281137D01*
X126763908Y-121281137D01*
X126902000Y-121240590D01*
X127023075Y-121162780D01*
X127117324Y-121054010D01*
X127117327Y-121054002D01*
X127118711Y-121051850D01*
X127120467Y-121050382D01*
X127121960Y-121048659D01*
X127122238Y-121048900D01*
X127143651Y-121031000D01*
X127482600Y-121031000D01*
X127482600Y-124587000D01*
X108120491Y-124587000D01*
X108082605Y-124579463D01*
X108067970Y-124573401D01*
X108021447Y-124533663D01*
X108014397Y-124519828D01*
X108008334Y-124505190D01*
X108000800Y-124467308D01*
X108000800Y-119194891D01*
X108008334Y-119157010D01*
X108014396Y-119142373D01*
X108054131Y-119095850D01*
X108067966Y-119088799D01*
X108082610Y-119082734D01*
X108120491Y-119075200D01*
X110529116Y-119075200D01*
X110587307Y-119094107D01*
G37*
%TD.AperFunction*%
%TD*%
%TA.AperFunction,Conductor*%
%TO.N,Net-(C9-Pad1)*%
G36*
X124479792Y-100210535D02*
G01*
X124494425Y-100216596D01*
X124540951Y-100256333D01*
X124548001Y-100270170D01*
X124554063Y-100284805D01*
X124561600Y-100322691D01*
X124561600Y-109100308D01*
X124554063Y-109138197D01*
X124548002Y-109152828D01*
X124508263Y-109199352D01*
X124494430Y-109206401D01*
X124487048Y-109209458D01*
X124479797Y-109212462D01*
X124441909Y-109220000D01*
X118948200Y-109220000D01*
X118948200Y-109319999D01*
X118948200Y-118574508D01*
X118940663Y-118612397D01*
X118934602Y-118627028D01*
X118894863Y-118673552D01*
X118881030Y-118680601D01*
X118873648Y-118683658D01*
X118866397Y-118686662D01*
X118828509Y-118694200D01*
X116611400Y-118694200D01*
X114284520Y-118694200D01*
X114262029Y-118691611D01*
X114251368Y-118689124D01*
X114211042Y-118669231D01*
X114202582Y-118662286D01*
X114186848Y-118646022D01*
X112242788Y-116111362D01*
X112234027Y-116097768D01*
X112230200Y-116090604D01*
X112219843Y-116060079D01*
X112218520Y-116052067D01*
X112217200Y-116035952D01*
X112217200Y-100322691D01*
X112224734Y-100284810D01*
X112230796Y-100270173D01*
X112270531Y-100223650D01*
X112284366Y-100216599D01*
X112299010Y-100210534D01*
X112336891Y-100203000D01*
X124441909Y-100203000D01*
X124479792Y-100210535D01*
G37*
%TD.AperFunction*%
%TD*%
%TA.AperFunction,Conductor*%
%TO.N,/PIN15*%
G36*
X150128084Y-101787666D02*
G01*
X150897615Y-102105438D01*
X150903952Y-102111761D01*
X150903962Y-102111785D01*
X151221730Y-102881309D01*
X151221721Y-102890264D01*
X151215382Y-102896589D01*
X151214248Y-102896991D01*
X150854542Y-103003847D01*
X150852353Y-103004275D01*
X150560873Y-103032883D01*
X150519150Y-103036409D01*
X150308537Y-103054208D01*
X150308527Y-103054210D01*
X150056019Y-103142901D01*
X150056014Y-103142904D01*
X149771121Y-103367290D01*
X149762502Y-103369717D01*
X149755609Y-103366372D01*
X149643027Y-103253790D01*
X149639600Y-103245517D01*
X149642109Y-103238278D01*
X149866493Y-102953384D01*
X149866493Y-102953383D01*
X149866496Y-102953380D01*
X149955189Y-102700867D01*
X149976515Y-102448514D01*
X150005123Y-102157041D01*
X150005551Y-102154856D01*
X150112409Y-101795149D01*
X150118049Y-101788196D01*
X150126956Y-101787267D01*
X150128084Y-101787666D01*
G37*
%TD.AperFunction*%
%TD*%
%TA.AperFunction,Conductor*%
%TO.N,/PIN21*%
G36*
X143064049Y-106384927D02*
G01*
X143067440Y-106392289D01*
X143076512Y-106508746D01*
X143103824Y-106595431D01*
X143117644Y-106619517D01*
X143144891Y-106667008D01*
X143195927Y-106748691D01*
X143196220Y-106749218D01*
X143248300Y-106855540D01*
X143248862Y-106864477D01*
X143242940Y-106871194D01*
X143242304Y-106871483D01*
X142981111Y-106980615D01*
X142972156Y-106980642D01*
X142972089Y-106980615D01*
X142710895Y-106871483D01*
X142704583Y-106865131D01*
X142704610Y-106856176D01*
X142704887Y-106855564D01*
X142756983Y-106749206D01*
X142757265Y-106748699D01*
X142808303Y-106667013D01*
X142849375Y-106595431D01*
X142876687Y-106508746D01*
X142885759Y-106392290D01*
X142889818Y-106384309D01*
X142897424Y-106381500D01*
X143055776Y-106381500D01*
X143064049Y-106384927D01*
G37*
%TD.AperFunction*%
%TD*%
%TA.AperFunction,Conductor*%
%TO.N,/PIN16*%
G36*
X148364815Y-102110421D02*
G01*
X148653706Y-102399793D01*
X148952381Y-102698965D01*
X148955801Y-102707241D01*
X148952367Y-102715511D01*
X148950606Y-102716956D01*
X148647561Y-102919646D01*
X148644320Y-102921157D01*
X148331307Y-103012076D01*
X148331089Y-103012135D01*
X148057430Y-103080289D01*
X148057425Y-103080291D01*
X147864193Y-103222104D01*
X147864190Y-103222109D01*
X147793116Y-103525423D01*
X147787892Y-103532696D01*
X147781725Y-103534454D01*
X147622363Y-103534454D01*
X147614090Y-103531027D01*
X147610668Y-103523096D01*
X147608499Y-103448951D01*
X147600641Y-103180193D01*
X147575940Y-102929387D01*
X147546471Y-102713160D01*
X147546449Y-102712962D01*
X147521778Y-102462455D01*
X147521752Y-102462053D01*
X147521006Y-102436573D01*
X147511751Y-102120025D01*
X147514935Y-102111657D01*
X147523104Y-102107990D01*
X147523371Y-102107985D01*
X148356541Y-102107005D01*
X148364815Y-102110421D01*
G37*
%TD.AperFunction*%
%TD*%
%TA.AperFunction,Conductor*%
%TO.N,/PIN12*%
G36*
X155143310Y-101760837D02*
G01*
X155977616Y-102105438D01*
X155983953Y-102111763D01*
X155983962Y-102111784D01*
X156327597Y-102943752D01*
X156327588Y-102952707D01*
X156321250Y-102959033D01*
X156318177Y-102959836D01*
X155985586Y-102999735D01*
X155637680Y-103087073D01*
X155289801Y-103220004D01*
X155289783Y-103220012D01*
X154941900Y-103398541D01*
X154601933Y-103617567D01*
X154593122Y-103619166D01*
X154587323Y-103616004D01*
X154472772Y-103501453D01*
X154469345Y-103493180D01*
X154470656Y-103487800D01*
X154516881Y-103398541D01*
X154599656Y-103238704D01*
X154732592Y-102936407D01*
X154865528Y-102588511D01*
X154998464Y-102195014D01*
X155127661Y-101768266D01*
X155133338Y-101761342D01*
X155142249Y-101760459D01*
X155143310Y-101760837D01*
G37*
%TD.AperFunction*%
%TD*%
%TA.AperFunction,Conductor*%
%TO.N,/PIN15*%
G36*
X149363249Y-106398127D02*
G01*
X149366640Y-106405489D01*
X149375712Y-106521946D01*
X149403024Y-106608631D01*
X149416844Y-106632717D01*
X149444091Y-106680208D01*
X149495127Y-106761891D01*
X149495420Y-106762418D01*
X149547500Y-106868740D01*
X149548062Y-106877677D01*
X149542140Y-106884394D01*
X149541504Y-106884683D01*
X149280311Y-106993815D01*
X149271356Y-106993842D01*
X149271289Y-106993815D01*
X149010095Y-106884683D01*
X149003783Y-106878331D01*
X149003810Y-106869376D01*
X149004087Y-106868764D01*
X149056183Y-106762406D01*
X149056465Y-106761899D01*
X149107503Y-106680213D01*
X149148575Y-106608631D01*
X149175887Y-106521946D01*
X149184959Y-106405490D01*
X149189018Y-106397509D01*
X149196624Y-106394700D01*
X149354976Y-106394700D01*
X149363249Y-106398127D01*
G37*
%TD.AperFunction*%
%TD*%
%TA.AperFunction,Conductor*%
%TO.N,/PIN22*%
G36*
X138983664Y-101787678D02*
G01*
X138989989Y-101794017D01*
X138990391Y-101795151D01*
X139097247Y-102154856D01*
X139097675Y-102157045D01*
X139126286Y-102448545D01*
X139147608Y-102700860D01*
X139147610Y-102700870D01*
X139236301Y-102953379D01*
X139236304Y-102953384D01*
X139460690Y-103238278D01*
X139463117Y-103246897D01*
X139459772Y-103253790D01*
X139347190Y-103366372D01*
X139338917Y-103369799D01*
X139331678Y-103367290D01*
X139046784Y-103142904D01*
X139046779Y-103142901D01*
X138794270Y-103054210D01*
X138794260Y-103054208D01*
X138595568Y-103037417D01*
X138541914Y-103032883D01*
X138250445Y-103004275D01*
X138248256Y-103003847D01*
X137888551Y-102896991D01*
X137881596Y-102891350D01*
X137880667Y-102882443D01*
X137881064Y-102881321D01*
X138198838Y-102111783D01*
X138205159Y-102105448D01*
X138974710Y-101787669D01*
X138983664Y-101787678D01*
G37*
%TD.AperFunction*%
%TD*%
%TA.AperFunction,Conductor*%
%TO.N,/PIN17*%
G36*
X146213649Y-106384927D02*
G01*
X146217040Y-106392289D01*
X146226112Y-106508746D01*
X146253424Y-106595431D01*
X146267244Y-106619517D01*
X146294491Y-106667008D01*
X146345527Y-106748691D01*
X146345820Y-106749218D01*
X146397900Y-106855540D01*
X146398462Y-106864477D01*
X146392540Y-106871194D01*
X146391904Y-106871483D01*
X146130711Y-106980615D01*
X146121756Y-106980642D01*
X146121689Y-106980615D01*
X145860495Y-106871483D01*
X145854183Y-106865131D01*
X145854210Y-106856176D01*
X145854487Y-106855564D01*
X145906583Y-106749206D01*
X145906865Y-106748699D01*
X145957903Y-106667013D01*
X145998975Y-106595431D01*
X146026287Y-106508746D01*
X146035359Y-106392290D01*
X146039418Y-106384309D01*
X146047024Y-106381500D01*
X146205376Y-106381500D01*
X146213649Y-106384927D01*
G37*
%TD.AperFunction*%
%TD*%
%TA.AperFunction,Conductor*%
%TO.N,/PIN20*%
G36*
X144063664Y-101787678D02*
G01*
X144069989Y-101794017D01*
X144070391Y-101795151D01*
X144177247Y-102154856D01*
X144177675Y-102157045D01*
X144206286Y-102448545D01*
X144227608Y-102700860D01*
X144227610Y-102700870D01*
X144316301Y-102953379D01*
X144316304Y-102953384D01*
X144540690Y-103238278D01*
X144543117Y-103246897D01*
X144539772Y-103253790D01*
X144427190Y-103366372D01*
X144418917Y-103369799D01*
X144411678Y-103367290D01*
X144126784Y-103142904D01*
X144126779Y-103142901D01*
X143874270Y-103054210D01*
X143874260Y-103054208D01*
X143675568Y-103037417D01*
X143621914Y-103032883D01*
X143330445Y-103004275D01*
X143328256Y-103003847D01*
X142968551Y-102896991D01*
X142961596Y-102891350D01*
X142960667Y-102882443D01*
X142961064Y-102881321D01*
X143278838Y-102111783D01*
X143285159Y-102105448D01*
X144054710Y-101787669D01*
X144063664Y-101787678D01*
G37*
%TD.AperFunction*%
%TD*%
%TA.AperFunction,Conductor*%
%TO.N,/PIN13*%
G36*
X152668084Y-101787666D02*
G01*
X153437615Y-102105438D01*
X153443952Y-102111761D01*
X153443962Y-102111785D01*
X153761730Y-102881309D01*
X153761721Y-102890264D01*
X153755382Y-102896589D01*
X153754248Y-102896991D01*
X153394542Y-103003847D01*
X153392353Y-103004275D01*
X153100873Y-103032883D01*
X153059150Y-103036409D01*
X152848537Y-103054208D01*
X152848527Y-103054210D01*
X152596019Y-103142901D01*
X152596014Y-103142904D01*
X152311121Y-103367290D01*
X152302502Y-103369717D01*
X152295609Y-103366372D01*
X152183027Y-103253790D01*
X152179600Y-103245517D01*
X152182109Y-103238278D01*
X152406493Y-102953384D01*
X152406493Y-102953383D01*
X152406496Y-102953380D01*
X152495189Y-102700867D01*
X152516515Y-102448514D01*
X152545123Y-102157041D01*
X152545551Y-102154856D01*
X152652409Y-101795149D01*
X152658049Y-101788196D01*
X152666956Y-101787267D01*
X152668084Y-101787666D01*
G37*
%TD.AperFunction*%
%TD*%
%TA.AperFunction,Conductor*%
%TO.N,/PIN12*%
G36*
X152512849Y-106411327D02*
G01*
X152516240Y-106418689D01*
X152525312Y-106535146D01*
X152552624Y-106621831D01*
X152566444Y-106645917D01*
X152593691Y-106693408D01*
X152644727Y-106775091D01*
X152645020Y-106775618D01*
X152697100Y-106881940D01*
X152697662Y-106890877D01*
X152691740Y-106897594D01*
X152691104Y-106897883D01*
X152429911Y-107007015D01*
X152420956Y-107007042D01*
X152420889Y-107007015D01*
X152159695Y-106897883D01*
X152153383Y-106891531D01*
X152153410Y-106882576D01*
X152153687Y-106881964D01*
X152205783Y-106775606D01*
X152206065Y-106775099D01*
X152257103Y-106693413D01*
X152298175Y-106621831D01*
X152325487Y-106535146D01*
X152334559Y-106418690D01*
X152338618Y-106410709D01*
X152346224Y-106407900D01*
X152504576Y-106407900D01*
X152512849Y-106411327D01*
G37*
%TD.AperFunction*%
%TD*%
%TA.AperFunction,Conductor*%
%TO.N,/PIN13*%
G36*
X150938049Y-106411327D02*
G01*
X150941440Y-106418689D01*
X150950512Y-106535146D01*
X150977824Y-106621831D01*
X150991644Y-106645917D01*
X151018891Y-106693408D01*
X151069927Y-106775091D01*
X151070220Y-106775618D01*
X151122300Y-106881940D01*
X151122862Y-106890877D01*
X151116940Y-106897594D01*
X151116304Y-106897883D01*
X150855110Y-107007015D01*
X150846155Y-107007042D01*
X150846102Y-107007020D01*
X150584894Y-106897882D01*
X150578583Y-106891531D01*
X150578610Y-106882576D01*
X150578887Y-106881964D01*
X150630983Y-106775606D01*
X150631265Y-106775099D01*
X150682303Y-106693413D01*
X150723375Y-106621831D01*
X150750687Y-106535146D01*
X150759759Y-106418690D01*
X150763818Y-106410709D01*
X150771424Y-106407900D01*
X150929776Y-106407900D01*
X150938049Y-106411327D01*
G37*
%TD.AperFunction*%
%TD*%
%TA.AperFunction,Conductor*%
%TO.N,/PIN20*%
G36*
X144638849Y-106384927D02*
G01*
X144642240Y-106392289D01*
X144651312Y-106508746D01*
X144678624Y-106595431D01*
X144692444Y-106619517D01*
X144719691Y-106667008D01*
X144770727Y-106748691D01*
X144771020Y-106749218D01*
X144823100Y-106855540D01*
X144823662Y-106864477D01*
X144817740Y-106871194D01*
X144817104Y-106871483D01*
X144555911Y-106980615D01*
X144546956Y-106980642D01*
X144546889Y-106980615D01*
X144285695Y-106871483D01*
X144279383Y-106865131D01*
X144279410Y-106856176D01*
X144279687Y-106855564D01*
X144331783Y-106749206D01*
X144332065Y-106748699D01*
X144383103Y-106667013D01*
X144424175Y-106595431D01*
X144451487Y-106508746D01*
X144460559Y-106392290D01*
X144464618Y-106384309D01*
X144472224Y-106381500D01*
X144630576Y-106381500D01*
X144638849Y-106384927D01*
G37*
%TD.AperFunction*%
%TD*%
%TA.AperFunction,Conductor*%
%TO.N,/PIN16*%
G36*
X147788449Y-106372727D02*
G01*
X147791840Y-106380089D01*
X147800912Y-106496546D01*
X147828223Y-106583231D01*
X147842044Y-106607319D01*
X147869291Y-106654808D01*
X147920327Y-106736491D01*
X147920620Y-106737018D01*
X147972700Y-106843340D01*
X147973262Y-106852277D01*
X147967340Y-106858994D01*
X147966704Y-106859283D01*
X147705511Y-106968415D01*
X147696556Y-106968442D01*
X147696489Y-106968415D01*
X147435295Y-106859283D01*
X147428983Y-106852931D01*
X147429010Y-106843976D01*
X147429287Y-106843364D01*
X147481383Y-106737006D01*
X147481665Y-106736499D01*
X147532703Y-106654813D01*
X147573775Y-106583231D01*
X147601087Y-106496546D01*
X147610159Y-106380090D01*
X147614218Y-106372109D01*
X147621824Y-106369300D01*
X147780176Y-106369300D01*
X147788449Y-106372727D01*
G37*
%TD.AperFunction*%
%TD*%
%TA.AperFunction,Conductor*%
%TO.N,/PIN17*%
G36*
X145828632Y-102110004D02*
G01*
X146155569Y-102245843D01*
X146595573Y-102428659D01*
X146601898Y-102434998D01*
X146601889Y-102443953D01*
X146601753Y-102444266D01*
X146465400Y-102747227D01*
X146465325Y-102747387D01*
X146355925Y-102972002D01*
X146355922Y-102972010D01*
X146278110Y-103171078D01*
X146231630Y-103408289D01*
X146216708Y-103736204D01*
X146212909Y-103744313D01*
X146205020Y-103747372D01*
X146046515Y-103747372D01*
X146038242Y-103743945D01*
X146034907Y-103737139D01*
X146024360Y-103653698D01*
X145996171Y-103430668D01*
X145883481Y-103231109D01*
X145709222Y-103086068D01*
X145682836Y-103068087D01*
X145484731Y-102933088D01*
X145484242Y-102932716D01*
X145230042Y-102717248D01*
X145225947Y-102709285D01*
X145228682Y-102700758D01*
X145229314Y-102700070D01*
X145815866Y-102112543D01*
X145824134Y-102109110D01*
X145828632Y-102110004D01*
G37*
%TD.AperFunction*%
%TD*%
%TA.AperFunction,Conductor*%
%TO.N,/PIN22*%
G36*
X141489249Y-106384927D02*
G01*
X141492640Y-106392289D01*
X141501712Y-106508746D01*
X141529024Y-106595431D01*
X141542844Y-106619517D01*
X141570091Y-106667008D01*
X141621127Y-106748691D01*
X141621420Y-106749218D01*
X141673500Y-106855540D01*
X141674062Y-106864477D01*
X141668140Y-106871194D01*
X141667504Y-106871483D01*
X141406311Y-106980615D01*
X141397356Y-106980642D01*
X141397289Y-106980615D01*
X141136095Y-106871483D01*
X141129783Y-106865131D01*
X141129810Y-106856176D01*
X141130087Y-106855564D01*
X141182183Y-106749206D01*
X141182465Y-106748699D01*
X141233503Y-106667013D01*
X141274575Y-106595431D01*
X141301887Y-106508746D01*
X141310959Y-106392290D01*
X141315018Y-106384309D01*
X141322624Y-106381500D01*
X141480976Y-106381500D01*
X141489249Y-106384927D01*
G37*
%TD.AperFunction*%
%TD*%
%TA.AperFunction,Conductor*%
%TO.N,/PIN21*%
G36*
X141523664Y-101787678D02*
G01*
X141529989Y-101794017D01*
X141530391Y-101795151D01*
X141637247Y-102154856D01*
X141637675Y-102157045D01*
X141666286Y-102448545D01*
X141687608Y-102700860D01*
X141687610Y-102700870D01*
X141776301Y-102953379D01*
X141776304Y-102953384D01*
X142000690Y-103238278D01*
X142003117Y-103246897D01*
X141999772Y-103253790D01*
X141887190Y-103366372D01*
X141878917Y-103369799D01*
X141871678Y-103367290D01*
X141586784Y-103142904D01*
X141586779Y-103142901D01*
X141334270Y-103054210D01*
X141334260Y-103054208D01*
X141135568Y-103037417D01*
X141081914Y-103032883D01*
X140790445Y-103004275D01*
X140788256Y-103003847D01*
X140428551Y-102896991D01*
X140421596Y-102891350D01*
X140420667Y-102882443D01*
X140421064Y-102881321D01*
X140738838Y-102111783D01*
X140745159Y-102105448D01*
X141514710Y-101787669D01*
X141523664Y-101787678D01*
G37*
%TD.AperFunction*%
%TD*%
M02*
