%TF.GenerationSoftware,KiCad,Pcbnew,7.0.5*%
%TF.CreationDate,2023-06-27T23:48:36+08:00*%
%TF.ProjectId,BQ40Z80,42513430-5a38-4302-9e6b-696361645f70,rev?*%
%TF.SameCoordinates,Original*%
%TF.FileFunction,Plated,1,4,PTH,Mixed*%
%TF.FilePolarity,Positive*%
%FSLAX46Y46*%
G04 Gerber Fmt 4.6, Leading zero omitted, Abs format (unit mm)*
G04 Created by KiCad (PCBNEW 7.0.5) date 2023-06-27 23:48:36*
%MOMM*%
%LPD*%
G01*
G04 APERTURE LIST*
%TA.AperFunction,ViaDrill*%
%ADD10C,0.300000*%
%TD*%
G04 aperture for slot hole*
%TA.AperFunction,ComponentDrill*%
%ADD11O,0.600000X1.700000*%
%TD*%
%TA.AperFunction,ComponentDrill*%
%ADD12C,1.000000*%
%TD*%
%TA.AperFunction,ComponentDrill*%
%ADD13C,2.700000*%
%TD*%
G04 APERTURE END LIST*
D10*
X101219000Y-125857000D03*
X101219000Y-127127000D03*
X101219000Y-128397000D03*
X101219000Y-129667000D03*
X101219000Y-130937000D03*
X101219000Y-132207000D03*
X101219000Y-133477000D03*
X101219000Y-134747000D03*
X101219000Y-136017000D03*
X101219000Y-137287000D03*
X101219000Y-138557000D03*
X101219000Y-139827000D03*
X101219000Y-141097000D03*
X101219000Y-142367000D03*
X101219000Y-143637000D03*
X101219000Y-144907000D03*
X101295200Y-101041200D03*
X101295200Y-102311200D03*
X101295200Y-103581200D03*
X101295200Y-104851200D03*
X101295200Y-106121200D03*
X101295200Y-107391200D03*
X101295200Y-108661200D03*
X101295200Y-109931200D03*
X101295200Y-111201200D03*
X101295200Y-112471200D03*
X101295200Y-113741200D03*
X101295200Y-115011200D03*
X101295200Y-116281200D03*
X101295200Y-117551200D03*
X102489000Y-125857000D03*
X102489000Y-127127000D03*
X102489000Y-128397000D03*
X102489000Y-129667000D03*
X102489000Y-130937000D03*
X102489000Y-132207000D03*
X102489000Y-133477000D03*
X102489000Y-134747000D03*
X102489000Y-136017000D03*
X102489000Y-137287000D03*
X102489000Y-138557000D03*
X102489000Y-139827000D03*
X102489000Y-141097000D03*
X102489000Y-142367000D03*
X102489000Y-143637000D03*
X102489000Y-144907000D03*
X102565200Y-101041200D03*
X102565200Y-102311200D03*
X102565200Y-103581200D03*
X102565200Y-104851200D03*
X102565200Y-106121200D03*
X102565200Y-107391200D03*
X102565200Y-108661200D03*
X102565200Y-109931200D03*
X102565200Y-111201200D03*
X102565200Y-112471200D03*
X102565200Y-113741200D03*
X102565200Y-115011200D03*
X102565200Y-116281200D03*
X102565200Y-117551200D03*
X103759000Y-125857000D03*
X103759000Y-127127000D03*
X103759000Y-128397000D03*
X103759000Y-129667000D03*
X103759000Y-130937000D03*
X103759000Y-132207000D03*
X103759000Y-133477000D03*
X103759000Y-134747000D03*
X103759000Y-136017000D03*
X103759000Y-137287000D03*
X103759000Y-138557000D03*
X103759000Y-139827000D03*
X103759000Y-141097000D03*
X103759000Y-142367000D03*
X103759000Y-143637000D03*
X103759000Y-144907000D03*
X103835200Y-101041200D03*
X103835200Y-102311200D03*
X103835200Y-103581200D03*
X103835200Y-104851200D03*
X103835200Y-106121200D03*
X103835200Y-107391200D03*
X103835200Y-108661200D03*
X103835200Y-109931200D03*
X103835200Y-111201200D03*
X103835200Y-112471200D03*
X103835200Y-113741200D03*
X103835200Y-115011200D03*
X103835200Y-116281200D03*
X103835200Y-117551200D03*
X105029000Y-125857000D03*
X105029000Y-127127000D03*
X105029000Y-128397000D03*
X105029000Y-129667000D03*
X105029000Y-130937000D03*
X105029000Y-132207000D03*
X105029000Y-133477000D03*
X105029000Y-134747000D03*
X105029000Y-136017000D03*
X105029000Y-137287000D03*
X105029000Y-138557000D03*
X105029000Y-139827000D03*
X105029000Y-141097000D03*
X105029000Y-142367000D03*
X105029000Y-143637000D03*
X105029000Y-144907000D03*
X105105200Y-101041200D03*
X105105200Y-102311200D03*
X105105200Y-103581200D03*
X105105200Y-104851200D03*
X105105200Y-106121200D03*
X105105200Y-107391200D03*
X105105200Y-108661200D03*
X105105200Y-109931200D03*
X105105200Y-111201200D03*
X105105200Y-112471200D03*
X105105200Y-113741200D03*
X105105200Y-115011200D03*
X105105200Y-116281200D03*
X105105200Y-117551200D03*
X106299000Y-125857000D03*
X106299000Y-127127000D03*
X106299000Y-128397000D03*
X106299000Y-129667000D03*
X106299000Y-130937000D03*
X106299000Y-132207000D03*
X106299000Y-133477000D03*
X106299000Y-134747000D03*
X106299000Y-136017000D03*
X106299000Y-137287000D03*
X106299000Y-138557000D03*
X106299000Y-139827000D03*
X106299000Y-141097000D03*
X106299000Y-142367000D03*
X106299000Y-143637000D03*
X106299000Y-144907000D03*
X106375200Y-101041200D03*
X106375200Y-102311200D03*
X106375200Y-103581200D03*
X106375200Y-104851200D03*
X106375200Y-106121200D03*
X106375200Y-107391200D03*
X106375200Y-108661200D03*
X106375200Y-109931200D03*
X106375200Y-111201200D03*
X106375200Y-112471200D03*
X106375200Y-113741200D03*
X106375200Y-115011200D03*
X106375200Y-116281200D03*
X106375200Y-117551200D03*
X107569000Y-125857000D03*
X107569000Y-127127000D03*
X107569000Y-128397000D03*
X107569000Y-129667000D03*
X107569000Y-130937000D03*
X107569000Y-132207000D03*
X107569000Y-133477000D03*
X107569000Y-134747000D03*
X107569000Y-136017000D03*
X107569000Y-137287000D03*
X107569000Y-138557000D03*
X107569000Y-139827000D03*
X107569000Y-141097000D03*
X107569000Y-142367000D03*
X107569000Y-143637000D03*
X107569000Y-144907000D03*
X107645200Y-101041200D03*
X107645200Y-102311200D03*
X107645200Y-103581200D03*
X107645200Y-104851200D03*
X107645200Y-106121200D03*
X107645200Y-107391200D03*
X107645200Y-108661200D03*
X107645200Y-109931200D03*
X107645200Y-111201200D03*
X107645200Y-112471200D03*
X107645200Y-113741200D03*
X107645200Y-115011200D03*
X107645200Y-116281200D03*
X107645200Y-117551200D03*
X108331000Y-122631200D03*
X108839000Y-125857000D03*
X108839000Y-127127000D03*
X108839000Y-128397000D03*
X108839000Y-129667000D03*
X108839000Y-130937000D03*
X108839000Y-132207000D03*
X108839000Y-133477000D03*
X108839000Y-134747000D03*
X108839000Y-136017000D03*
X108839000Y-137287000D03*
X108839000Y-138557000D03*
X108839000Y-139827000D03*
X108839000Y-141097000D03*
X108839000Y-142367000D03*
X108839000Y-143637000D03*
X108839000Y-144907000D03*
X108915200Y-101041200D03*
X108915200Y-102311200D03*
X108915200Y-103581200D03*
X108915200Y-104851200D03*
X108915200Y-106121200D03*
X108915200Y-107391200D03*
X108915200Y-108661200D03*
X108915200Y-109931200D03*
X108915200Y-111201200D03*
X108915200Y-112471200D03*
X108915200Y-113741200D03*
X108915200Y-115011200D03*
X108915200Y-116281200D03*
X109778800Y-122605800D03*
X110159800Y-118414800D03*
X110921800Y-119634000D03*
X111150400Y-118414800D03*
X111887000Y-119634000D03*
X112115600Y-118414800D03*
X112674400Y-101041200D03*
X112674400Y-102311200D03*
X112674400Y-103581200D03*
X112674400Y-104851200D03*
X112674400Y-106121200D03*
X112674400Y-107391200D03*
X112674400Y-108661200D03*
X112674400Y-109931200D03*
X112674400Y-111201200D03*
X112674400Y-112471200D03*
X112674400Y-113741200D03*
X112674400Y-115011200D03*
X113588800Y-125272800D03*
X113588800Y-126542800D03*
X113588800Y-127812800D03*
X113588800Y-129082800D03*
X113944400Y-101041200D03*
X113944400Y-102311200D03*
X113944400Y-103581200D03*
X113944400Y-104851200D03*
X113944400Y-106121200D03*
X113944400Y-107391200D03*
X113944400Y-108661200D03*
X113944400Y-109931200D03*
X113944400Y-111201200D03*
X113944400Y-112471200D03*
X113944400Y-113741200D03*
X113944400Y-115011200D03*
X113944400Y-116281200D03*
X113944400Y-117551200D03*
X114604800Y-122402600D03*
X114858800Y-125272800D03*
X114858800Y-126542800D03*
X114858800Y-127812800D03*
X114858800Y-129082800D03*
X115214400Y-101041200D03*
X115214400Y-102311200D03*
X115214400Y-103581200D03*
X115214400Y-104851200D03*
X115214400Y-106121200D03*
X115214400Y-107391200D03*
X115214400Y-108661200D03*
X115214400Y-109931200D03*
X115214400Y-111201200D03*
X115214400Y-112471200D03*
X115214400Y-113741200D03*
X115214400Y-115011200D03*
X115214400Y-116281200D03*
X115214400Y-117551200D03*
X116128800Y-125272800D03*
X116128800Y-126542800D03*
X116128800Y-127812800D03*
X116128800Y-129082800D03*
X116484400Y-101041200D03*
X116484400Y-102311200D03*
X116484400Y-103581200D03*
X116484400Y-104851200D03*
X116484400Y-106121200D03*
X116484400Y-107391200D03*
X116484400Y-108661200D03*
X116484400Y-109931200D03*
X116484400Y-111201200D03*
X116484400Y-112471200D03*
X116484400Y-113741200D03*
X116484400Y-115011200D03*
X116484400Y-116281200D03*
X117398800Y-125272800D03*
X117398800Y-126542800D03*
X117398800Y-127812800D03*
X117398800Y-129082800D03*
X117754400Y-101041200D03*
X117754400Y-102311200D03*
X117754400Y-103581200D03*
X117754400Y-104851200D03*
X117754400Y-106121200D03*
X117754400Y-107391200D03*
X117754400Y-108661200D03*
X117754400Y-109931200D03*
X117754400Y-111201200D03*
X117754400Y-112471200D03*
X117754400Y-113741200D03*
X117754400Y-115011200D03*
X117754400Y-116281200D03*
X119024400Y-101041200D03*
X119024400Y-102311200D03*
X119024400Y-103581200D03*
X119024400Y-104851200D03*
X119024400Y-106121200D03*
X119024400Y-107391200D03*
X120243600Y-110642400D03*
X120243600Y-111912400D03*
X120243600Y-113182400D03*
X120243600Y-114452400D03*
X120243600Y-115722400D03*
X120243600Y-116992400D03*
X120243600Y-118262400D03*
X120243600Y-119532400D03*
X120243600Y-125272800D03*
X120243600Y-126542800D03*
X120243600Y-127812800D03*
X120243600Y-129082800D03*
X120294400Y-101041200D03*
X120294400Y-102311200D03*
X120294400Y-103581200D03*
X120294400Y-104851200D03*
X120294400Y-106121200D03*
X120294400Y-107391200D03*
X121513600Y-110642400D03*
X121513600Y-111912400D03*
X121513600Y-113182400D03*
X121513600Y-114452400D03*
X121513600Y-115722400D03*
X121513600Y-116992400D03*
X121513600Y-118262400D03*
X121513600Y-119532400D03*
X121513600Y-125272800D03*
X121513600Y-126542800D03*
X121513600Y-127812800D03*
X121513600Y-129082800D03*
X121564400Y-101041200D03*
X121564400Y-102311200D03*
X121564400Y-103581200D03*
X121564400Y-104851200D03*
X121564400Y-106121200D03*
X121564400Y-107391200D03*
X122783600Y-110642400D03*
X122783600Y-111912400D03*
X122783600Y-113182400D03*
X122783600Y-114452400D03*
X122783600Y-115722400D03*
X122783600Y-116992400D03*
X122783600Y-118262400D03*
X122783600Y-119532400D03*
X122783600Y-125272800D03*
X122783600Y-126542800D03*
X122783600Y-127812800D03*
X122783600Y-129082800D03*
X122834400Y-101041200D03*
X122834400Y-102311200D03*
X122834400Y-103581200D03*
X122834400Y-104851200D03*
X122834400Y-106121200D03*
X122834400Y-107391200D03*
X124053600Y-110642400D03*
X124053600Y-111912400D03*
X124053600Y-113182400D03*
X124053600Y-114452400D03*
X124053600Y-115722400D03*
X124053600Y-116992400D03*
X124053600Y-118262400D03*
X124053600Y-119532400D03*
X124053600Y-125272800D03*
X124053600Y-126542800D03*
X124053600Y-127812800D03*
X124053600Y-129082800D03*
X124104400Y-101041200D03*
X124104400Y-102311200D03*
X124104400Y-103581200D03*
X124104400Y-104851200D03*
X124104400Y-106121200D03*
X124104400Y-107391200D03*
X126441200Y-109651800D03*
X126691947Y-120780637D03*
X126695200Y-119735600D03*
X129895600Y-112115600D03*
X130276600Y-113969800D03*
X130632200Y-122351800D03*
X130632200Y-124282200D03*
X131419600Y-122351800D03*
X131419600Y-124282200D03*
X132054600Y-108788200D03*
X132816600Y-143865600D03*
X132918200Y-141732000D03*
X133527800Y-143865600D03*
X134213600Y-119862600D03*
X134239000Y-143865600D03*
X134467600Y-134975600D03*
X135178800Y-134975600D03*
X135813800Y-100787200D03*
X135813800Y-101498400D03*
X135813800Y-102209600D03*
X135813800Y-102920800D03*
X135813800Y-103632000D03*
X135890000Y-134975600D03*
X135930100Y-112953800D03*
X136296400Y-110068900D03*
X136499600Y-113919000D03*
X136525000Y-110820200D03*
X136601200Y-134975600D03*
X137312400Y-117779800D03*
X137312400Y-134975600D03*
X137744200Y-115646200D03*
X141401800Y-106981500D03*
X142976600Y-106981500D03*
X144551400Y-106981500D03*
X144855800Y-113131200D03*
X144855800Y-114020200D03*
X144855800Y-114909200D03*
X145744800Y-113131200D03*
X145744800Y-114020200D03*
X145744800Y-114909200D03*
X146126200Y-106981500D03*
X146431596Y-109382184D03*
X146514300Y-117373400D03*
X146633800Y-113131200D03*
X146633800Y-114020200D03*
X146633800Y-114909200D03*
X147142200Y-109702600D03*
X147352100Y-117341300D03*
X147701000Y-106969300D03*
X147904200Y-111963200D03*
X149275800Y-106994700D03*
X149275800Y-115417600D03*
X149682200Y-144373600D03*
X150393400Y-144373600D03*
X150850600Y-107007900D03*
X151079200Y-117500400D03*
X151104600Y-144373600D03*
X151790400Y-117500400D03*
X151815800Y-144373600D03*
X152425400Y-107007900D03*
X152501600Y-117500400D03*
X152527000Y-144373600D03*
X153212800Y-117500400D03*
X153924000Y-117500400D03*
X154965400Y-114579400D03*
X155092400Y-109702600D03*
X156712223Y-110584360D03*
X158419800Y-100685600D03*
X158419800Y-101396800D03*
X158419800Y-102108000D03*
X158419800Y-102819200D03*
X158419800Y-103530400D03*
X160274000Y-125069600D03*
X160274000Y-125780800D03*
X160274000Y-126492000D03*
X160477200Y-114020600D03*
X161366200Y-109626400D03*
X161391600Y-111556800D03*
X161442400Y-127889000D03*
X162001200Y-133146800D03*
X162052000Y-113487200D03*
X162179000Y-130479800D03*
X164261800Y-120345200D03*
X165912800Y-133324600D03*
X166319200Y-129336800D03*
X166827200Y-121716800D03*
X166827200Y-122428000D03*
X166827200Y-123139200D03*
X167792400Y-111683800D03*
X167792400Y-112395000D03*
X167792400Y-113106200D03*
X167792400Y-113817400D03*
X167792400Y-114528600D03*
D11*
%TO.C,J5*%
X112096600Y-137729200D03*
X125596600Y-137729200D03*
D12*
%TO.C,J4*%
X138201400Y-102108000D03*
X140741400Y-102108000D03*
X143281400Y-102108000D03*
X145821400Y-102108000D03*
X148361400Y-102108000D03*
X150901400Y-102108000D03*
X153441400Y-102108000D03*
X155981400Y-102108000D03*
D13*
%TO.C,J5*%
X115246600Y-131729200D03*
X122446600Y-131729200D03*
M02*
