%TF.GenerationSoftware,KiCad,Pcbnew,7.0.5*%
%TF.CreationDate,2023-06-27T23:48:29+08:00*%
%TF.ProjectId,BQ40Z80,42513430-5a38-4302-9e6b-696361645f70,rev?*%
%TF.SameCoordinates,Original*%
%TF.FileFunction,Soldermask,Top*%
%TF.FilePolarity,Negative*%
%FSLAX46Y46*%
G04 Gerber Fmt 4.6, Leading zero omitted, Abs format (unit mm)*
G04 Created by KiCad (PCBNEW 7.0.5) date 2023-06-27 23:48:29*
%MOMM*%
%LPD*%
G01*
G04 APERTURE LIST*
G04 Aperture macros list*
%AMRoundRect*
0 Rectangle with rounded corners*
0 $1 Rounding radius*
0 $2 $3 $4 $5 $6 $7 $8 $9 X,Y pos of 4 corners*
0 Add a 4 corners polygon primitive as box body*
4,1,4,$2,$3,$4,$5,$6,$7,$8,$9,$2,$3,0*
0 Add four circle primitives for the rounded corners*
1,1,$1+$1,$2,$3*
1,1,$1+$1,$4,$5*
1,1,$1+$1,$6,$7*
1,1,$1+$1,$8,$9*
0 Add four rect primitives between the rounded corners*
20,1,$1+$1,$2,$3,$4,$5,0*
20,1,$1+$1,$4,$5,$6,$7,0*
20,1,$1+$1,$6,$7,$8,$9,0*
20,1,$1+$1,$8,$9,$2,$3,0*%
%AMFreePoly0*
4,1,17,2.675000,1.605000,1.875000,1.605000,1.875000,0.935000,2.675000,0.935000,2.675000,0.335000,1.875000,0.335000,1.875000,-0.335000,2.675000,-0.335000,2.675000,-0.935000,1.875000,-0.935000,1.875000,-1.605000,2.675000,-1.605000,2.675000,-2.205000,-1.875000,-2.205000,-1.875000,2.205000,2.675000,2.205000,2.675000,1.605000,2.675000,1.605000,$1*%
%AMFreePoly1*
4,1,14,0.314644,0.085355,0.385355,0.014644,0.400000,-0.020711,0.400000,-0.050000,0.385355,-0.085355,0.350000,-0.100000,-0.350000,-0.100000,-0.385355,-0.085355,-0.400000,-0.050000,-0.400000,0.050000,-0.385355,0.085355,-0.350000,0.100000,0.279289,0.100000,0.314644,0.085355,0.314644,0.085355,$1*%
%AMFreePoly2*
4,1,14,0.385355,0.085355,0.400000,0.050000,0.400000,0.020711,0.385355,-0.014645,0.314644,-0.085355,0.279289,-0.100000,-0.350000,-0.100000,-0.385355,-0.085355,-0.400000,-0.050000,-0.400000,0.050000,-0.385355,0.085355,-0.350000,0.100000,0.350000,0.100000,0.385355,0.085355,0.385355,0.085355,$1*%
%AMFreePoly3*
4,1,14,0.085355,0.385355,0.100000,0.350000,0.100000,-0.350000,0.085355,-0.385355,0.050000,-0.400000,-0.050000,-0.400000,-0.085355,-0.385355,-0.100000,-0.350000,-0.100000,0.279289,-0.085355,0.314644,-0.014645,0.385355,0.020711,0.400000,0.050000,0.400000,0.085355,0.385355,0.085355,0.385355,$1*%
%AMFreePoly4*
4,1,14,0.014644,0.385355,0.085355,0.314644,0.100000,0.279289,0.100000,-0.350000,0.085355,-0.385355,0.050000,-0.400000,-0.050000,-0.400000,-0.085355,-0.385355,-0.100000,-0.350000,-0.100000,0.350000,-0.085355,0.385355,-0.050000,0.400000,-0.020711,0.400000,0.014644,0.385355,0.014644,0.385355,$1*%
%AMFreePoly5*
4,1,14,0.385355,0.085355,0.400000,0.050000,0.400000,-0.050000,0.385355,-0.085355,0.350000,-0.100000,-0.279289,-0.100000,-0.314645,-0.085355,-0.385355,-0.014644,-0.400000,0.020711,-0.400000,0.050000,-0.385355,0.085355,-0.350000,0.100000,0.350000,0.100000,0.385355,0.085355,0.385355,0.085355,$1*%
%AMFreePoly6*
4,1,14,0.385355,0.085355,0.400000,0.050000,0.400000,-0.050000,0.385355,-0.085355,0.350000,-0.100000,-0.350000,-0.100000,-0.385355,-0.085355,-0.400000,-0.050000,-0.400000,-0.020711,-0.385355,0.014644,-0.314645,0.085355,-0.279289,0.100000,0.350000,0.100000,0.385355,0.085355,0.385355,0.085355,$1*%
%AMFreePoly7*
4,1,14,0.085355,0.385355,0.100000,0.350000,0.100000,-0.279289,0.085355,-0.314645,0.014644,-0.385355,-0.020711,-0.400000,-0.050000,-0.400000,-0.085355,-0.385355,-0.100000,-0.350000,-0.100000,0.350000,-0.085355,0.385355,-0.050000,0.400000,0.050000,0.400000,0.085355,0.385355,0.085355,0.385355,$1*%
%AMFreePoly8*
4,1,14,0.085355,0.385355,0.100000,0.350000,0.100000,-0.350000,0.085355,-0.385355,0.050000,-0.400000,0.020711,-0.400000,-0.014645,-0.385355,-0.085355,-0.314644,-0.100000,-0.279289,-0.100000,0.350000,-0.085355,0.385355,-0.050000,0.400000,0.050000,0.400000,0.085355,0.385355,0.085355,0.385355,$1*%
%AMFreePoly9*
4,1,17,1.371000,0.720000,0.950000,0.720000,0.950000,0.580000,1.370000,0.580000,1.370000,0.080000,0.950000,0.080000,0.950000,-0.080000,1.370000,-0.080000,1.370000,-0.580000,0.950000,-0.580000,0.950000,-0.720000,1.370000,-0.720000,1.370000,-1.225000,-0.950000,-1.225000,-0.950000,1.225000,1.371000,1.225000,1.371000,0.720000,1.371000,0.720000,$1*%
%AMFreePoly10*
4,1,13,3.742426,0.742426,3.760000,0.700000,3.760000,-0.700000,3.742426,-0.742426,3.700000,-0.760000,-3.700000,-0.760000,-3.742426,-0.742426,-3.760000,-0.700000,-3.760000,0.700000,-3.742426,0.742426,-3.700000,0.760000,3.700000,0.760000,3.742426,0.742426,3.742426,0.742426,$1*%
%AMFreePoly11*
4,1,27,-0.306292,1.552250,-0.286916,1.546364,1.113084,0.396364,1.114550,0.393617,1.117426,0.392426,1.125176,0.373715,1.134713,0.355854,1.133808,0.352876,1.135000,0.350000,1.135000,-0.350000,1.133808,-0.352876,1.134713,-0.355854,1.125176,-0.373715,1.117426,-0.392426,1.114550,-0.393617,1.113084,-0.396364,-0.286916,-1.546364,-0.306292,-1.552250,-0.325000,-1.560000,-1.075000,-1.560000,
-1.117426,-1.542426,-1.135000,-1.500000,-1.135000,1.500000,-1.117426,1.542426,-1.075000,1.560000,-0.325000,1.560000,-0.306292,1.552250,-0.306292,1.552250,$1*%
G04 Aperture macros list end*
%ADD10C,0.000000*%
%ADD11C,0.100000*%
%ADD12RoundRect,0.200000X0.275000X-0.200000X0.275000X0.200000X-0.275000X0.200000X-0.275000X-0.200000X0*%
%ADD13R,6.000000X14.000000*%
%ADD14RoundRect,0.200000X0.200000X0.275000X-0.200000X0.275000X-0.200000X-0.275000X0.200000X-0.275000X0*%
%ADD15RoundRect,0.250000X-0.362500X-1.425000X0.362500X-1.425000X0.362500X1.425000X-0.362500X1.425000X0*%
%ADD16RoundRect,0.200000X-0.275000X0.200000X-0.275000X-0.200000X0.275000X-0.200000X0.275000X0.200000X0*%
%ADD17RoundRect,0.250000X-0.262500X-0.450000X0.262500X-0.450000X0.262500X0.450000X-0.262500X0.450000X0*%
%ADD18RoundRect,0.218750X-0.218750X-0.256250X0.218750X-0.256250X0.218750X0.256250X-0.218750X0.256250X0*%
%ADD19RoundRect,0.225000X-0.225000X-0.250000X0.225000X-0.250000X0.225000X0.250000X-0.225000X0.250000X0*%
%ADD20RoundRect,0.200000X0.600000X-0.200000X0.600000X0.200000X-0.600000X0.200000X-0.600000X-0.200000X0*%
%ADD21RoundRect,0.250001X1.249999X-0.799999X1.249999X0.799999X-1.249999X0.799999X-1.249999X-0.799999X0*%
%ADD22RoundRect,0.200000X-0.200000X-0.275000X0.200000X-0.275000X0.200000X0.275000X-0.200000X0.275000X0*%
%ADD23R,0.900000X2.000000*%
%ADD24RoundRect,1.025000X1.025000X1.025000X-1.025000X1.025000X-1.025000X-1.025000X1.025000X-1.025000X0*%
%ADD25C,4.100000*%
%ADD26RoundRect,0.147500X0.147500X0.172500X-0.147500X0.172500X-0.147500X-0.172500X0.147500X-0.172500X0*%
%ADD27RoundRect,0.225000X0.225000X0.250000X-0.225000X0.250000X-0.225000X-0.250000X0.225000X-0.250000X0*%
%ADD28RoundRect,0.150000X0.150000X-0.587500X0.150000X0.587500X-0.150000X0.587500X-0.150000X-0.587500X0*%
%ADD29FreePoly0,90.000000*%
%ADD30R,0.500000X0.850000*%
%ADD31FreePoly1,90.000000*%
%ADD32RoundRect,0.050000X0.050000X-0.350000X0.050000X0.350000X-0.050000X0.350000X-0.050000X-0.350000X0*%
%ADD33FreePoly2,90.000000*%
%ADD34FreePoly3,90.000000*%
%ADD35RoundRect,0.050000X0.350000X-0.050000X0.350000X0.050000X-0.350000X0.050000X-0.350000X-0.050000X0*%
%ADD36FreePoly4,90.000000*%
%ADD37FreePoly5,90.000000*%
%ADD38FreePoly6,90.000000*%
%ADD39FreePoly7,90.000000*%
%ADD40FreePoly8,90.000000*%
%ADD41R,2.650000X2.650000*%
%ADD42FreePoly0,270.000000*%
%ADD43RoundRect,0.200000X-0.800000X0.200000X-0.800000X-0.200000X0.800000X-0.200000X0.800000X0.200000X0*%
%ADD44R,0.500000X0.630000*%
%ADD45FreePoly9,90.000000*%
%ADD46RoundRect,0.200000X-0.200000X-0.600000X0.200000X-0.600000X0.200000X0.600000X-0.200000X0.600000X0*%
%ADD47RoundRect,0.250001X-0.799999X-1.249999X0.799999X-1.249999X0.799999X1.249999X-0.799999X1.249999X0*%
%ADD48R,1.700000X1.700000*%
%ADD49O,1.700000X1.700000*%
%ADD50FreePoly10,90.000000*%
%ADD51FreePoly11,90.000000*%
%ADD52RoundRect,0.112500X0.187500X0.112500X-0.187500X0.112500X-0.187500X-0.112500X0.187500X-0.112500X0*%
%ADD53RoundRect,0.225000X0.250000X-0.225000X0.250000X0.225000X-0.250000X0.225000X-0.250000X-0.225000X0*%
%ADD54RoundRect,0.250000X-0.475000X0.250000X-0.475000X-0.250000X0.475000X-0.250000X0.475000X0.250000X0*%
%ADD55FreePoly9,270.000000*%
%ADD56RoundRect,0.250000X-0.250000X-1.500000X0.250000X-1.500000X0.250000X1.500000X-0.250000X1.500000X0*%
%ADD57RoundRect,0.250001X-0.499999X-1.449999X0.499999X-1.449999X0.499999X1.449999X-0.499999X1.449999X0*%
%ADD58RoundRect,0.150000X-0.587500X-0.150000X0.587500X-0.150000X0.587500X0.150000X-0.587500X0.150000X0*%
%ADD59RoundRect,0.225000X-0.250000X0.225000X-0.250000X-0.225000X0.250000X-0.225000X0.250000X0.225000X0*%
%ADD60RoundRect,0.250000X0.362500X1.425000X-0.362500X1.425000X-0.362500X-1.425000X0.362500X-1.425000X0*%
G04 APERTURE END LIST*
D10*
G36*
X117297200Y-125069600D02*
G01*
X117297200Y-130683000D01*
X113207800Y-130683000D01*
X113207800Y-129108200D01*
X113741200Y-128574800D01*
X113741200Y-124968000D01*
X117195600Y-124968000D01*
X117297200Y-125069600D01*
G37*
G36*
X123178683Y-103823883D02*
G01*
X123181843Y-107000839D01*
X124510800Y-108067140D01*
X124510800Y-108991400D01*
X121107200Y-108991400D01*
X121107200Y-107899200D01*
X120929400Y-107721400D01*
X119583200Y-107721400D01*
X118948200Y-108356400D01*
X118948200Y-114884200D01*
X115265200Y-114884200D01*
X114122200Y-116027200D01*
X112420400Y-116027200D01*
X112420400Y-108483400D01*
X113487200Y-108483400D01*
X113487200Y-103530400D01*
X114477800Y-102539800D01*
X121894600Y-102539800D01*
X123178683Y-103823883D01*
G37*
G36*
X123164600Y-126771400D02*
G01*
X124485400Y-128092200D01*
X124485400Y-131699000D01*
X120396000Y-131699000D01*
X119456200Y-130759200D01*
X119456200Y-121259600D01*
X123164600Y-121259600D01*
X123164600Y-126771400D01*
G37*
G36*
X124383800Y-116306600D02*
G01*
X119964200Y-116306600D01*
X119964200Y-113995200D01*
X124383800Y-113995200D01*
X124383800Y-116306600D01*
G37*
G36*
X109042200Y-129971800D02*
G01*
X106451400Y-132562600D01*
X104825800Y-129971800D01*
X104698800Y-127609600D01*
X107340400Y-124968000D01*
X109042200Y-124968000D01*
X109042200Y-129971800D01*
G37*
D11*
X108788200Y-108508800D02*
X109829600Y-108508800D01*
X109855000Y-108534200D01*
X109855000Y-116001800D01*
X108788200Y-117068600D01*
X105003600Y-117068600D01*
X105003600Y-104470200D01*
X105968800Y-103505000D01*
X108788200Y-103505000D01*
X108788200Y-108508800D01*
G36*
X108788200Y-108508800D02*
G01*
X109829600Y-108508800D01*
X109855000Y-108534200D01*
X109855000Y-116001800D01*
X108788200Y-117068600D01*
X105003600Y-117068600D01*
X105003600Y-104470200D01*
X105968800Y-103505000D01*
X108788200Y-103505000D01*
X108788200Y-108508800D01*
G37*
D12*
%TO.C,R31*%
X141401800Y-107632000D03*
X141401800Y-105982000D03*
%TD*%
D13*
%TO.C,TP11*%
X103500000Y-134500000D03*
%TD*%
D14*
%TO.C,R28*%
X133453600Y-118317800D03*
X131803600Y-118317800D03*
%TD*%
D15*
%TO.C,R24*%
X108432600Y-126644400D03*
X114357600Y-126644400D03*
%TD*%
D16*
%TO.C,R14*%
X133858000Y-109347000D03*
X133858000Y-110997000D03*
%TD*%
D15*
%TO.C,R13*%
X108162500Y-105181400D03*
X114087500Y-105181400D03*
%TD*%
D17*
%TO.C,R2*%
X141024600Y-125751600D03*
X142849600Y-125751600D03*
%TD*%
D18*
%TO.C,D9*%
X165277800Y-136524200D03*
X166852800Y-136524200D03*
%TD*%
D19*
%TO.C,C12*%
X110629400Y-120319800D03*
X112179400Y-120319800D03*
%TD*%
D20*
%TO.C,J2*%
X163690600Y-114193800D03*
X163690600Y-112943800D03*
X163690600Y-111693800D03*
X163690600Y-110443800D03*
D21*
X166590600Y-116743800D03*
X166590600Y-107893800D03*
%TD*%
D22*
%TO.C,TH1*%
X151194000Y-115163600D03*
X152844000Y-115163600D03*
%TD*%
D19*
%TO.C,C4*%
X148377600Y-123567200D03*
X149927600Y-123567200D03*
%TD*%
D22*
%TO.C,R21*%
X137046200Y-109905800D03*
X138696200Y-109905800D03*
%TD*%
D16*
%TO.C,R46*%
X163499800Y-120434600D03*
X163499800Y-122084600D03*
%TD*%
D23*
%TO.C,J5*%
X125596600Y-137729200D03*
X112096600Y-137729200D03*
D24*
X115246600Y-131729200D03*
D25*
X122446600Y-131729200D03*
%TD*%
D26*
%TO.C,D3*%
X160530400Y-111226600D03*
X159560400Y-111226600D03*
%TD*%
D16*
%TO.C,R16*%
X125933200Y-108572800D03*
X125933200Y-110222800D03*
%TD*%
%TO.C,R23*%
X129895600Y-116038000D03*
X129895600Y-117688000D03*
%TD*%
D19*
%TO.C,C6*%
X156505600Y-123567200D03*
X158055600Y-123567200D03*
%TD*%
%TO.C,C3*%
X144313600Y-123567200D03*
X145863600Y-123567200D03*
%TD*%
D17*
%TO.C,R1*%
X136962500Y-125751600D03*
X138787500Y-125751600D03*
%TD*%
D26*
%TO.C,D2*%
X160530400Y-113284000D03*
X159560400Y-113284000D03*
%TD*%
D19*
%TO.C,C13*%
X110629400Y-121843800D03*
X112179400Y-121843800D03*
%TD*%
D27*
%TO.C,C8*%
X138659200Y-119608600D03*
X137109200Y-119608600D03*
%TD*%
D28*
%TO.C,Q11*%
X131678600Y-116459000D03*
X133578600Y-116459000D03*
X132628600Y-114584000D03*
%TD*%
D26*
%TO.C,D4*%
X160530400Y-109651800D03*
X159560400Y-109651800D03*
%TD*%
D22*
%TO.C,R42*%
X155816800Y-109677200D03*
X157466800Y-109677200D03*
%TD*%
D28*
%TO.C,Q2*%
X140074600Y-129762500D03*
X141974600Y-129762500D03*
X141024600Y-127887500D03*
%TD*%
D17*
%TO.C,R5*%
X153218500Y-125751600D03*
X155043500Y-125751600D03*
%TD*%
D29*
%TO.C,Q12*%
X122174000Y-118129800D03*
D30*
X120269000Y-121679800D03*
X121539000Y-121679800D03*
X122809000Y-121679800D03*
X124079000Y-121679800D03*
%TD*%
D28*
%TO.C,Q4*%
X148202600Y-129737100D03*
X150102600Y-129737100D03*
X149152600Y-127862100D03*
%TD*%
D31*
%TO.C,U1*%
X144344800Y-115970200D03*
D32*
X144744800Y-115970200D03*
X145144800Y-115970200D03*
X145544800Y-115970200D03*
X145944800Y-115970200D03*
X146344800Y-115970200D03*
X146744800Y-115970200D03*
D33*
X147144800Y-115970200D03*
D34*
X147694800Y-115420200D03*
D35*
X147694800Y-115020200D03*
X147694800Y-114620200D03*
X147694800Y-114220200D03*
X147694800Y-113820200D03*
X147694800Y-113420200D03*
X147694800Y-113020200D03*
D36*
X147694800Y-112620200D03*
D37*
X147144800Y-112070200D03*
D32*
X146744800Y-112070200D03*
X146344800Y-112070200D03*
X145944800Y-112070200D03*
X145544800Y-112070200D03*
X145144800Y-112070200D03*
X144744800Y-112070200D03*
D38*
X144344800Y-112070200D03*
D39*
X143794800Y-112620200D03*
D35*
X143794800Y-113020200D03*
X143794800Y-113420200D03*
X143794800Y-113820200D03*
X143794800Y-114220200D03*
X143794800Y-114620200D03*
X143794800Y-115020200D03*
D40*
X143794800Y-115420200D03*
D41*
X145744800Y-114020200D03*
%TD*%
D14*
%TO.C,R47*%
X133453600Y-119892600D03*
X131803600Y-119892600D03*
%TD*%
D22*
%TO.C,R26*%
X112090200Y-123520200D03*
X113740200Y-123520200D03*
%TD*%
D42*
%TO.C,Q8*%
X122174000Y-112156000D03*
D30*
X124079000Y-108606000D03*
X122809000Y-108606000D03*
X121539000Y-108606000D03*
X120269000Y-108606000D03*
%TD*%
D18*
%TO.C,D8*%
X165277800Y-133934200D03*
X166852800Y-133934200D03*
%TD*%
D28*
%TO.C,Q1*%
X136010600Y-129762500D03*
X137910600Y-129762500D03*
X136960600Y-127887500D03*
%TD*%
D22*
%TO.C,R15*%
X137046200Y-108381800D03*
X138696200Y-108381800D03*
%TD*%
D43*
%TO.C,SW1*%
X166090600Y-120150200D03*
X166090600Y-124350200D03*
%TD*%
D12*
%TO.C,R30*%
X125958600Y-121729000D03*
X125958600Y-120079000D03*
%TD*%
D22*
%TO.C,R38*%
X159220400Y-115163600D03*
X160870400Y-115163600D03*
%TD*%
D44*
%TO.C,Q9*%
X126132000Y-114507000D03*
X126772000Y-114507000D03*
X127432000Y-114507000D03*
X128072000Y-114507000D03*
D45*
X127102000Y-112682000D03*
%TD*%
D46*
%TO.C,J1*%
X132902800Y-140373400D03*
X134152800Y-140373400D03*
D47*
X130352800Y-143273400D03*
X136702800Y-143273400D03*
%TD*%
D19*
%TO.C,C5*%
X152441600Y-123567200D03*
X153991600Y-123567200D03*
%TD*%
D22*
%TO.C,R41*%
X155816800Y-111252000D03*
X157466800Y-111252000D03*
%TD*%
D12*
%TO.C,R40*%
X152425400Y-107658400D03*
X152425400Y-106008400D03*
%TD*%
D14*
%TO.C,R10*%
X149977600Y-131593600D03*
X148327600Y-131593600D03*
%TD*%
D13*
%TO.C,TP1*%
X103500000Y-111500000D03*
%TD*%
D14*
%TO.C,R8*%
X141849600Y-131593600D03*
X140199600Y-131593600D03*
%TD*%
D22*
%TO.C,R49*%
X137046200Y-111429800D03*
X138696200Y-111429800D03*
%TD*%
D18*
%TO.C,D7*%
X165277700Y-131419600D03*
X166852700Y-131419600D03*
%TD*%
D14*
%TO.C,R25*%
X133463800Y-112750600D03*
X131813800Y-112750600D03*
%TD*%
D48*
%TO.C,J4*%
X155981400Y-102108000D03*
D49*
X153441400Y-102108000D03*
X150901400Y-102108000D03*
X148361400Y-102108000D03*
X145821400Y-102108000D03*
X143281400Y-102108000D03*
X140741400Y-102108000D03*
X138201400Y-102108000D03*
%TD*%
D50*
%TO.C,F1*%
X109082400Y-112268400D03*
D51*
X111132400Y-117144400D03*
D50*
X113182400Y-112268400D03*
%TD*%
D12*
%TO.C,R36*%
X147701000Y-107619800D03*
X147701000Y-105969800D03*
%TD*%
D52*
%TO.C,D1*%
X138811000Y-117779800D03*
X136711000Y-117779800D03*
%TD*%
D12*
%TO.C,R33*%
X144551400Y-107632000D03*
X144551400Y-105982000D03*
%TD*%
D22*
%TO.C,R45*%
X161443400Y-133878800D03*
X163093400Y-133878800D03*
%TD*%
D19*
%TO.C,C2*%
X140249600Y-123567200D03*
X141799600Y-123567200D03*
%TD*%
D14*
%TO.C,R11*%
X154041600Y-131593600D03*
X152391600Y-131593600D03*
%TD*%
D53*
%TO.C,C10*%
X109041200Y-121831400D03*
X109041200Y-120281400D03*
%TD*%
D12*
%TO.C,R39*%
X149275800Y-107645200D03*
X149275800Y-105995200D03*
%TD*%
D19*
%TO.C,C1*%
X136185600Y-123567200D03*
X137735600Y-123567200D03*
%TD*%
D22*
%TO.C,R35*%
X155816800Y-113309400D03*
X157466800Y-113309400D03*
%TD*%
D18*
%TO.C,D5*%
X165277800Y-126164200D03*
X166852800Y-126164200D03*
%TD*%
D14*
%TO.C,R12*%
X158105600Y-131593600D03*
X156455600Y-131593600D03*
%TD*%
D18*
%TO.C,D6*%
X165277700Y-128855800D03*
X166852700Y-128855800D03*
%TD*%
D14*
%TO.C,R7*%
X137785600Y-131593600D03*
X136135600Y-131593600D03*
%TD*%
D53*
%TO.C,C14*%
X113740200Y-121856800D03*
X113740200Y-120306800D03*
%TD*%
D14*
%TO.C,R22*%
X110718600Y-123520200D03*
X109068600Y-123520200D03*
%TD*%
D28*
%TO.C,Q6*%
X156330600Y-129737100D03*
X158230600Y-129737100D03*
X157280600Y-127862100D03*
%TD*%
D15*
%TO.C,R17*%
X122538900Y-105333800D03*
X128463900Y-105333800D03*
%TD*%
D12*
%TO.C,R37*%
X146126200Y-107632000D03*
X146126200Y-105982000D03*
%TD*%
D22*
%TO.C,R19*%
X137059200Y-114477800D03*
X138709200Y-114477800D03*
%TD*%
%TO.C,R18*%
X137059200Y-116001800D03*
X138709200Y-116001800D03*
%TD*%
%TO.C,R48*%
X155803600Y-115163600D03*
X157453600Y-115163600D03*
%TD*%
D12*
%TO.C,R34*%
X150850600Y-107658400D03*
X150850600Y-106008400D03*
%TD*%
D17*
%TO.C,R3*%
X145090500Y-125751600D03*
X146915500Y-125751600D03*
%TD*%
D22*
%TO.C,R27*%
X137046200Y-112953800D03*
X138696200Y-112953800D03*
%TD*%
D28*
%TO.C,Q5*%
X152266600Y-129737100D03*
X154166600Y-129737100D03*
X153216600Y-127862100D03*
%TD*%
D14*
%TO.C,R9*%
X145913600Y-131593600D03*
X144263600Y-131593600D03*
%TD*%
D54*
%TO.C,C11*%
X117932200Y-119659400D03*
X117932200Y-121559400D03*
%TD*%
D44*
%TO.C,Q10*%
X128076400Y-115773200D03*
X127436400Y-115773200D03*
X126776400Y-115773200D03*
X126136400Y-115773200D03*
D55*
X127106400Y-117598200D03*
%TD*%
D54*
%TO.C,C9*%
X117932200Y-116194800D03*
X117932200Y-118094800D03*
%TD*%
D56*
%TO.C,J3*%
X142107400Y-138145400D03*
X144107400Y-138145400D03*
X146107400Y-138145400D03*
X148107400Y-138145400D03*
X150107400Y-138145400D03*
X152107400Y-138145400D03*
X154107400Y-138145400D03*
D57*
X139757400Y-143895400D03*
X156457400Y-143895400D03*
%TD*%
D28*
%TO.C,Q3*%
X144138600Y-129762500D03*
X146038600Y-129762500D03*
X145088600Y-127887500D03*
%TD*%
D58*
%TO.C,Q7*%
X130149600Y-109237200D03*
X130149600Y-111137200D03*
X132024600Y-110187200D03*
%TD*%
D16*
%TO.C,R20*%
X129895600Y-112914800D03*
X129895600Y-114564800D03*
%TD*%
D22*
%TO.C,R43*%
X161443400Y-128858800D03*
X163093400Y-128858800D03*
%TD*%
D17*
%TO.C,R6*%
X157282500Y-125751600D03*
X159107500Y-125751600D03*
%TD*%
%TO.C,R4*%
X149154500Y-125751600D03*
X150979500Y-125751600D03*
%TD*%
D22*
%TO.C,R44*%
X161443400Y-131368800D03*
X163093400Y-131368800D03*
%TD*%
D12*
%TO.C,R32*%
X142976600Y-107632000D03*
X142976600Y-105982000D03*
%TD*%
D59*
%TO.C,C7*%
X135435100Y-109407200D03*
X135435100Y-110957200D03*
%TD*%
D60*
%TO.C,R29*%
X128463900Y-125044200D03*
X122538900Y-125044200D03*
%TD*%
M02*
